<?xml version="1.0" encoding="utf-8" ?><svg version="1.1" xmlns = 'http://www.w3.org/2000/svg'><defs><font id='web' horiz-adv-x="1000">
<font-face font-family="web" descent="-250" units-per-em="1000" ascent="750" bbox="-203,-314,1664,1192" x-height="500" cap-height="750" />
<missing-glyph horiz-adv-x="500" d="M 50 -250 L 450 -250 L 450 750 L 50 750 L 50 -250 Z M 100 -200 L 100 700 L 400 700 L 400 -200 L 100 -200 Z" /><glyph unicode=" " horiz-adv-x="400" d="" />
<glyph unicode="!" horiz-adv-x="487" d="M 183 220 L 303 220 L 409 750 L 78 750 Z M 208 630 L 279 630 L 243 400 Z M 244 -11 C 302 -11 347 32 347 91 C 347 149 302 190 244 190 C 184 190 139 149 139 91 C 139 32 184 -11 244 -11 Z" />
<glyph unicode="&#x22;" horiz-adv-x="673" d="M 147 433 L 246 433 L 305 750 L 88 750 Z M 427 433 L 526 433 L 585 750 L 368 750 Z" />
<glyph unicode="#" horiz-adv-x="951" d="M 516 0 L 636 0 L 659 170 L 810 170 L 810 290 L 675 290 L 697 460 L 851 460 L 851 580 L 713 580 L 736 750 L 616 750 L 593 580 L 413 580 L 436 750 L 316 750 L 293 580 L 141 580 L 141 460 L 277 460 L 255 290 L 100 290 L 100 170 L 239 170 L 216 0 L 336 0 L 359 170 L 539 170 Z M 375 290 L 397 460 L 577 460 L 555 290 Z" />
<glyph unicode="$" horiz-adv-x="877" d="M 777 259 C 777 343 755 440 574 495 L 291 581 C 324 610 377 625 444 625 C 541 625 622 593 667 551 L 711 673 C 669 699 597 731 505 741 L 505 855 L 385 855 L 385 742 C 242 725 132 643 132 492 C 132 387 175 302 328 254 L 608 167 C 568 139 506 126 432 126 C 322 126 205 162 145 227 L 100 105 C 162 49 270 14 385 7 L 385 -104 L 505 -104 L 505 11 C 659 31 777 112 777 259 Z M 375 363 C 303 383 267 420 257 462 L 530 384 C 614 360 646 325 654 284 Z" />
<glyph unicode="%" horiz-adv-x="1210" d="M 283 346 C 407 346 497 434 497 556 C 497 678 407 766 283 766 C 159 766 70 678 70 556 C 70 434 159 346 283 346 Z M 791 750 L 277 0 L 423 0 L 937 750 Z M 283 451 C 222 451 181 495 181 556 C 181 617 222 661 283 661 C 344 661 386 617 386 556 C 386 495 344 451 283 451 Z M 927 404 C 803 404 713 316 713 194 C 713 72 803 -16 927 -16 C 1051 -16 1140 72 1140 194 C 1140 316 1051 404 927 404 Z M 927 299 C 988 299 1029 255 1029 194 C 1029 133 988 89 927 89 C 866 89 824 133 824 194 C 824 255 866 299 927 299 Z" />
<glyph unicode="&#x26;" horiz-adv-x="1134" d="M 70 263 C 70 101 191 -15 372 -15 C 490 -15 577 35 636 92 L 699 0 L 1064 0 L 871 283 L 1063 525 L 910 525 L 800 386 L 634 630 L 825 630 L 825 750 L 187 750 L 331 539 C 173 523 70 412 70 263 Z M 415 630 L 488 630 L 836 120 L 763 120 Z M 372 105 C 269 105 190 165 190 263 C 190 361 274 421 384 421 L 412 421 L 568 191 C 523 145 460 105 372 105 Z" />
<glyph unicode="'" horiz-adv-x="393" d="M 147 433 L 246 433 L 305 750 L 88 750 Z" />
<glyph unicode="(" horiz-adv-x="603" d="M 80 376 C 80 87 246 -120 493 -120 L 493 0 C 328 0 210 152 210 376 C 210 599 328 750 493 750 L 493 870 C 246 870 80 663 80 376 Z" />
<glyph unicode=")" horiz-adv-x="603" d="M 523 376 C 523 663 357 870 110 870 L 110 750 C 275 750 393 599 393 376 C 393 152 275 0 110 0 L 110 -120 C 357 -120 523 87 523 376 Z" />
<glyph unicode="*" horiz-adv-x="662" d="M 431 236 L 541 316 L 421 456 L 602 503 L 560 634 L 386 563 L 400 750 L 263 750 L 276 562 L 102 633 L 60 503 L 243 456 L 122 316 L 232 235 L 332 392 Z" />
<glyph unicode="+" horiz-adv-x="710" d="M 610 273 L 610 393 L 415 393 L 415 588 L 295 588 L 295 393 L 100 393 L 100 273 L 295 273 L 295 78 L 415 78 L 415 273 Z" />
<glyph unicode="," horiz-adv-x="391" d="M 101 -102 L 217 -102 L 277 2 C 294 31 311 63 311 101 C 311 163 263 212 196 212 C 128 212 80 164 80 104 C 80 53 112 15 163 1 Z" />
<glyph unicode="-" horiz-adv-x="560" d="M 100 273 L 460 273 L 460 393 L 100 393 Z" />
<glyph unicode="." horiz-adv-x="391" d="M 196 -11 C 261 -11 311 37 311 102 C 311 166 261 212 196 212 C 130 212 80 166 80 102 C 80 37 130 -11 196 -11 Z" />
<glyph unicode="/" horiz-adv-x="630" d="M 180 -120 L 580 870 L 450 870 L 50 -120 Z" />
<glyph unicode="0" horiz-adv-x="1027" d="M 513 -14 C 750 -14 927 149 927 376 C 927 603 750 766 513 766 C 276 766 100 603 100 376 C 100 149 276 -14 513 -14 Z M 513 646 C 680 646 797 538 797 376 C 797 214 680 106 513 106 C 472 106 434 112 400 123 L 400 629 C 434 640 472 646 513 646 Z M 219 376 C 219 445 241 505 280 550 L 280 202 C 241 247 219 307 219 376 Z" />
<glyph unicode="1" horiz-adv-x="620" d="M 150 0 L 470 0 L 470 750 L 150 750 Z M 340 630 L 340 120 L 280 120 L 280 630 Z" />
<glyph unicode="2" horiz-adv-x="845" d="M 735 120 L 400 120 L 400 242 L 423 242 C 599 242 716 351 716 503 C 716 655 599 764 423 764 C 310 764 223 731 176 696 L 221 586 C 250 612 323 642 415 644 L 415 362 L 100 362 L 100 0 L 735 0 Z M 596 503 C 596 446 573 409 535 387 L 535 618 C 572 597 596 560 596 503 Z M 220 120 L 220 242 L 280 242 L 280 120 Z" />
<glyph unicode="3" horiz-adv-x="844" d="M 127 630 L 302 630 L 189 388 L 451 388 L 454 388 L 454 108 C 440 107 426 106 411 106 C 275 106 170 158 125 199 L 80 84 C 146 35 259 -14 411 -14 C 617 -14 754 85 754 247 C 754 362 685 452 572 490 L 694 750 L 127 750 Z M 444 508 L 378 508 L 438 632 L 504 632 Z M 634 247 C 634 198 611 164 574 141 L 574 361 C 611 339 634 302 634 247 Z" />
<glyph unicode="4" horiz-adv-x="920" d="M 470 0 L 770 0 L 770 750 L 470 750 L 470 362 L 230 362 L 230 750 L 100 750 L 100 242 L 470 242 Z M 590 630 L 650 630 L 650 120 L 590 120 Z" />
<glyph unicode="5" horiz-adv-x="855" d="M 755 247 C 755 399 634 508 452 508 L 439 508 L 439 630 L 674 630 L 674 750 L 139 750 L 139 388 L 452 388 L 455 388 L 455 108 C 441 107 427 106 412 106 C 276 106 171 158 126 199 L 81 84 C 147 35 260 -14 412 -14 C 618 -14 755 85 755 247 Z M 259 630 L 319 630 L 319 508 L 259 508 Z M 635 247 C 635 198 612 164 575 141 L 575 361 C 612 339 635 302 635 247 Z" />
<glyph unicode="6" horiz-adv-x="867" d="M 767 295 C 767 479 626 610 440 613 L 571 750 L 391 750 L 188 516 C 133 460 100 384 100 295 C 100 110 244 -23 433 -23 C 622 -23 767 110 767 295 Z M 433 493 C 554 493 637 411 637 295 C 637 179 554 97 433 97 C 422 97 411 98 401 99 L 401 491 C 411 492 422 493 433 493 Z M 220 295 C 220 354 242 404 281 439 L 281 151 C 242 186 220 236 220 295 Z" />
<glyph unicode="7" horiz-adv-x="826" d="M 80 630 L 367 630 L 159 0 L 498 0 L 746 750 L 80 750 Z M 334 120 L 502 630 L 571 630 L 403 120 Z" />
<glyph unicode="8" horiz-adv-x="912" d="M 822 258 C 822 346 775 416 698 462 C 716 489 726 522 726 557 C 726 677 614 764 457 764 C 299 764 186 677 186 557 C 186 522 196 489 214 462 C 137 417 90 347 90 258 C 90 90 248 -14 455 -14 C 662 -14 822 90 822 258 Z M 606 552 C 606 533 602 517 592 504 C 558 512 522 518 483 519 L 483 648 C 562 643 606 611 606 552 Z M 306 552 C 306 593 327 621 368 636 L 368 514 C 352 511 336 508 320 504 C 311 518 306 534 306 552 Z M 455 410 C 599 410 692 363 692 258 C 692 153 599 106 455 106 C 432 106 410 107 390 109 L 390 407 C 410 409 432 410 455 410 Z M 210 258 C 210 308 231 345 270 370 L 270 146 C 231 171 210 208 210 258 Z" />
<glyph unicode="9" horiz-adv-x="867" d="M 767 455 C 767 640 623 773 434 773 C 245 773 100 640 100 455 C 100 271 241 140 427 137 L 296 0 L 476 0 L 679 234 C 734 290 767 366 767 455 Z M 434 653 C 555 653 637 571 637 455 C 637 339 555 257 434 257 C 422 257 411 258 400 259 L 400 651 C 411 652 422 653 434 653 Z M 220 455 C 220 513 242 563 280 598 L 280 312 C 242 347 220 397 220 455 Z" />
<glyph unicode=":" horiz-adv-x="431" d="M 216 389 C 281 389 331 437 331 502 C 331 566 281 612 216 612 C 150 612 100 566 100 502 C 100 437 150 389 216 389 Z M 216 -11 C 281 -11 331 37 331 102 C 331 166 281 212 216 212 C 150 212 100 166 100 102 C 100 37 150 -11 216 -11 Z" />
<glyph unicode=";" horiz-adv-x="431" d="M 216 389 C 281 389 331 437 331 502 C 331 566 281 612 216 612 C 150 612 100 566 100 502 C 100 437 150 389 216 389 Z M 121 -102 L 237 -102 L 297 2 C 314 31 331 63 331 101 C 331 163 283 212 216 212 C 148 212 100 164 100 104 C 100 53 132 15 183 1 Z" />
<glyph unicode="&#x3C;" horiz-adv-x="710" d="M 610 193 L 253 333 L 610 473 L 610 593 L 100 393 L 100 273 L 610 73 Z" />
<glyph unicode="=" horiz-adv-x="710" d="M 100 413 L 610 413 L 610 533 L 100 533 Z M 100 133 L 610 133 L 610 253 L 100 253 Z" />
<glyph unicode="&#x3E;" horiz-adv-x="710" d="M 610 273 L 610 393 L 100 593 L 100 473 L 457 333 L 100 193 L 100 73 Z" />
<glyph unicode="?" horiz-adv-x="777" d="M 376 220 L 376 270 C 557 274 677 373 677 512 C 677 657 550 760 367 761 C 272 761 169 740 80 682 L 127 568 C 190 613 275 641 368 641 C 371 641 373 641 376 641 L 376 380 C 373 380 370 380 367 380 L 256 380 L 256 220 Z M 557 513 C 557 466 536 430 496 407 L 496 615 C 536 594 557 559 557 513 Z M 316 -11 C 374 -11 419 32 419 91 C 419 149 374 190 316 190 C 256 190 211 149 211 91 C 211 32 256 -11 316 -11 Z" />
<glyph unicode="@" horiz-adv-x="1156" d="M 1006 376 C 1006 641 829 830 568 830 C 305 830 130 641 130 376 C 130 110 311 -80 583 -80 L 583 40 C 384 40 250 180 250 376 C 250 571 378 710 568 710 C 758 710 886 571 886 376 L 886 267 L 786 267 L 786 376 C 786 511 698 608 568 608 C 437 608 350 511 350 376 C 350 241 443 143 583 143 L 1006 143 Z M 583 263 C 515 263 470 311 470 376 C 470 441 509 487 568 487 C 626 487 666 440 666 376 L 666 263 Z" />
<glyph unicode="A" horiz-adv-x="1004" d="M 631 0 L 974 0 L 502 762 L 30 0 L 177 0 L 220 70 L 588 70 Z M 472 477 L 506 533 L 763 120 L 694 120 Z M 294 190 L 404 368 L 514 190 Z" />
<glyph unicode="B" horiz-adv-x="947" d="M 150 0 L 583 0 C 729 0 847 93 847 235 C 847 329 792 399 712 434 C 738 466 753 505 753 550 C 753 666 659 750 543 750 L 150 750 Z M 543 630 C 589 630 632 599 632 550 C 632 501 589 470 543 470 L 450 470 L 450 630 Z M 330 120 L 270 120 L 270 630 L 330 630 Z M 583 120 L 450 120 L 450 350 L 583 350 C 656 350 717 317 717 235 C 717 153 656 120 583 120 Z" />
<glyph unicode="C" horiz-adv-x="905" d="M 812 83 L 766 200 C 697 135 604 105 513 105 C 472 105 434 111 400 121 L 400 629 C 434 639 472 645 513 645 C 604 645 698 615 766 550 L 812 667 C 734 729 630 765 513 765 C 266 765 100 602 100 375 C 100 148 266 -15 513 -15 C 630 -15 734 21 812 83 Z M 220 375 C 220 446 241 506 280 552 L 280 198 C 241 244 220 304 220 375 Z" />
<glyph unicode="D" horiz-adv-x="1037" d="M 150 0 L 523 0 C 770 0 937 156 937 375 C 937 594 770 750 523 750 L 150 750 Z M 523 630 C 700 630 807 528 807 375 C 807 222 700 120 523 120 L 450 120 L 450 630 Z M 330 630 L 330 120 L 270 120 L 270 630 Z" />
<glyph unicode="E" horiz-adv-x="930" d="M 150 0 L 830 0 L 830 120 L 450 120 L 450 273 L 660 273 L 660 393 L 450 393 L 450 630 L 830 630 L 830 750 L 150 750 Z M 330 630 L 330 120 L 270 120 L 270 630 Z" />
<glyph unicode="F" horiz-adv-x="910" d="M 150 0 L 450 0 L 450 323 L 660 323 L 660 443 L 450 443 L 450 630 L 830 630 L 830 750 L 150 750 Z M 330 630 L 330 120 L 270 120 L 270 630 Z" />
<glyph unicode="G" horiz-adv-x="978" d="M 878 180 L 878 454 L 748 454 L 748 213 C 703 150 612 105 513 105 C 472 105 434 111 400 122 L 400 628 C 434 639 472 645 513 645 C 573 645 636 628 674 607 L 711 723 C 659 746 586 765 513 765 C 276 765 100 602 100 375 C 100 148 276 -15 513 -15 C 664 -14 811 66 878 180 Z M 220 375 C 220 445 242 504 280 549 L 280 201 C 242 246 220 305 220 375 Z" />
<glyph unicode="H" horiz-adv-x="1030" d="M 750 0 L 880 0 L 880 750 L 750 750 L 750 335 L 450 335 L 450 750 L 150 750 L 150 0 L 450 0 L 450 215 L 750 215 Z M 330 630 L 330 120 L 270 120 L 270 630 Z" />
<glyph unicode="I" horiz-adv-x="620" d="M 150 0 L 470 0 L 470 750 L 150 750 Z M 340 630 L 340 120 L 280 120 L 280 630 Z" />
<glyph unicode="J" horiz-adv-x="727" d="M 224 -15 C 447 -15 597 138 597 353 L 597 750 L 297 750 L 297 116 C 275 108 251 105 224 105 C 175 105 132 116 92 137 L 50 21 C 104 1 161 -15 224 -15 Z M 477 353 C 477 273 451 205 417 176 L 417 630 L 477 630 Z" />
<glyph unicode="K" horiz-adv-x="980" d="M 779 0 L 936 0 L 651 412 L 905 750 L 755 750 L 450 345 L 450 750 L 150 750 L 150 0 L 450 0 L 450 146 L 568 303 Z M 330 630 L 330 120 L 270 120 L 270 630 Z" />
<glyph unicode="L" horiz-adv-x="882" d="M 822 120 L 450 120 L 450 750 L 150 750 L 150 0 L 822 0 Z M 330 630 L 330 120 L 270 120 L 270 630 Z" />
<glyph unicode="M" horiz-adv-x="1223" d="M 987 0 L 1133 0 L 943 760 L 623 255 L 280 760 L 90 0 L 393 0 L 455 250 L 626 -2 L 883 418 Z M 369 377 L 304 120 L 244 120 L 325 443 Z" />
<glyph unicode="N" horiz-adv-x="985" d="M 835 750 L 695 750 L 695 290 L 150 775 L 150 0 L 450 0 L 450 323 L 835 -25 Z M 330 420 L 330 120 L 270 120 L 270 473 Z" />
<glyph unicode="O" horiz-adv-x="1027" d="M 513 -14 C 750 -14 927 149 927 376 C 927 603 750 766 513 766 C 276 766 100 603 100 376 C 100 149 276 -14 513 -14 Z M 513 646 C 680 646 797 538 797 376 C 797 214 680 106 513 106 C 472 106 434 112 400 123 L 400 629 C 434 640 472 646 513 646 Z M 219 376 C 219 445 241 505 280 550 L 280 202 C 241 247 219 307 219 376 Z" />
<glyph unicode="P" horiz-adv-x="947" d="M 150 0 L 450 0 L 450 160 L 523 160 C 701 160 847 282 847 455 C 847 627 701 750 523 750 L 150 750 Z M 523 630 C 630 630 717 570 717 455 C 717 340 630 280 523 280 L 450 280 L 450 630 Z M 330 630 L 330 120 L 270 120 L 270 630 Z" />
<glyph unicode="Q" horiz-adv-x="1027" d="M 673 -82 L 569 -82 L 584 -9 C 791 19 927 172 927 376 C 927 603 760 766 513 766 C 266 766 100 603 100 376 C 100 168 240 13 454 -11 L 416 -192 L 673 -192 Z M 513 646 C 690 646 797 538 797 376 C 797 214 690 106 513 106 C 471 106 434 112 400 122 L 400 630 C 434 640 471 646 513 646 Z M 219 376 C 219 447 240 508 280 554 L 280 198 C 240 244 219 305 219 376 Z" />
<glyph unicode="R" horiz-adv-x="983" d="M 670 0 L 880 0 L 682 159 C 805 206 883 308 883 438 C 883 621 732 750 517 750 L 150 750 L 150 0 L 450 0 L 450 130 L 508 130 Z M 450 630 L 518 630 C 664 630 753 557 753 438 C 753 320 664 250 518 250 L 450 250 Z M 330 630 L 330 120 L 270 120 L 270 630 Z" />
<glyph unicode="S" horiz-adv-x="887" d="M 787 254 C 787 354 739 448 572 496 L 262 586 C 292 622 349 645 429 645 C 509 645 606 618 676 571 L 714 693 C 641 737 536 765 428 765 C 256 765 122 666 122 506 C 122 400 174 301 348 251 L 643 167 C 608 129 543 106 452 106 C 342 106 209 148 145 217 L 100 95 C 174 29 317 -14 447 -14 C 644 -14 787 88 787 254 Z M 374 367 C 304 387 263 423 246 466 L 540 382 C 626 357 658 321 668 282 Z" />
<glyph unicode="T" horiz-adv-x="864" d="M 70 630 L 282 630 L 282 0 L 582 0 L 582 630 L 794 630 L 794 750 L 70 750 Z M 462 630 L 462 120 L 402 120 L 402 630 Z" />
<glyph unicode="U" horiz-adv-x="1002" d="M 505 -23 C 724 -23 872 130 872 345 L 872 750 L 742 750 L 742 345 C 742 196 652 97 505 97 C 476 97 450 103 426 112 L 426 750 L 130 750 L 130 345 C 130 130 280 -23 505 -23 Z M 250 345 L 250 630 L 306 630 L 306 168 C 274 197 250 265 250 345 Z" />
<glyph unicode="V" horiz-adv-x="1004" d="M 974 750 L 827 750 L 600 382 L 373 750 L 30 750 L 502 -12 Z M 532 273 L 498 217 L 241 630 L 310 630 Z" />
<glyph unicode="W" horiz-adv-x="1223" d="M 1133 750 L 987 750 L 883 332 L 626 752 L 455 500 L 393 750 L 90 750 L 280 -10 L 623 495 L 943 -10 Z M 369 373 L 325 307 L 244 630 L 304 630 Z" />
<glyph unicode="X" horiz-adv-x="971" d="M 556 0 L 911 0 L 632 422 L 860 750 L 703 750 L 555 539 L 415 750 L 60 750 L 317 361 L 60 0 L 217 0 L 393 247 Z M 281 630 L 353 630 L 690 120 L 618 120 Z" />
<glyph unicode="Y" horiz-adv-x="964" d="M 934 750 L 787 750 L 581 405 L 374 750 L 30 750 L 332 250 L 332 0 L 632 0 L 632 250 Z M 512 293 L 512 120 L 452 120 L 452 277 L 240 630 L 309 630 Z" />
<glyph unicode="Z" horiz-adv-x="953" d="M 148 630 L 438 630 L 100 0 L 843 0 L 843 120 L 503 120 L 841 750 L 148 750 Z M 641 630 L 367 120 L 299 120 L 573 630 Z" />
<glyph unicode="[" horiz-adv-x="603" d="M 110 -120 L 523 -120 L 523 0 L 240 0 L 240 750 L 523 750 L 523 870 L 110 870 Z" />
<glyph unicode="\" horiz-adv-x="630" d="M 450 -120 L 580 -120 L 180 870 L 50 870 Z" />
<glyph unicode="]" horiz-adv-x="603" d="M 493 -120 L 493 870 L 80 870 L 80 750 L 363 750 L 363 0 L 80 0 L 80 -120 Z" />
<glyph unicode="^" horiz-adv-x="710" d="M 495 240 L 615 240 L 415 750 L 295 750 L 95 240 L 215 240 L 355 597 Z" />
<glyph unicode="_" horiz-adv-x="710" d="M 100 -177 L 610 -177 L 610 -57 L 100 -57 Z" />
<glyph unicode="`" horiz-adv-x="500" d="M 400 820 L 400 930 L 80 980 L 80 870 Z" />
<glyph unicode="a" horiz-adv-x="1004" d="M 631 0 L 974 0 L 502 762 L 30 0 L 177 0 L 220 70 L 588 70 Z M 472 477 L 506 533 L 763 120 L 694 120 Z M 294 190 L 404 368 L 514 190 Z" />
<glyph unicode="b" horiz-adv-x="947" d="M 150 0 L 583 0 C 729 0 847 93 847 235 C 847 329 792 399 712 434 C 738 466 753 505 753 550 C 753 666 659 750 543 750 L 150 750 Z M 543 630 C 589 630 632 599 632 550 C 632 501 589 470 543 470 L 450 470 L 450 630 Z M 330 120 L 270 120 L 270 630 L 330 630 Z M 583 120 L 450 120 L 450 350 L 583 350 C 656 350 717 317 717 235 C 717 153 656 120 583 120 Z" />
<glyph unicode="c" horiz-adv-x="905" d="M 812 83 L 766 200 C 697 135 604 105 513 105 C 472 105 434 111 400 121 L 400 629 C 434 639 472 645 513 645 C 604 645 698 615 766 550 L 812 667 C 734 729 630 765 513 765 C 266 765 100 602 100 375 C 100 148 266 -15 513 -15 C 630 -15 734 21 812 83 Z M 220 375 C 220 446 241 506 280 552 L 280 198 C 241 244 220 304 220 375 Z" />
<glyph unicode="d" horiz-adv-x="1037" d="M 150 0 L 523 0 C 770 0 937 156 937 375 C 937 594 770 750 523 750 L 150 750 Z M 523 630 C 700 630 807 528 807 375 C 807 222 700 120 523 120 L 450 120 L 450 630 Z M 330 630 L 330 120 L 270 120 L 270 630 Z" />
<glyph unicode="e" horiz-adv-x="930" d="M 150 0 L 830 0 L 830 120 L 450 120 L 450 273 L 660 273 L 660 393 L 450 393 L 450 630 L 830 630 L 830 750 L 150 750 Z M 330 630 L 330 120 L 270 120 L 270 630 Z" />
<glyph unicode="f" horiz-adv-x="910" d="M 150 0 L 450 0 L 450 323 L 660 323 L 660 443 L 450 443 L 450 630 L 830 630 L 830 750 L 150 750 Z M 330 630 L 330 120 L 270 120 L 270 630 Z" />
<glyph unicode="g" horiz-adv-x="978" d="M 878 180 L 878 454 L 748 454 L 748 213 C 703 150 612 105 513 105 C 472 105 434 111 400 122 L 400 628 C 434 639 472 645 513 645 C 573 645 636 628 674 607 L 711 723 C 659 746 586 765 513 765 C 276 765 100 602 100 375 C 100 148 276 -15 513 -15 C 664 -14 811 66 878 180 Z M 220 375 C 220 445 242 504 280 549 L 280 201 C 242 246 220 305 220 375 Z" />
<glyph unicode="h" horiz-adv-x="1030" d="M 750 0 L 880 0 L 880 750 L 750 750 L 750 335 L 450 335 L 450 750 L 150 750 L 150 0 L 450 0 L 450 215 L 750 215 Z M 330 630 L 330 120 L 270 120 L 270 630 Z" />
<glyph unicode="i" horiz-adv-x="620" d="M 150 0 L 470 0 L 470 750 L 150 750 Z M 340 630 L 340 120 L 280 120 L 280 630 Z" />
<glyph unicode="j" horiz-adv-x="727" d="M 224 -15 C 447 -15 597 138 597 353 L 597 750 L 297 750 L 297 116 C 275 108 251 105 224 105 C 175 105 132 116 92 137 L 50 21 C 104 1 161 -15 224 -15 Z M 477 353 C 477 273 451 205 417 176 L 417 630 L 477 630 Z" />
<glyph unicode="k" horiz-adv-x="980" d="M 779 0 L 936 0 L 651 412 L 905 750 L 755 750 L 450 345 L 450 750 L 150 750 L 150 0 L 450 0 L 450 146 L 568 303 Z M 330 630 L 330 120 L 270 120 L 270 630 Z" />
<glyph unicode="l" horiz-adv-x="882" d="M 822 120 L 450 120 L 450 750 L 150 750 L 150 0 L 822 0 Z M 330 630 L 330 120 L 270 120 L 270 630 Z" />
<glyph unicode="m" horiz-adv-x="1223" d="M 987 0 L 1133 0 L 943 760 L 623 255 L 280 760 L 90 0 L 393 0 L 455 250 L 626 -2 L 883 418 Z M 369 377 L 304 120 L 244 120 L 325 443 Z" />
<glyph unicode="n" horiz-adv-x="985" d="M 835 750 L 695 750 L 695 290 L 150 775 L 150 0 L 450 0 L 450 323 L 835 -25 Z M 330 420 L 330 120 L 270 120 L 270 473 Z" />
<glyph unicode="o" horiz-adv-x="1027" d="M 513 -14 C 750 -14 927 149 927 376 C 927 603 750 766 513 766 C 276 766 100 603 100 376 C 100 149 276 -14 513 -14 Z M 513 646 C 680 646 797 538 797 376 C 797 214 680 106 513 106 C 472 106 434 112 400 123 L 400 629 C 434 640 472 646 513 646 Z M 219 376 C 219 445 241 505 280 550 L 280 202 C 241 247 219 307 219 376 Z" />
<glyph unicode="p" horiz-adv-x="947" d="M 150 0 L 450 0 L 450 160 L 523 160 C 701 160 847 282 847 455 C 847 627 701 750 523 750 L 150 750 Z M 523 630 C 630 630 717 570 717 455 C 717 340 630 280 523 280 L 450 280 L 450 630 Z M 330 630 L 330 120 L 270 120 L 270 630 Z" />
<glyph unicode="q" horiz-adv-x="1027" d="M 673 -82 L 569 -82 L 584 -9 C 791 19 927 172 927 376 C 927 603 760 766 513 766 C 266 766 100 603 100 376 C 100 168 240 13 454 -11 L 416 -192 L 673 -192 Z M 513 646 C 690 646 797 538 797 376 C 797 214 690 106 513 106 C 471 106 434 112 400 122 L 400 630 C 434 640 471 646 513 646 Z M 219 376 C 219 447 240 508 280 554 L 280 198 C 240 244 219 305 219 376 Z" />
<glyph unicode="r" horiz-adv-x="983" d="M 670 0 L 880 0 L 682 159 C 805 206 883 308 883 438 C 883 621 732 750 517 750 L 150 750 L 150 0 L 450 0 L 450 130 L 508 130 Z M 450 630 L 518 630 C 664 630 753 557 753 438 C 753 320 664 250 518 250 L 450 250 Z M 330 630 L 330 120 L 270 120 L 270 630 Z" />
<glyph unicode="s" horiz-adv-x="887" d="M 787 254 C 787 354 739 448 572 496 L 262 586 C 292 622 349 645 429 645 C 509 645 606 618 676 571 L 714 693 C 641 737 536 765 428 765 C 256 765 122 666 122 506 C 122 400 174 301 348 251 L 643 167 C 608 129 543 106 452 106 C 342 106 209 148 145 217 L 100 95 C 174 29 317 -14 447 -14 C 644 -14 787 88 787 254 Z M 374 367 C 304 387 263 423 246 466 L 540 382 C 626 357 658 321 668 282 Z" />
<glyph unicode="t" horiz-adv-x="864" d="M 70 630 L 282 630 L 282 0 L 582 0 L 582 630 L 794 630 L 794 750 L 70 750 Z M 462 630 L 462 120 L 402 120 L 402 630 Z" />
<glyph unicode="u" horiz-adv-x="1002" d="M 505 -23 C 724 -23 872 130 872 345 L 872 750 L 742 750 L 742 345 C 742 196 652 97 505 97 C 476 97 450 103 426 112 L 426 750 L 130 750 L 130 345 C 130 130 280 -23 505 -23 Z M 250 345 L 250 630 L 306 630 L 306 168 C 274 197 250 265 250 345 Z" />
<glyph unicode="v" horiz-adv-x="1004" d="M 974 750 L 827 750 L 600 382 L 373 750 L 30 750 L 502 -12 Z M 532 273 L 498 217 L 241 630 L 310 630 Z" />
<glyph unicode="w" horiz-adv-x="1223" d="M 1133 750 L 987 750 L 883 332 L 626 752 L 455 500 L 393 750 L 90 750 L 280 -10 L 623 495 L 943 -10 Z M 369 373 L 325 307 L 244 630 L 304 630 Z" />
<glyph unicode="x" horiz-adv-x="971" d="M 556 0 L 911 0 L 632 422 L 860 750 L 703 750 L 555 539 L 415 750 L 60 750 L 317 361 L 60 0 L 217 0 L 393 247 Z M 281 630 L 353 630 L 690 120 L 618 120 Z" />
<glyph unicode="y" horiz-adv-x="964" d="M 934 750 L 787 750 L 581 405 L 374 750 L 30 750 L 332 250 L 332 0 L 632 0 L 632 250 Z M 512 293 L 512 120 L 452 120 L 452 277 L 240 630 L 309 630 Z" />
<glyph unicode="z" horiz-adv-x="953" d="M 148 630 L 438 630 L 100 0 L 843 0 L 843 120 L 503 120 L 841 750 L 148 750 Z M 641 630 L 367 120 L 299 120 L 573 630 Z" />
<glyph unicode="{" horiz-adv-x="613" d="M 523 0 L 273 0 L 381 380 L 273 750 L 523 750 L 523 870 L 110 870 L 240 436 L 110 436 L 110 316 L 240 316 L 110 -120 L 523 -120 Z" />
<glyph unicode="|" horiz-adv-x="420" d="M 270 -120 L 270 870 L 150 870 L 150 -120 Z" />
<glyph unicode="}" horiz-adv-x="613" d="M 90 0 L 90 -120 L 503 -120 L 373 316 L 503 316 L 503 436 L 373 436 L 503 870 L 90 870 L 90 750 L 340 750 L 232 380 L 340 0 Z" />
<glyph unicode="~" horiz-adv-x="560" d="M 460 401 C 434 379 394 373 354 376 C 305 379 256 399 206 402 C 166 405 126 399 100 378 L 100 268 C 126 289 166 295 206 292 C 256 289 305 269 354 266 C 394 263 434 269 460 291 Z" />
<glyph unicode=" " horiz-adv-x="400" d="" />
<glyph unicode="¡" horiz-adv-x="487" d="M 243 761 C 185 761 140 718 140 659 C 140 601 185 560 243 560 C 303 560 348 601 348 659 C 348 718 303 761 243 761 Z M 304 530 L 184 530 L 78 0 L 409 0 Z M 208 120 L 244 350 L 279 120 Z" />
<glyph unicode="¢" horiz-adv-x="673" d="M 573 151 L 543 263 C 508 221 447 201 383 201 L 377 201 L 377 533 C 379 533 381 533 383 533 C 447 533 508 512 543 470 L 573 583 C 540 611 496 632 445 640 L 445 750 L 325 750 L 325 640 C 182 615 90 509 90 367 C 90 224 182 118 325 93 L 325 0 L 445 0 L 445 93 C 496 101 540 122 573 151 Z M 210 367 C 210 419 227 461 257 489 L 257 245 C 227 273 210 315 210 367 Z" />
<glyph unicode="£" horiz-adv-x="905" d="M 805 120 L 490 120 L 490 215 L 670 215 L 670 335 L 490 335 L 490 634 C 512 642 536 645 563 645 C 612 645 655 634 695 613 L 737 729 C 683 749 626 765 563 765 C 340 765 190 612 190 397 L 190 335 L 100 335 L 100 215 L 190 215 L 190 120 L 100 120 L 100 0 L 805 0 Z M 310 397 C 310 477 336 545 370 574 L 370 120 L 310 120 Z" />
<glyph unicode="¥" horiz-adv-x="964" d="M 808 115 L 808 235 L 632 235 L 632 250 L 671 315 L 878 315 L 878 435 L 744 435 L 934 750 L 787 750 L 581 405 L 374 750 L 30 750 L 220 435 L 88 435 L 88 315 L 293 315 L 332 250 L 332 235 L 158 235 L 158 115 L 332 115 L 332 0 L 632 0 L 632 115 Z M 512 293 L 512 120 L 452 120 L 452 277 L 240 630 L 309 630 Z" />
<glyph unicode="¦" horiz-adv-x="420" d="M 270 435 L 270 870 L 150 870 L 150 435 Z M 270 -120 L 270 315 L 150 315 L 150 -120 Z" />
<glyph unicode="§" horiz-adv-x="877" d="M 777 173 C 777 287 743 395 517 491 L 293 586 C 326 625 379 645 444 645 C 541 645 622 613 667 571 L 711 693 C 660 725 564 765 443 765 C 273 765 132 667 132 462 C 132 321 195 226 389 141 L 607 46 C 567 8 505 -10 432 -10 C 322 -10 205 26 145 91 L 100 -31 C 170 -94 297 -130 427 -130 C 618 -130 777 -32 777 173 Z M 436 250 C 305 304 253 372 253 462 C 253 465 253 468 253 470 L 473 380 C 621 319 657 257 657 170 C 657 166 657 162 657 159 Z" />
<glyph unicode="¨" horiz-adv-x="500" d="M 135 825 C 184 825 224 862 224 911 C 224 961 184 997 135 997 C 85 997 47 961 47 911 C 47 862 85 825 135 825 Z M 364 825 C 413 825 453 862 453 911 C 453 961 413 997 364 997 C 314 997 276 961 276 911 C 276 862 314 825 364 825 Z" />
<glyph unicode="©" horiz-adv-x="1153" d="M 576 -77 C 851 -77 1053 122 1053 376 C 1053 630 851 829 576 829 C 301 829 100 630 100 376 C 100 122 301 -77 576 -77 Z M 576 33 C 359 33 209 180 209 376 C 209 572 359 719 576 719 C 793 719 943 572 943 376 C 943 180 793 33 576 33 Z M 591 511 C 644 511 692 493 722 459 L 757 568 C 713 602 653 621 590 621 C 436 621 334 519 334 376 C 334 233 436 131 590 131 C 653 131 713 150 757 184 L 722 293 C 692 259 644 241 591 241 C 507 241 453 293 453 376 C 453 459 507 511 591 511 Z" />
<glyph unicode="ª" horiz-adv-x="727" d="M 516 274 L 656 274 L 565 426 L 565 427 L 564 427 L 362 765 L 67 274 L 202 274 L 233 327 L 485 327 Z M 292 427 L 359 541 L 426 427 Z M 136 71 L 591 71 L 591 191 L 136 191 Z" />
<glyph unicode="«" horiz-adv-x="746" d="M 336 288 L 229 375 L 336 462 L 336 619 L 60 375 L 336 131 Z M 636 288 L 529 375 L 636 462 L 636 619 L 360 375 L 636 131 Z" />
<glyph unicode="­" horiz-adv-x="560" d="M 100 273 L 460 273 L 460 393 L 100 393 Z" />
<glyph unicode="®" horiz-adv-x="585" d="M 292 327 C 432 327 525 418 525 546 C 525 674 432 766 292 766 C 153 766 60 674 60 546 C 60 418 153 327 292 327 Z M 292 389 C 190 389 129 452 129 546 C 129 640 190 703 292 703 C 395 703 457 640 457 546 C 457 452 395 389 292 389 Z M 268 481 L 286 481 C 291 481 295 481 299 482 L 322 439 L 388 439 L 356 501 C 377 516 389 539 389 567 C 389 618 348 653 286 653 L 209 653 L 209 439 L 268 439 Z M 268 604 L 286 604 C 312 604 326 590 326 567 C 326 544 312 531 286 531 L 268 531 Z" />
<glyph unicode="¯" horiz-adv-x="500" d="M 80 850 L 420 850 L 420 960 L 80 960 Z" />
<glyph unicode="°" horiz-adv-x="567" d="M 283 346 C 407 346 497 434 497 556 C 497 678 407 766 283 766 C 159 766 70 678 70 556 C 70 434 159 346 283 346 Z M 283 451 C 222 451 181 495 181 556 C 181 617 222 661 283 661 C 344 661 386 617 386 556 C 386 495 344 451 283 451 Z" />
<glyph unicode="´" horiz-adv-x="500" d="M 100 820 L 420 870 L 420 980 L 100 930 Z" />
<glyph unicode="µ" horiz-adv-x="1224" d="M 987 0 L 1133 0 L 943 760 L 623 255 L 280 760 L 90 0 L 393 0 L 455 250 L 626 -2 L 883 418 Z M 369 377 L 304 120 L 244 120 L 325 443 Z" />
<glyph unicode="¶" horiz-adv-x="947" d="M 497 -120 L 617 -120 L 617 630 L 677 630 L 677 -120 L 797 -120 L 797 750 L 424 750 C 246 750 100 627 100 455 C 100 282 246 160 424 160 L 437 160 L 437 280 L 424 280 C 317 280 230 340 230 455 C 230 570 317 630 424 630 L 497 630 Z" />
<glyph unicode="·" horiz-adv-x="391" d="M 196 239 C 261 239 311 287 311 352 C 311 416 261 462 196 462 C 130 462 80 416 80 352 C 80 287 130 239 196 239 Z" />
<glyph unicode="¸" horiz-adv-x="500" d="M 315 0 L 192 0 L 209 -82 L 98 -82 L 98 -192 L 355 -192 Z" />
<glyph unicode="º" horiz-adv-x="727" d="M 363 265 C 520 265 627 369 627 515 C 627 661 520 765 363 765 C 206 765 100 661 100 515 C 100 369 206 265 363 265 Z M 363 375 C 274 375 220 431 220 515 C 220 599 274 655 363 655 C 453 655 507 599 507 515 C 507 431 453 375 363 375 Z M 136 71 L 591 71 L 591 191 L 136 191 Z" />
<glyph unicode="»" horiz-adv-x="746" d="M 376 375 L 100 619 L 100 462 L 207 375 L 100 288 L 100 131 Z M 676 375 L 400 619 L 400 462 L 507 375 L 400 288 L 400 131 Z" />
<glyph unicode="¿" horiz-adv-x="777" d="M 461 759 C 403 759 358 716 358 657 C 358 599 403 558 461 558 C 521 558 566 599 566 657 C 566 716 521 759 461 759 Z M 401 528 L 401 478 C 220 474 100 375 100 236 C 100 91 227 -12 410 -13 C 505 -13 608 8 697 66 L 650 180 C 587 135 502 107 409 107 C 406 107 404 107 401 107 L 401 368 C 404 368 407 368 410 368 L 521 368 L 521 528 Z M 220 235 C 220 282 241 318 281 341 L 281 133 C 241 154 220 189 220 235 Z" />
<glyph unicode="À" horiz-adv-x="1004" d="M 652 820 L 652 930 L 332 980 L 332 870 Z M 631 0 L 974 0 L 502 762 L 30 0 L 177 0 L 220 70 L 588 70 Z M 472 477 L 506 533 L 763 120 L 694 120 Z M 294 190 L 404 368 L 514 190 Z" />
<glyph unicode="Á" horiz-adv-x="1004" d="M 352 820 L 672 870 L 672 980 L 352 930 Z M 631 0 L 974 0 L 502 762 L 30 0 L 177 0 L 220 70 L 588 70 Z M 472 477 L 506 533 L 763 120 L 694 120 Z M 294 190 L 404 368 L 514 190 Z" />
<glyph unicode="Â" horiz-adv-x="1004" d="M 332 820 L 502 870 L 672 820 L 672 930 L 502 980 L 332 930 Z M 631 0 L 974 0 L 502 762 L 30 0 L 177 0 L 220 70 L 588 70 Z M 472 477 L 506 533 L 763 120 L 694 120 Z M 294 190 L 404 368 L 514 190 Z" />
<glyph unicode="Ã" horiz-adv-x="1004" d="M 672 972 C 648 950 610 944 572 947 C 526 950 479 970 432 973 C 394 976 356 970 332 949 L 332 839 C 356 860 394 866 432 863 C 479 860 526 840 572 837 C 610 834 648 840 672 862 Z M 631 0 L 974 0 L 502 762 L 30 0 L 177 0 L 220 70 L 588 70 Z M 472 477 L 506 533 L 763 120 L 694 120 Z M 294 190 L 404 368 L 514 190 Z" />
<glyph unicode="Ä" horiz-adv-x="1004" d="M 387 825 C 436 825 476 862 476 911 C 476 961 436 997 387 997 C 337 997 299 961 299 911 C 299 862 337 825 387 825 Z M 616 825 C 665 825 705 862 705 911 C 705 961 665 997 616 997 C 566 997 528 961 528 911 C 528 862 566 825 616 825 Z M 631 0 L 974 0 L 502 762 L 30 0 L 177 0 L 220 70 L 588 70 Z M 472 477 L 506 533 L 763 120 L 694 120 Z M 294 190 L 404 368 L 514 190 Z" />
<glyph unicode="Å" horiz-adv-x="1004" d="M 645 941 C 645 1020 582 1078 502 1078 C 421 1078 359 1020 359 941 C 359 862 421 803 502 803 C 582 803 645 862 645 941 Z M 502 995 C 536 995 559 973 559 941 C 559 908 536 885 502 885 Z M 631 0 L 974 0 L 502 762 L 30 0 L 177 0 L 220 70 L 588 70 Z M 472 477 L 506 533 L 763 120 L 694 120 Z M 294 190 L 404 368 L 514 190 Z" />
<glyph unicode="Æ" horiz-adv-x="1350" d="M 30 0 L 183 0 L 260 120 L 570 120 L 570 0 L 1250 0 L 1250 120 L 870 120 L 870 273 L 1080 273 L 1080 393 L 870 393 L 870 630 L 1250 630 L 1250 750 L 514 750 Z M 750 630 L 750 120 L 690 120 L 690 630 Z M 338 240 L 570 601 L 570 240 Z" />
<glyph unicode="Ç" horiz-adv-x="905" d="M 812 83 L 766 200 C 697 135 604 105 513 105 C 472 105 434 111 400 121 L 400 629 C 434 639 472 645 513 645 C 604 645 698 615 766 550 L 812 667 C 734 729 630 765 513 765 C 266 765 100 602 100 375 C 100 163 245 7 465 -13 L 479 -82 L 368 -82 L 368 -192 L 625 -192 L 587 -10 C 674 2 751 34 812 83 Z M 220 375 C 220 446 241 506 280 552 L 280 198 C 241 244 220 304 220 375 Z" />
<glyph unicode="È" horiz-adv-x="930" d="M 645 820 L 645 930 L 325 980 L 325 870 Z M 150 0 L 830 0 L 830 120 L 450 120 L 450 273 L 660 273 L 660 393 L 450 393 L 450 630 L 830 630 L 830 750 L 150 750 Z M 330 630 L 330 120 L 270 120 L 270 630 Z" />
<glyph unicode="É" horiz-adv-x="930" d="M 345 820 L 665 870 L 665 980 L 345 930 Z M 150 0 L 830 0 L 830 120 L 450 120 L 450 273 L 660 273 L 660 393 L 450 393 L 450 630 L 830 630 L 830 750 L 150 750 Z M 330 630 L 330 120 L 270 120 L 270 630 Z" />
<glyph unicode="Ê" horiz-adv-x="930" d="M 325 820 L 495 870 L 665 820 L 665 930 L 495 980 L 325 930 Z M 150 0 L 830 0 L 830 120 L 450 120 L 450 273 L 660 273 L 660 393 L 450 393 L 450 630 L 830 630 L 830 750 L 150 750 Z M 330 630 L 330 120 L 270 120 L 270 630 Z" />
<glyph unicode="Ë" horiz-adv-x="930" d="M 380 825 C 429 825 469 862 469 911 C 469 961 429 997 380 997 C 330 997 292 961 292 911 C 292 862 330 825 380 825 Z M 609 825 C 658 825 698 862 698 911 C 698 961 658 997 609 997 C 559 997 521 961 521 911 C 521 862 559 825 609 825 Z M 150 0 L 830 0 L 830 120 L 450 120 L 450 273 L 660 273 L 660 393 L 450 393 L 450 630 L 830 630 L 830 750 L 150 750 Z M 330 630 L 330 120 L 270 120 L 270 630 Z" />
<glyph unicode="Ì" horiz-adv-x="620" d="M 460 820 L 460 930 L 140 980 L 140 870 Z M 150 0 L 470 0 L 470 750 L 150 750 Z M 340 630 L 340 120 L 280 120 L 280 630 Z" />
<glyph unicode="Í" horiz-adv-x="620" d="M 160 820 L 480 870 L 480 980 L 160 930 Z M 150 0 L 470 0 L 470 750 L 150 750 Z M 340 630 L 340 120 L 280 120 L 280 630 Z" />
<glyph unicode="Î" horiz-adv-x="620" d="M 140 820 L 310 870 L 480 820 L 480 930 L 310 980 L 140 930 Z M 150 0 L 470 0 L 470 750 L 150 750 Z M 340 630 L 340 120 L 280 120 L 280 630 Z" />
<glyph unicode="Ï" horiz-adv-x="620" d="M 205 825 C 254 825 294 862 294 911 C 294 961 254 997 205 997 C 155 997 117 961 117 911 C 117 862 155 825 205 825 Z M 414 825 C 463 825 503 862 503 911 C 503 961 463 997 414 997 C 364 997 326 961 326 911 C 326 862 364 825 414 825 Z M 150 0 L 470 0 L 470 750 L 150 750 Z M 340 630 L 340 120 L 280 120 L 280 630 Z" />
<glyph unicode="Ð" horiz-adv-x="1047" d="M 947 375 C 947 594 780 750 533 750 L 160 750 L 160 393 L 80 393 L 80 273 L 160 273 L 160 0 L 533 0 C 780 0 947 156 947 375 Z M 460 120 L 460 273 L 660 273 L 660 393 L 460 393 L 460 630 L 533 630 C 710 630 817 528 817 375 C 817 222 710 120 533 120 Z M 340 630 L 340 120 L 280 120 L 280 630 Z" />
<glyph unicode="Ñ" horiz-adv-x="985" d="M 643 962 C 619 940 581 934 543 937 C 497 940 450 960 403 963 C 365 966 327 960 303 939 L 303 829 C 327 850 365 856 403 853 C 450 850 497 830 543 827 C 581 824 619 830 643 852 Z M 835 750 L 695 750 L 695 290 L 150 775 L 150 0 L 450 0 L 450 323 L 835 -25 Z M 330 420 L 330 120 L 270 120 L 270 473 Z" />
<glyph unicode="Ò" horiz-adv-x="1027" d="M 664 820 L 664 930 L 344 980 L 344 870 Z M 513 -14 C 750 -14 927 149 927 376 C 927 603 750 766 513 766 C 276 766 100 603 100 376 C 100 149 276 -14 513 -14 Z M 513 646 C 680 646 797 538 797 376 C 797 214 680 106 513 106 C 472 106 434 112 400 123 L 400 629 C 434 640 472 646 513 646 Z M 219 376 C 219 445 241 505 280 550 L 280 202 C 241 247 219 307 219 376 Z" />
<glyph unicode="Ó" horiz-adv-x="1027" d="M 364 820 L 684 870 L 684 980 L 364 930 Z M 513 -14 C 750 -14 927 149 927 376 C 927 603 750 766 513 766 C 276 766 100 603 100 376 C 100 149 276 -14 513 -14 Z M 513 646 C 680 646 797 538 797 376 C 797 214 680 106 513 106 C 472 106 434 112 400 123 L 400 629 C 434 640 472 646 513 646 Z M 219 376 C 219 445 241 505 280 550 L 280 202 C 241 247 219 307 219 376 Z" />
<glyph unicode="Ô" horiz-adv-x="1027" d="M 344 820 L 514 870 L 684 820 L 684 930 L 514 980 L 344 930 Z M 513 -14 C 750 -14 927 149 927 376 C 927 603 750 766 513 766 C 276 766 100 603 100 376 C 100 149 276 -14 513 -14 Z M 513 646 C 680 646 797 538 797 376 C 797 214 680 106 513 106 C 472 106 434 112 400 123 L 400 629 C 434 640 472 646 513 646 Z M 219 376 C 219 445 241 505 280 550 L 280 202 C 241 247 219 307 219 376 Z" />
<glyph unicode="Õ" horiz-adv-x="1027" d="M 684 972 C 660 950 622 944 584 947 C 538 950 491 970 444 973 C 406 976 368 970 344 949 L 344 839 C 368 860 406 866 444 863 C 491 860 538 840 584 837 C 622 834 660 840 684 862 Z M 513 -14 C 750 -14 927 149 927 376 C 927 603 750 766 513 766 C 276 766 100 603 100 376 C 100 149 276 -14 513 -14 Z M 513 646 C 680 646 797 538 797 376 C 797 214 680 106 513 106 C 472 106 434 112 400 123 L 400 629 C 434 640 472 646 513 646 Z M 219 376 C 219 445 241 505 280 550 L 280 202 C 241 247 219 307 219 376 Z" />
<glyph unicode="Ö" horiz-adv-x="1027" d="M 399 825 C 448 825 488 862 488 911 C 488 961 448 997 399 997 C 349 997 311 961 311 911 C 311 862 349 825 399 825 Z M 628 825 C 677 825 717 862 717 911 C 717 961 677 997 628 997 C 578 997 540 961 540 911 C 540 862 578 825 628 825 Z M 513 -14 C 750 -14 927 149 927 376 C 927 603 750 766 513 766 C 276 766 100 603 100 376 C 100 149 276 -14 513 -14 Z M 513 646 C 680 646 797 538 797 376 C 797 214 680 106 513 106 C 472 106 434 112 400 123 L 400 629 C 434 640 472 646 513 646 Z M 219 376 C 219 445 241 505 280 550 L 280 202 C 241 247 219 307 219 376 Z" />
<glyph unicode="×" horiz-adv-x="710" d="M 618 155 L 440 333 L 618 511 L 533 596 L 355 418 L 177 596 L 92 511 L 270 333 L 92 155 L 177 70 L 355 248 L 533 70 Z" />
<glyph unicode="Ø" horiz-adv-x="1027" d="M 513 -14 C 750 -14 927 149 927 376 C 927 508 867 618 771 688 L 860 830 L 725 830 L 668 740 C 621 757 568 766 513 766 C 276 766 100 603 100 376 C 100 243 161 131 259 62 L 170 -80 L 305 -80 L 362 10 C 408 -6 459 -14 513 -14 Z M 513 646 C 680 646 797 538 797 376 C 797 214 680 106 513 106 C 472 106 434 112 400 123 L 400 629 C 434 640 472 646 513 646 Z M 219 376 C 219 445 241 505 280 550 L 280 202 C 241 247 219 307 219 376 Z" />
<glyph unicode="Ù" horiz-adv-x="1002" d="M 671 820 L 671 930 L 351 980 L 351 870 Z M 505 -23 C 724 -23 872 130 872 345 L 872 750 L 742 750 L 742 345 C 742 196 652 97 505 97 C 476 97 450 103 426 112 L 426 750 L 130 750 L 130 345 C 130 130 280 -23 505 -23 Z M 250 345 L 250 630 L 306 630 L 306 168 C 274 197 250 265 250 345 Z" />
<glyph unicode="Ú" horiz-adv-x="1002" d="M 371 820 L 691 870 L 691 980 L 371 930 Z M 505 -23 C 724 -23 872 130 872 345 L 872 750 L 742 750 L 742 345 C 742 196 652 97 505 97 C 476 97 450 103 426 112 L 426 750 L 130 750 L 130 345 C 130 130 280 -23 505 -23 Z M 250 345 L 250 630 L 306 630 L 306 168 C 274 197 250 265 250 345 Z" />
<glyph unicode="Û" horiz-adv-x="1002" d="M 351 820 L 521 870 L 691 820 L 691 930 L 521 980 L 351 930 Z M 505 -23 C 724 -23 872 130 872 345 L 872 750 L 742 750 L 742 345 C 742 196 652 97 505 97 C 476 97 450 103 426 112 L 426 750 L 130 750 L 130 345 C 130 130 280 -23 505 -23 Z M 250 345 L 250 630 L 306 630 L 306 168 C 274 197 250 265 250 345 Z" />
<glyph unicode="Ü" horiz-adv-x="1002" d="M 406 825 C 455 825 495 862 495 911 C 495 961 455 997 406 997 C 356 997 318 961 318 911 C 318 862 356 825 406 825 Z M 635 825 C 684 825 724 862 724 911 C 724 961 684 997 635 997 C 585 997 547 961 547 911 C 547 862 585 825 635 825 Z M 505 -23 C 724 -23 872 130 872 345 L 872 750 L 742 750 L 742 345 C 742 196 652 97 505 97 C 476 97 450 103 426 112 L 426 750 L 130 750 L 130 345 C 130 130 280 -23 505 -23 Z M 250 345 L 250 630 L 306 630 L 306 168 C 274 197 250 265 250 345 Z" />
<glyph unicode="Ý" horiz-adv-x="964" d="M 382 820 L 702 870 L 702 980 L 382 930 Z M 934 750 L 787 750 L 581 405 L 374 750 L 30 750 L 332 250 L 332 0 L 632 0 L 632 250 Z M 512 293 L 512 120 L 452 120 L 452 277 L 240 630 L 309 630 Z" />
<glyph unicode="Þ" horiz-adv-x="947" d="M 150 0 L 450 0 L 450 80 L 523 80 C 701 80 847 202 847 375 C 847 547 701 670 523 670 L 450 670 L 450 750 L 150 750 Z M 340 630 L 340 120 L 280 120 L 280 630 Z M 523 550 C 630 550 717 490 717 375 C 717 260 630 200 523 200 L 450 200 L 450 550 Z" />
<glyph unicode="ß" horiz-adv-x="1764" d="M 787 254 C 787 354 739 448 572 496 L 262 586 C 292 622 349 645 429 645 C 509 645 606 618 676 571 L 714 693 C 641 737 536 765 428 765 C 256 765 122 666 122 506 C 122 400 174 301 348 251 L 643 167 C 608 129 543 106 452 106 C 342 106 209 148 145 217 L 100 95 C 174 29 317 -14 447 -14 C 644 -14 787 88 787 254 Z M 1664 254 C 1664 354 1616 448 1449 496 L 1139 586 C 1169 622 1226 645 1306 645 C 1386 645 1483 618 1553 571 L 1591 693 C 1518 737 1413 765 1305 765 C 1133 765 999 666 999 506 C 999 400 1051 301 1225 251 L 1520 167 C 1485 129 1420 106 1329 106 C 1219 106 1086 148 1022 217 L 977 95 C 1051 29 1194 -14 1324 -14 C 1521 -14 1664 88 1664 254 Z M 374 367 C 304 387 263 423 246 466 L 540 382 C 626 357 658 321 668 282 Z M 1251 367 C 1181 387 1140 423 1123 466 L 1417 382 C 1503 357 1535 321 1545 282 Z" />
<glyph unicode="à" horiz-adv-x="1004" d="M 652 820 L 652 930 L 332 980 L 332 870 Z M 631 0 L 974 0 L 502 762 L 30 0 L 177 0 L 220 70 L 588 70 Z M 472 477 L 506 533 L 763 120 L 694 120 Z M 294 190 L 404 368 L 514 190 Z" />
<glyph unicode="á" horiz-adv-x="1004" d="M 352 820 L 672 870 L 672 980 L 352 930 Z M 631 0 L 974 0 L 502 762 L 30 0 L 177 0 L 220 70 L 588 70 Z M 472 477 L 506 533 L 763 120 L 694 120 Z M 294 190 L 404 368 L 514 190 Z" />
<glyph unicode="â" horiz-adv-x="1004" d="M 332 820 L 502 870 L 672 820 L 672 930 L 502 980 L 332 930 Z M 631 0 L 974 0 L 502 762 L 30 0 L 177 0 L 220 70 L 588 70 Z M 472 477 L 506 533 L 763 120 L 694 120 Z M 294 190 L 404 368 L 514 190 Z" />
<glyph unicode="ã" horiz-adv-x="1004" d="M 672 972 C 648 950 610 944 572 947 C 526 950 479 970 432 973 C 394 976 356 970 332 949 L 332 839 C 356 860 394 866 432 863 C 479 860 526 840 572 837 C 610 834 648 840 672 862 Z M 631 0 L 974 0 L 502 762 L 30 0 L 177 0 L 220 70 L 588 70 Z M 472 477 L 506 533 L 763 120 L 694 120 Z M 294 190 L 404 368 L 514 190 Z" />
<glyph unicode="ä" horiz-adv-x="1004" d="M 387 825 C 436 825 476 862 476 911 C 476 961 436 997 387 997 C 337 997 299 961 299 911 C 299 862 337 825 387 825 Z M 616 825 C 665 825 705 862 705 911 C 705 961 665 997 616 997 C 566 997 528 961 528 911 C 528 862 566 825 616 825 Z M 631 0 L 974 0 L 502 762 L 30 0 L 177 0 L 220 70 L 588 70 Z M 472 477 L 506 533 L 763 120 L 694 120 Z M 294 190 L 404 368 L 514 190 Z" />
<glyph unicode="å" horiz-adv-x="1004" d="M 645 941 C 645 1020 582 1078 502 1078 C 421 1078 359 1020 359 941 C 359 862 421 803 502 803 C 582 803 645 862 645 941 Z M 502 995 C 536 995 559 973 559 941 C 559 908 536 885 502 885 Z M 631 0 L 974 0 L 502 762 L 30 0 L 177 0 L 220 70 L 588 70 Z M 472 477 L 506 533 L 763 120 L 694 120 Z M 294 190 L 404 368 L 514 190 Z" />
<glyph unicode="æ" horiz-adv-x="1350" d="M 30 0 L 183 0 L 260 120 L 570 120 L 570 0 L 1250 0 L 1250 120 L 870 120 L 870 273 L 1080 273 L 1080 393 L 870 393 L 870 630 L 1250 630 L 1250 750 L 514 750 Z M 750 630 L 750 120 L 690 120 L 690 630 Z M 338 240 L 570 601 L 570 240 Z" />
<glyph unicode="ç" horiz-adv-x="905" d="M 812 83 L 766 200 C 697 135 604 105 513 105 C 472 105 434 111 400 121 L 400 629 C 434 639 472 645 513 645 C 604 645 698 615 766 550 L 812 667 C 734 729 630 765 513 765 C 266 765 100 602 100 375 C 100 163 245 7 465 -13 L 479 -82 L 368 -82 L 368 -192 L 625 -192 L 587 -10 C 674 2 751 34 812 83 Z M 220 375 C 220 446 241 506 280 552 L 280 198 C 241 244 220 304 220 375 Z" />
<glyph unicode="è" horiz-adv-x="930" d="M 645 820 L 645 930 L 325 980 L 325 870 Z M 150 0 L 830 0 L 830 120 L 450 120 L 450 273 L 660 273 L 660 393 L 450 393 L 450 630 L 830 630 L 830 750 L 150 750 Z M 330 630 L 330 120 L 270 120 L 270 630 Z" />
<glyph unicode="é" horiz-adv-x="930" d="M 345 820 L 665 870 L 665 980 L 345 930 Z M 150 0 L 830 0 L 830 120 L 450 120 L 450 273 L 660 273 L 660 393 L 450 393 L 450 630 L 830 630 L 830 750 L 150 750 Z M 330 630 L 330 120 L 270 120 L 270 630 Z" />
<glyph unicode="ê" horiz-adv-x="930" d="M 325 820 L 495 870 L 665 820 L 665 930 L 495 980 L 325 930 Z M 150 0 L 830 0 L 830 120 L 450 120 L 450 273 L 660 273 L 660 393 L 450 393 L 450 630 L 830 630 L 830 750 L 150 750 Z M 330 630 L 330 120 L 270 120 L 270 630 Z" />
<glyph unicode="ë" horiz-adv-x="930" d="M 380 825 C 429 825 469 862 469 911 C 469 961 429 997 380 997 C 330 997 292 961 292 911 C 292 862 330 825 380 825 Z M 609 825 C 658 825 698 862 698 911 C 698 961 658 997 609 997 C 559 997 521 961 521 911 C 521 862 559 825 609 825 Z M 150 0 L 830 0 L 830 120 L 450 120 L 450 273 L 660 273 L 660 393 L 450 393 L 450 630 L 830 630 L 830 750 L 150 750 Z M 330 630 L 330 120 L 270 120 L 270 630 Z" />
<glyph unicode="ì" horiz-adv-x="620" d="M 460 820 L 460 930 L 140 980 L 140 870 Z M 150 0 L 470 0 L 470 750 L 150 750 Z M 340 630 L 340 120 L 280 120 L 280 630 Z" />
<glyph unicode="í" horiz-adv-x="620" d="M 160 820 L 480 870 L 480 980 L 160 930 Z M 150 0 L 470 0 L 470 750 L 150 750 Z M 340 630 L 340 120 L 280 120 L 280 630 Z" />
<glyph unicode="î" horiz-adv-x="620" d="M 140 820 L 310 870 L 480 820 L 480 930 L 310 980 L 140 930 Z M 150 0 L 470 0 L 470 750 L 150 750 Z M 340 630 L 340 120 L 280 120 L 280 630 Z" />
<glyph unicode="ï" horiz-adv-x="620" d="M 205 825 C 254 825 294 862 294 911 C 294 961 254 997 205 997 C 155 997 117 961 117 911 C 117 862 155 825 205 825 Z M 414 825 C 463 825 503 862 503 911 C 503 961 463 997 414 997 C 364 997 326 961 326 911 C 326 862 364 825 414 825 Z M 150 0 L 470 0 L 470 750 L 150 750 Z M 340 630 L 340 120 L 280 120 L 280 630 Z" />
<glyph unicode="ð" horiz-adv-x="1047" d="M 947 375 C 947 594 780 750 533 750 L 160 750 L 160 393 L 80 393 L 80 273 L 160 273 L 160 0 L 533 0 C 780 0 947 156 947 375 Z M 460 120 L 460 273 L 660 273 L 660 393 L 460 393 L 460 630 L 533 630 C 710 630 817 528 817 375 C 817 222 710 120 533 120 Z M 340 630 L 340 120 L 280 120 L 280 630 Z" />
<glyph unicode="ñ" horiz-adv-x="985" d="M 643 962 C 619 940 581 934 543 937 C 497 940 450 960 403 963 C 365 966 327 960 303 939 L 303 829 C 327 850 365 856 403 853 C 450 850 497 830 543 827 C 581 824 619 830 643 852 Z M 835 750 L 695 750 L 695 290 L 150 775 L 150 0 L 450 0 L 450 323 L 835 -25 Z M 330 420 L 330 120 L 270 120 L 270 473 Z" />
<glyph unicode="ò" horiz-adv-x="1027" d="M 664 820 L 664 930 L 344 980 L 344 870 Z M 513 -14 C 750 -14 927 149 927 376 C 927 603 750 766 513 766 C 276 766 100 603 100 376 C 100 149 276 -14 513 -14 Z M 513 646 C 680 646 797 538 797 376 C 797 214 680 106 513 106 C 472 106 434 112 400 123 L 400 629 C 434 640 472 646 513 646 Z M 219 376 C 219 445 241 505 280 550 L 280 202 C 241 247 219 307 219 376 Z" />
<glyph unicode="ó" horiz-adv-x="1027" d="M 364 820 L 684 870 L 684 980 L 364 930 Z M 513 -14 C 750 -14 927 149 927 376 C 927 603 750 766 513 766 C 276 766 100 603 100 376 C 100 149 276 -14 513 -14 Z M 513 646 C 680 646 797 538 797 376 C 797 214 680 106 513 106 C 472 106 434 112 400 123 L 400 629 C 434 640 472 646 513 646 Z M 219 376 C 219 445 241 505 280 550 L 280 202 C 241 247 219 307 219 376 Z" />
<glyph unicode="ô" horiz-adv-x="1027" d="M 344 820 L 514 870 L 684 820 L 684 930 L 514 980 L 344 930 Z M 513 -14 C 750 -14 927 149 927 376 C 927 603 750 766 513 766 C 276 766 100 603 100 376 C 100 149 276 -14 513 -14 Z M 513 646 C 680 646 797 538 797 376 C 797 214 680 106 513 106 C 472 106 434 112 400 123 L 400 629 C 434 640 472 646 513 646 Z M 219 376 C 219 445 241 505 280 550 L 280 202 C 241 247 219 307 219 376 Z" />
<glyph unicode="õ" horiz-adv-x="1027" d="M 684 972 C 660 950 622 944 584 947 C 538 950 491 970 444 973 C 406 976 368 970 344 949 L 344 839 C 368 860 406 866 444 863 C 491 860 538 840 584 837 C 622 834 660 840 684 862 Z M 513 -14 C 750 -14 927 149 927 376 C 927 603 750 766 513 766 C 276 766 100 603 100 376 C 100 149 276 -14 513 -14 Z M 513 646 C 680 646 797 538 797 376 C 797 214 680 106 513 106 C 472 106 434 112 400 123 L 400 629 C 434 640 472 646 513 646 Z M 219 376 C 219 445 241 505 280 550 L 280 202 C 241 247 219 307 219 376 Z" />
<glyph unicode="ö" horiz-adv-x="1027" d="M 399 825 C 448 825 488 862 488 911 C 488 961 448 997 399 997 C 349 997 311 961 311 911 C 311 862 349 825 399 825 Z M 628 825 C 677 825 717 862 717 911 C 717 961 677 997 628 997 C 578 997 540 961 540 911 C 540 862 578 825 628 825 Z M 513 -14 C 750 -14 927 149 927 376 C 927 603 750 766 513 766 C 276 766 100 603 100 376 C 100 149 276 -14 513 -14 Z M 513 646 C 680 646 797 538 797 376 C 797 214 680 106 513 106 C 472 106 434 112 400 123 L 400 629 C 434 640 472 646 513 646 Z M 219 376 C 219 445 241 505 280 550 L 280 202 C 241 247 219 307 219 376 Z" />
<glyph unicode="÷" horiz-adv-x="710" d="M 355 474 C 404 474 444 511 444 560 C 444 610 404 646 355 646 C 305 646 267 610 267 560 C 267 511 305 474 355 474 Z M 100 273 L 610 273 L 610 393 L 100 393 Z M 355 60 C 404 60 444 97 444 146 C 444 196 404 232 355 232 C 305 232 267 196 267 146 C 267 97 305 60 355 60 Z" />
<glyph unicode="ø" horiz-adv-x="1027" d="M 513 -14 C 750 -14 927 149 927 376 C 927 508 867 618 771 688 L 860 830 L 725 830 L 668 740 C 621 757 568 766 513 766 C 276 766 100 603 100 376 C 100 243 161 131 259 62 L 170 -80 L 305 -80 L 362 10 C 408 -6 459 -14 513 -14 Z M 513 646 C 680 646 797 538 797 376 C 797 214 680 106 513 106 C 472 106 434 112 400 123 L 400 629 C 434 640 472 646 513 646 Z M 219 376 C 219 445 241 505 280 550 L 280 202 C 241 247 219 307 219 376 Z" />
<glyph unicode="ù" horiz-adv-x="1002" d="M 671 820 L 671 930 L 351 980 L 351 870 Z M 505 -23 C 724 -23 872 130 872 345 L 872 750 L 742 750 L 742 345 C 742 196 652 97 505 97 C 476 97 450 103 426 112 L 426 750 L 130 750 L 130 345 C 130 130 280 -23 505 -23 Z M 250 345 L 250 630 L 306 630 L 306 168 C 274 197 250 265 250 345 Z" />
<glyph unicode="ú" horiz-adv-x="1002" d="M 371 820 L 691 870 L 691 980 L 371 930 Z M 505 -23 C 724 -23 872 130 872 345 L 872 750 L 742 750 L 742 345 C 742 196 652 97 505 97 C 476 97 450 103 426 112 L 426 750 L 130 750 L 130 345 C 130 130 280 -23 505 -23 Z M 250 345 L 250 630 L 306 630 L 306 168 C 274 197 250 265 250 345 Z" />
<glyph unicode="û" horiz-adv-x="1002" d="M 351 820 L 521 870 L 691 820 L 691 930 L 521 980 L 351 930 Z M 505 -23 C 724 -23 872 130 872 345 L 872 750 L 742 750 L 742 345 C 742 196 652 97 505 97 C 476 97 450 103 426 112 L 426 750 L 130 750 L 130 345 C 130 130 280 -23 505 -23 Z M 250 345 L 250 630 L 306 630 L 306 168 C 274 197 250 265 250 345 Z" />
<glyph unicode="ü" horiz-adv-x="1002" d="M 406 825 C 455 825 495 862 495 911 C 495 961 455 997 406 997 C 356 997 318 961 318 911 C 318 862 356 825 406 825 Z M 635 825 C 684 825 724 862 724 911 C 724 961 684 997 635 997 C 585 997 547 961 547 911 C 547 862 585 825 635 825 Z M 505 -23 C 724 -23 872 130 872 345 L 872 750 L 742 750 L 742 345 C 742 196 652 97 505 97 C 476 97 450 103 426 112 L 426 750 L 130 750 L 130 345 C 130 130 280 -23 505 -23 Z M 250 345 L 250 630 L 306 630 L 306 168 C 274 197 250 265 250 345 Z" />
<glyph unicode="ý" horiz-adv-x="964" d="M 382 820 L 702 870 L 702 980 L 382 930 Z M 934 750 L 787 750 L 581 405 L 374 750 L 30 750 L 332 250 L 332 0 L 632 0 L 632 250 Z M 512 293 L 512 120 L 452 120 L 452 277 L 240 630 L 309 630 Z" />
<glyph unicode="þ" horiz-adv-x="947" d="M 150 0 L 450 0 L 450 80 L 523 80 C 701 80 847 202 847 375 C 847 547 701 670 523 670 L 450 670 L 450 750 L 150 750 Z M 340 630 L 340 120 L 280 120 L 280 630 Z M 523 550 C 630 550 717 490 717 375 C 717 260 630 200 523 200 L 450 200 L 450 550 Z" />
<glyph unicode="ÿ" horiz-adv-x="964" d="M 417 825 C 466 825 506 862 506 911 C 506 961 466 997 417 997 C 367 997 329 961 329 911 C 329 862 367 825 417 825 Z M 646 825 C 695 825 735 862 735 911 C 735 961 695 997 646 997 C 596 997 558 961 558 911 C 558 862 596 825 646 825 Z M 934 750 L 787 750 L 581 405 L 374 750 L 30 750 L 332 250 L 332 0 L 632 0 L 632 250 Z M 512 293 L 512 120 L 452 120 L 452 277 L 240 630 L 309 630 Z" />
<glyph unicode="Ā" horiz-adv-x="1004" d="M 332 850 L 672 850 L 672 960 L 332 960 Z M 631 0 L 974 0 L 502 762 L 30 0 L 177 0 L 220 70 L 588 70 Z M 472 477 L 506 533 L 763 120 L 694 120 Z M 294 190 L 404 368 L 514 190 Z" />
<glyph unicode="ā" horiz-adv-x="1004" d="M 332 850 L 672 850 L 672 960 L 332 960 Z M 631 0 L 974 0 L 502 762 L 30 0 L 177 0 L 220 70 L 588 70 Z M 472 477 L 506 533 L 763 120 L 694 120 Z M 294 190 L 404 368 L 514 190 Z" />
<glyph unicode="Ă" horiz-adv-x="1004" d="M 572 989 C 572 949 548 920 502 920 C 456 920 432 949 432 989 L 322 989 C 322 897 394 820 502 820 C 610 820 682 898 682 989 Z M 631 0 L 974 0 L 502 762 L 30 0 L 177 0 L 220 70 L 588 70 Z M 472 477 L 506 533 L 763 120 L 694 120 Z M 294 190 L 404 368 L 514 190 Z" />
<glyph unicode="ă" horiz-adv-x="1004" d="M 572 989 C 572 949 548 920 502 920 C 456 920 432 949 432 989 L 322 989 C 322 897 394 820 502 820 C 610 820 682 898 682 989 Z M 631 0 L 974 0 L 502 762 L 30 0 L 177 0 L 220 70 L 588 70 Z M 472 477 L 506 533 L 763 120 L 694 120 Z M 294 190 L 404 368 L 514 190 Z" />
<glyph unicode="Ą" horiz-adv-x="1004" d="M 848 -192 L 848 -82 L 737 -82 L 754 0 L 974 0 L 502 762 L 30 0 L 177 0 L 220 70 L 588 70 L 631 0 L 591 -192 Z M 472 477 L 506 533 L 763 120 L 694 120 Z M 294 190 L 404 368 L 514 190 Z" />
<glyph unicode="ą" horiz-adv-x="1004" d="M 848 -192 L 848 -82 L 737 -82 L 754 0 L 974 0 L 502 762 L 30 0 L 177 0 L 220 70 L 588 70 L 631 0 L 591 -192 Z M 472 477 L 506 533 L 763 120 L 694 120 Z M 294 190 L 404 368 L 514 190 Z" />
<glyph unicode="Ć" horiz-adv-x="905" d="M 351 820 L 671 870 L 671 980 L 351 930 Z M 812 83 L 766 200 C 697 135 604 105 513 105 C 472 105 434 111 400 121 L 400 629 C 434 639 472 645 513 645 C 604 645 698 615 766 550 L 812 667 C 734 729 630 765 513 765 C 266 765 100 602 100 375 C 100 148 266 -15 513 -15 C 630 -15 734 21 812 83 Z M 220 375 C 220 446 241 506 280 552 L 280 198 C 241 244 220 304 220 375 Z" />
<glyph unicode="ć" horiz-adv-x="905" d="M 351 820 L 671 870 L 671 980 L 351 930 Z M 812 83 L 766 200 C 697 135 604 105 513 105 C 472 105 434 111 400 121 L 400 629 C 434 639 472 645 513 645 C 604 645 698 615 766 550 L 812 667 C 734 729 630 765 513 765 C 266 765 100 602 100 375 C 100 148 266 -15 513 -15 C 630 -15 734 21 812 83 Z M 220 375 C 220 446 241 506 280 552 L 280 198 C 241 244 220 304 220 375 Z" />
<glyph unicode="Ĉ" horiz-adv-x="905" d="M 331 820 L 501 870 L 671 820 L 671 930 L 501 980 L 331 930 Z M 812 83 L 766 200 C 697 135 604 105 513 105 C 472 105 434 111 400 121 L 400 629 C 434 639 472 645 513 645 C 604 645 698 615 766 550 L 812 667 C 734 729 630 765 513 765 C 266 765 100 602 100 375 C 100 148 266 -15 513 -15 C 630 -15 734 21 812 83 Z M 220 375 C 220 446 241 506 280 552 L 280 198 C 241 244 220 304 220 375 Z" />
<glyph unicode="ĉ" horiz-adv-x="905" d="M 331 820 L 501 870 L 671 820 L 671 930 L 501 980 L 331 930 Z M 812 83 L 766 200 C 697 135 604 105 513 105 C 472 105 434 111 400 121 L 400 629 C 434 639 472 645 513 645 C 604 645 698 615 766 550 L 812 667 C 734 729 630 765 513 765 C 266 765 100 602 100 375 C 100 148 266 -15 513 -15 C 630 -15 734 21 812 83 Z M 220 375 C 220 446 241 506 280 552 L 280 198 C 241 244 220 304 220 375 Z" />
<glyph unicode="Ċ" horiz-adv-x="905" d="M 501 825 C 550 825 590 862 590 911 C 590 961 550 997 501 997 C 451 997 413 961 413 911 C 413 862 451 825 501 825 Z M 812 83 L 766 200 C 697 135 604 105 513 105 C 472 105 434 111 400 121 L 400 629 C 434 639 472 645 513 645 C 604 645 698 615 766 550 L 812 667 C 734 729 630 765 513 765 C 266 765 100 602 100 375 C 100 148 266 -15 513 -15 C 630 -15 734 21 812 83 Z M 220 375 C 220 446 241 506 280 552 L 280 198 C 241 244 220 304 220 375 Z" />
<glyph unicode="ċ" horiz-adv-x="905" d="M 501 825 C 550 825 590 862 590 911 C 590 961 550 997 501 997 C 451 997 413 961 413 911 C 413 862 451 825 501 825 Z M 812 83 L 766 200 C 697 135 604 105 513 105 C 472 105 434 111 400 121 L 400 629 C 434 639 472 645 513 645 C 604 645 698 615 766 550 L 812 667 C 734 729 630 765 513 765 C 266 765 100 602 100 375 C 100 148 266 -15 513 -15 C 630 -15 734 21 812 83 Z M 220 375 C 220 446 241 506 280 552 L 280 198 C 241 244 220 304 220 375 Z" />
<glyph unicode="Č" horiz-adv-x="905" d="M 671 980 L 501 930 L 331 980 L 331 870 L 501 820 L 671 870 Z M 812 83 L 766 200 C 697 135 604 105 513 105 C 472 105 434 111 400 121 L 400 629 C 434 639 472 645 513 645 C 604 645 698 615 766 550 L 812 667 C 734 729 630 765 513 765 C 266 765 100 602 100 375 C 100 148 266 -15 513 -15 C 630 -15 734 21 812 83 Z M 220 375 C 220 446 241 506 280 552 L 280 198 C 241 244 220 304 220 375 Z" />
<glyph unicode="č" horiz-adv-x="905" d="M 671 980 L 501 930 L 331 980 L 331 870 L 501 820 L 671 870 Z M 812 83 L 766 200 C 697 135 604 105 513 105 C 472 105 434 111 400 121 L 400 629 C 434 639 472 645 513 645 C 604 645 698 615 766 550 L 812 667 C 734 729 630 765 513 765 C 266 765 100 602 100 375 C 100 148 266 -15 513 -15 C 630 -15 734 21 812 83 Z M 220 375 C 220 446 241 506 280 552 L 280 198 C 241 244 220 304 220 375 Z" />
<glyph unicode="Ď" horiz-adv-x="1037" d="M 689 980 L 519 930 L 349 980 L 349 870 L 519 820 L 689 870 Z M 150 0 L 523 0 C 770 0 937 156 937 375 C 937 594 770 750 523 750 L 150 750 Z M 523 630 C 700 630 807 528 807 375 C 807 222 700 120 523 120 L 450 120 L 450 630 Z M 330 630 L 330 120 L 270 120 L 270 630 Z" />
<glyph unicode="ď" horiz-adv-x="1037" d="M 689 980 L 519 930 L 349 980 L 349 870 L 519 820 L 689 870 Z M 150 0 L 523 0 C 770 0 937 156 937 375 C 937 594 770 750 523 750 L 150 750 Z M 523 630 C 700 630 807 528 807 375 C 807 222 700 120 523 120 L 450 120 L 450 630 Z M 330 630 L 330 120 L 270 120 L 270 630 Z" />
<glyph unicode="Đ" horiz-adv-x="1047" d="M 947 375 C 947 594 780 750 533 750 L 160 750 L 160 393 L 80 393 L 80 273 L 160 273 L 160 0 L 533 0 C 780 0 947 156 947 375 Z M 460 120 L 460 273 L 660 273 L 660 393 L 460 393 L 460 630 L 533 630 C 710 630 817 528 817 375 C 817 222 710 120 533 120 Z M 340 630 L 340 120 L 280 120 L 280 630 Z" />
<glyph unicode="đ" horiz-adv-x="1047" d="M 947 375 C 947 594 780 750 533 750 L 160 750 L 160 393 L 80 393 L 80 273 L 160 273 L 160 0 L 533 0 C 780 0 947 156 947 375 Z M 460 120 L 460 273 L 660 273 L 660 393 L 460 393 L 460 630 L 533 630 C 710 630 817 528 817 375 C 817 222 710 120 533 120 Z M 340 630 L 340 120 L 280 120 L 280 630 Z" />
<glyph unicode="Ē" horiz-adv-x="930" d="M 325 850 L 665 850 L 665 960 L 325 960 Z M 150 0 L 830 0 L 830 120 L 450 120 L 450 273 L 660 273 L 660 393 L 450 393 L 450 630 L 830 630 L 830 750 L 150 750 Z M 330 630 L 330 120 L 270 120 L 270 630 Z" />
<glyph unicode="ē" horiz-adv-x="930" d="M 325 850 L 665 850 L 665 960 L 325 960 Z M 150 0 L 830 0 L 830 120 L 450 120 L 450 273 L 660 273 L 660 393 L 450 393 L 450 630 L 830 630 L 830 750 L 150 750 Z M 330 630 L 330 120 L 270 120 L 270 630 Z" />
<glyph unicode="Ĕ" horiz-adv-x="930" d="M 565 989 C 565 949 541 920 495 920 C 449 920 425 949 425 989 L 315 989 C 315 897 387 820 495 820 C 603 820 675 898 675 989 Z M 150 0 L 830 0 L 830 120 L 450 120 L 450 273 L 660 273 L 660 393 L 450 393 L 450 630 L 830 630 L 830 750 L 150 750 Z M 330 630 L 330 120 L 270 120 L 270 630 Z" />
<glyph unicode="ĕ" horiz-adv-x="930" d="M 565 989 C 565 949 541 920 495 920 C 449 920 425 949 425 989 L 315 989 C 315 897 387 820 495 820 C 603 820 675 898 675 989 Z M 150 0 L 830 0 L 830 120 L 450 120 L 450 273 L 660 273 L 660 393 L 450 393 L 450 630 L 830 630 L 830 750 L 150 750 Z M 330 630 L 330 120 L 270 120 L 270 630 Z" />
<glyph unicode="Ė" horiz-adv-x="930" d="M 495 825 C 544 825 584 862 584 911 C 584 961 544 997 495 997 C 445 997 407 961 407 911 C 407 862 445 825 495 825 Z M 150 0 L 830 0 L 830 120 L 450 120 L 450 273 L 660 273 L 660 393 L 450 393 L 450 630 L 830 630 L 830 750 L 150 750 Z M 330 630 L 330 120 L 270 120 L 270 630 Z" />
<glyph unicode="ė" horiz-adv-x="930" d="M 495 825 C 544 825 584 862 584 911 C 584 961 544 997 495 997 C 445 997 407 961 407 911 C 407 862 445 825 495 825 Z M 150 0 L 830 0 L 830 120 L 450 120 L 450 273 L 660 273 L 660 393 L 450 393 L 450 630 L 830 630 L 830 750 L 150 750 Z M 330 630 L 330 120 L 270 120 L 270 630 Z" />
<glyph unicode="Ę" horiz-adv-x="930" d="M 830 -192 L 830 -82 L 719 -82 L 736 0 L 830 0 L 830 120 L 450 120 L 450 273 L 660 273 L 660 393 L 450 393 L 450 630 L 830 630 L 830 750 L 150 750 L 150 0 L 613 0 L 573 -192 Z M 330 630 L 330 120 L 270 120 L 270 630 Z" />
<glyph unicode="ę" horiz-adv-x="930" d="M 830 -192 L 830 -82 L 719 -82 L 736 0 L 830 0 L 830 120 L 450 120 L 450 273 L 660 273 L 660 393 L 450 393 L 450 630 L 830 630 L 830 750 L 150 750 L 150 0 L 613 0 L 573 -192 Z M 330 630 L 330 120 L 270 120 L 270 630 Z" />
<glyph unicode="Ě" horiz-adv-x="930" d="M 665 980 L 495 930 L 325 980 L 325 870 L 495 820 L 665 870 Z M 150 0 L 830 0 L 830 120 L 450 120 L 450 273 L 660 273 L 660 393 L 450 393 L 450 630 L 830 630 L 830 750 L 150 750 Z M 330 630 L 330 120 L 270 120 L 270 630 Z" />
<glyph unicode="ě" horiz-adv-x="930" d="M 665 980 L 495 930 L 325 980 L 325 870 L 495 820 L 665 870 Z M 150 0 L 830 0 L 830 120 L 450 120 L 450 273 L 660 273 L 660 393 L 450 393 L 450 630 L 830 630 L 830 750 L 150 750 Z M 330 630 L 330 120 L 270 120 L 270 630 Z" />
<glyph unicode="Ĝ" horiz-adv-x="978" d="M 324 820 L 494 870 L 664 820 L 664 930 L 494 980 L 324 930 Z M 878 180 L 878 454 L 748 454 L 748 213 C 703 150 612 105 513 105 C 472 105 434 111 400 122 L 400 628 C 434 639 472 645 513 645 C 573 645 636 628 674 607 L 711 723 C 659 746 586 765 513 765 C 276 765 100 602 100 375 C 100 148 276 -15 513 -15 C 664 -14 811 66 878 180 Z M 220 375 C 220 445 242 504 280 549 L 280 201 C 242 246 220 305 220 375 Z" />
<glyph unicode="ĝ" horiz-adv-x="978" d="M 324 820 L 494 870 L 664 820 L 664 930 L 494 980 L 324 930 Z M 878 180 L 878 454 L 748 454 L 748 213 C 703 150 612 105 513 105 C 472 105 434 111 400 122 L 400 628 C 434 639 472 645 513 645 C 573 645 636 628 674 607 L 711 723 C 659 746 586 765 513 765 C 276 765 100 602 100 375 C 100 148 276 -15 513 -15 C 664 -14 811 66 878 180 Z M 220 375 C 220 445 242 504 280 549 L 280 201 C 242 246 220 305 220 375 Z" />
<glyph unicode="Ğ" horiz-adv-x="978" d="M 564 989 C 564 949 540 920 494 920 C 448 920 424 949 424 989 L 314 989 C 314 897 386 820 494 820 C 602 820 674 898 674 989 Z M 878 180 L 878 454 L 748 454 L 748 213 C 703 150 612 105 513 105 C 472 105 434 111 400 122 L 400 628 C 434 639 472 645 513 645 C 573 645 636 628 674 607 L 711 723 C 659 746 586 765 513 765 C 276 765 100 602 100 375 C 100 148 276 -15 513 -15 C 664 -14 811 66 878 180 Z M 220 375 C 220 445 242 504 280 549 L 280 201 C 242 246 220 305 220 375 Z" />
<glyph unicode="ğ" horiz-adv-x="978" d="M 564 989 C 564 949 540 920 494 920 C 448 920 424 949 424 989 L 314 989 C 314 897 386 820 494 820 C 602 820 674 898 674 989 Z M 878 180 L 878 454 L 748 454 L 748 213 C 703 150 612 105 513 105 C 472 105 434 111 400 122 L 400 628 C 434 639 472 645 513 645 C 573 645 636 628 674 607 L 711 723 C 659 746 586 765 513 765 C 276 765 100 602 100 375 C 100 148 276 -15 513 -15 C 664 -14 811 66 878 180 Z M 220 375 C 220 445 242 504 280 549 L 280 201 C 242 246 220 305 220 375 Z" />
<glyph unicode="Ġ" horiz-adv-x="978" d="M 494 825 C 543 825 583 862 583 911 C 583 961 543 997 494 997 C 444 997 406 961 406 911 C 406 862 444 825 494 825 Z M 878 180 L 878 454 L 748 454 L 748 213 C 703 150 612 105 513 105 C 472 105 434 111 400 122 L 400 628 C 434 639 472 645 513 645 C 573 645 636 628 674 607 L 711 723 C 659 746 586 765 513 765 C 276 765 100 602 100 375 C 100 148 276 -15 513 -15 C 664 -14 811 66 878 180 Z M 220 375 C 220 445 242 504 280 549 L 280 201 C 242 246 220 305 220 375 Z" />
<glyph unicode="ġ" horiz-adv-x="978" d="M 494 825 C 543 825 583 862 583 911 C 583 961 543 997 494 997 C 444 997 406 961 406 911 C 406 862 444 825 494 825 Z M 878 180 L 878 454 L 748 454 L 748 213 C 703 150 612 105 513 105 C 472 105 434 111 400 122 L 400 628 C 434 639 472 645 513 645 C 573 645 636 628 674 607 L 711 723 C 659 746 586 765 513 765 C 276 765 100 602 100 375 C 100 148 276 -15 513 -15 C 664 -14 811 66 878 180 Z M 220 375 C 220 445 242 504 280 549 L 280 201 C 242 246 220 305 220 375 Z" />
<glyph unicode="Ģ" horiz-adv-x="978" d="M 878 180 L 878 454 L 748 454 L 748 213 C 703 150 612 105 513 105 C 472 105 434 111 400 122 L 400 628 C 434 639 472 645 513 645 C 573 645 636 628 674 607 L 711 723 C 659 746 586 765 513 765 C 276 765 100 602 100 375 C 100 148 276 -15 513 -15 C 664 -14 811 66 878 180 Z M 220 375 C 220 445 242 504 280 549 L 280 201 C 242 246 220 305 220 375 Z M 445 -314 L 530 -314 L 576 -249 C 591 -228 603 -202 603 -173 C 603 -124 565 -87 514 -87 C 462 -87 424 -124 424 -173 C 424 -213 449 -244 488 -255 Z" />
<glyph unicode="ģ" horiz-adv-x="978" d="M 878 180 L 878 454 L 748 454 L 748 213 C 703 150 612 105 513 105 C 472 105 434 111 400 122 L 400 628 C 434 639 472 645 513 645 C 573 645 636 628 674 607 L 711 723 C 659 746 586 765 513 765 C 276 765 100 602 100 375 C 100 148 276 -15 513 -15 C 664 -14 811 66 878 180 Z M 220 375 C 220 445 242 504 280 549 L 280 201 C 242 246 220 305 220 375 Z M 445 -314 L 530 -314 L 576 -249 C 591 -228 603 -202 603 -173 C 603 -124 565 -87 514 -87 C 462 -87 424 -124 424 -173 C 424 -213 449 -244 488 -255 Z" />
<glyph unicode="Ĥ" horiz-adv-x="1030" d="M 385 820 L 555 870 L 725 820 L 725 930 L 555 980 L 385 930 Z M 750 0 L 880 0 L 880 750 L 750 750 L 750 335 L 450 335 L 450 750 L 150 750 L 150 0 L 450 0 L 450 215 L 750 215 Z M 330 630 L 330 120 L 270 120 L 270 630 Z" />
<glyph unicode="ĥ" horiz-adv-x="1030" d="M 385 820 L 555 870 L 725 820 L 725 930 L 555 980 L 385 930 Z M 750 0 L 880 0 L 880 750 L 750 750 L 750 335 L 450 335 L 450 750 L 150 750 L 150 0 L 450 0 L 450 215 L 750 215 Z M 330 630 L 330 120 L 270 120 L 270 630 Z" />
<glyph unicode="Ħ" horiz-adv-x="1050" d="M 760 0 L 890 0 L 890 415 L 960 415 L 960 535 L 890 535 L 890 750 L 760 750 L 760 535 L 460 535 L 460 750 L 160 750 L 160 535 L 90 535 L 90 415 L 160 415 L 160 0 L 460 0 L 460 215 L 760 215 Z M 340 630 L 340 120 L 280 120 L 280 630 Z M 460 335 L 460 415 L 760 415 L 760 335 Z" />
<glyph unicode="ħ" horiz-adv-x="1050" d="M 760 0 L 890 0 L 890 415 L 960 415 L 960 535 L 890 535 L 890 750 L 760 750 L 760 535 L 460 535 L 460 750 L 160 750 L 160 535 L 90 535 L 90 415 L 160 415 L 160 0 L 460 0 L 460 215 L 760 215 Z M 340 630 L 340 120 L 280 120 L 280 630 Z M 460 335 L 460 415 L 760 415 L 760 335 Z" />
<glyph unicode="Ĩ" horiz-adv-x="620" d="M 480 972 C 456 950 418 944 380 947 C 334 950 287 970 240 973 C 202 976 164 970 140 949 L 140 839 C 164 860 202 866 240 863 C 287 860 334 840 380 837 C 418 834 456 840 480 862 Z M 150 0 L 470 0 L 470 750 L 150 750 Z M 340 630 L 340 120 L 280 120 L 280 630 Z" />
<glyph unicode="ĩ" horiz-adv-x="620" d="M 480 972 C 456 950 418 944 380 947 C 334 950 287 970 240 973 C 202 976 164 970 140 949 L 140 839 C 164 860 202 866 240 863 C 287 860 334 840 380 837 C 418 834 456 840 480 862 Z M 150 0 L 470 0 L 470 750 L 150 750 Z M 340 630 L 340 120 L 280 120 L 280 630 Z" />
<glyph unicode="Ī" horiz-adv-x="620" d="M 140 850 L 480 850 L 480 960 L 140 960 Z M 150 0 L 470 0 L 470 750 L 150 750 Z M 340 630 L 340 120 L 280 120 L 280 630 Z" />
<glyph unicode="ī" horiz-adv-x="620" d="M 140 850 L 480 850 L 480 960 L 140 960 Z M 150 0 L 470 0 L 470 750 L 150 750 Z M 340 630 L 340 120 L 280 120 L 280 630 Z" />
<glyph unicode="Ĭ" horiz-adv-x="620" d="M 380 989 C 380 949 356 920 310 920 C 264 920 240 949 240 989 L 130 989 C 130 897 202 820 310 820 C 418 820 490 898 490 989 Z M 150 0 L 470 0 L 470 750 L 150 750 Z M 340 630 L 340 120 L 280 120 L 280 630 Z" />
<glyph unicode="ĭ" horiz-adv-x="620" d="M 380 989 C 380 949 356 920 310 920 C 264 920 240 949 240 989 L 130 989 C 130 897 202 820 310 820 C 418 820 490 898 490 989 Z M 150 0 L 470 0 L 470 750 L 150 750 Z M 340 630 L 340 120 L 280 120 L 280 630 Z" />
<glyph unicode="Į" horiz-adv-x="620" d="M 470 -192 L 470 -82 L 359 -82 L 376 0 L 470 0 L 470 750 L 150 750 L 150 0 L 253 0 L 213 -192 Z M 340 630 L 340 120 L 280 120 L 280 630 Z" />
<glyph unicode="į" horiz-adv-x="620" d="M 470 -192 L 470 -82 L 359 -82 L 376 0 L 470 0 L 470 750 L 150 750 L 150 0 L 253 0 L 213 -192 Z M 340 630 L 340 120 L 280 120 L 280 630 Z" />
<glyph unicode="İ" horiz-adv-x="620" d="M 310 825 C 359 825 399 862 399 911 C 399 961 359 997 310 997 C 260 997 222 961 222 911 C 222 862 260 825 310 825 Z M 150 0 L 470 0 L 470 750 L 150 750 Z M 340 630 L 340 120 L 280 120 L 280 630 Z" />
<glyph unicode="ı" horiz-adv-x="620" d="M 150 0 L 470 0 L 470 750 L 150 750 Z M 340 630 L 340 120 L 280 120 L 280 630 Z" />
<glyph unicode="Ĳ" horiz-adv-x="1102" d="M 100 240 L 411 240 L 411 750 L 100 750 Z M 599 -15 C 822 -15 972 138 972 353 L 972 750 L 672 750 L 672 116 C 650 108 626 105 599 105 C 550 105 507 116 467 137 L 425 21 C 479 1 536 -15 599 -15 Z M 290 630 L 290 360 L 220 360 L 220 630 Z M 852 353 C 852 273 826 205 792 176 L 792 630 L 852 630 Z" />
<glyph unicode="ĳ" horiz-adv-x="1102" d="M 100 240 L 411 240 L 411 750 L 100 750 Z M 599 -15 C 822 -15 972 138 972 353 L 972 750 L 672 750 L 672 116 C 650 108 626 105 599 105 C 550 105 507 116 467 137 L 425 21 C 479 1 536 -15 599 -15 Z M 290 630 L 290 360 L 220 360 L 220 630 Z M 852 353 C 852 273 826 205 792 176 L 792 630 L 852 630 Z" />
<glyph unicode="Ĵ" horiz-adv-x="727" d="M 274 820 L 444 870 L 614 820 L 614 930 L 444 980 L 274 930 Z M 224 -15 C 447 -15 597 138 597 353 L 597 750 L 297 750 L 297 116 C 275 108 251 105 224 105 C 175 105 132 116 92 137 L 50 21 C 104 1 161 -15 224 -15 Z M 477 353 C 477 273 451 205 417 176 L 417 630 L 477 630 Z" />
<glyph unicode="ĵ" horiz-adv-x="727" d="M 274 820 L 444 870 L 614 820 L 614 930 L 444 980 L 274 930 Z M 224 -15 C 447 -15 597 138 597 353 L 597 750 L 297 750 L 297 116 C 275 108 251 105 224 105 C 175 105 132 116 92 137 L 50 21 C 104 1 161 -15 224 -15 Z M 477 353 C 477 273 451 205 417 176 L 417 630 L 477 630 Z" />
<glyph unicode="Ķ" horiz-adv-x="980" d="M 779 0 L 936 0 L 651 412 L 905 750 L 755 750 L 450 345 L 450 750 L 150 750 L 150 0 L 450 0 L 450 146 L 568 303 Z M 330 630 L 330 120 L 270 120 L 270 630 Z M 451 -314 L 536 -314 L 582 -249 C 597 -228 609 -202 609 -173 C 609 -124 571 -87 520 -87 C 468 -87 430 -124 430 -173 C 430 -213 455 -244 494 -255 Z" />
<glyph unicode="ķ" horiz-adv-x="980" d="M 779 0 L 936 0 L 651 412 L 905 750 L 755 750 L 450 345 L 450 750 L 150 750 L 150 0 L 450 0 L 450 146 L 568 303 Z M 330 630 L 330 120 L 270 120 L 270 630 Z M 451 -314 L 536 -314 L 582 -249 C 597 -228 609 -202 609 -173 C 609 -124 571 -87 520 -87 C 468 -87 430 -124 430 -173 C 430 -213 455 -244 494 -255 Z" />
<glyph unicode="Ĺ" horiz-adv-x="882" d="M 150 820 L 470 870 L 470 980 L 150 930 Z M 822 120 L 450 120 L 450 750 L 150 750 L 150 0 L 822 0 Z M 330 630 L 330 120 L 270 120 L 270 630 Z" />
<glyph unicode="ĺ" horiz-adv-x="882" d="M 150 820 L 470 870 L 470 980 L 150 930 Z M 822 120 L 450 120 L 450 750 L 150 750 L 150 0 L 822 0 Z M 330 630 L 330 120 L 270 120 L 270 630 Z" />
<glyph unicode="Ļ" horiz-adv-x="882" d="M 822 120 L 450 120 L 450 750 L 150 750 L 150 0 L 822 0 Z M 330 630 L 330 120 L 270 120 L 270 630 Z M 417 -314 L 502 -314 L 548 -249 C 563 -228 575 -202 575 -173 C 575 -124 537 -87 486 -87 C 434 -87 396 -124 396 -173 C 396 -213 421 -244 460 -255 Z" />
<glyph unicode="ļ" horiz-adv-x="882" d="M 822 120 L 450 120 L 450 750 L 150 750 L 150 0 L 822 0 Z M 330 630 L 330 120 L 270 120 L 270 630 Z M 417 -314 L 502 -314 L 548 -249 C 563 -228 575 -202 575 -173 C 575 -124 537 -87 486 -87 C 434 -87 396 -124 396 -173 C 396 -213 421 -244 460 -255 Z" />
<glyph unicode="Ľ" horiz-adv-x="882" d="M 822 120 L 450 120 L 450 750 L 150 750 L 150 0 L 822 0 Z M 596 472 L 720 472 L 780 750 L 656 750 Z M 330 630 L 330 120 L 270 120 L 270 630 Z" />
<glyph unicode="ľ" horiz-adv-x="882" d="M 822 120 L 450 120 L 450 750 L 150 750 L 150 0 L 822 0 Z M 596 472 L 720 472 L 780 750 L 656 750 Z M 330 630 L 330 120 L 270 120 L 270 630 Z" />
<glyph unicode="Ŀ" horiz-adv-x="882" d="M 822 120 L 450 120 L 450 750 L 150 750 L 150 0 L 822 0 Z M 330 630 L 330 120 L 270 120 L 270 630 Z M 732 334 C 781 334 821 371 821 420 C 821 470 781 506 732 506 C 682 506 644 470 644 420 C 644 371 682 334 732 334 Z" />
<glyph unicode="ŀ" horiz-adv-x="882" d="M 822 120 L 450 120 L 450 750 L 150 750 L 150 0 L 822 0 Z M 330 630 L 330 120 L 270 120 L 270 630 Z M 732 334 C 781 334 821 371 821 420 C 821 470 781 506 732 506 C 682 506 644 470 644 420 C 644 371 682 334 732 334 Z" />
<glyph unicode="Ł" horiz-adv-x="902" d="M 832 120 L 460 120 L 460 252 L 739 345 L 739 472 L 460 379 L 460 750 L 160 750 L 160 279 L 80 252 L 80 125 L 160 152 L 160 0 L 832 0 Z M 340 630 L 340 120 L 280 120 L 280 630 Z" />
<glyph unicode="ł" horiz-adv-x="902" d="M 832 120 L 460 120 L 460 252 L 739 345 L 739 472 L 460 379 L 460 750 L 160 750 L 160 279 L 80 252 L 80 125 L 160 152 L 160 0 L 832 0 Z M 340 630 L 340 120 L 280 120 L 280 630 Z" />
<glyph unicode="Ń" horiz-adv-x="985" d="M 323 810 L 643 860 L 643 970 L 323 920 Z M 835 750 L 695 750 L 695 290 L 150 775 L 150 0 L 450 0 L 450 323 L 835 -25 Z M 330 420 L 330 120 L 270 120 L 270 473 Z" />
<glyph unicode="ń" horiz-adv-x="985" d="M 323 810 L 643 860 L 643 970 L 323 920 Z M 835 750 L 695 750 L 695 290 L 150 775 L 150 0 L 450 0 L 450 323 L 835 -25 Z M 330 420 L 330 120 L 270 120 L 270 473 Z" />
<glyph unicode="Ņ" horiz-adv-x="985" d="M 835 750 L 695 750 L 695 290 L 150 775 L 150 0 L 450 0 L 450 323 L 835 -25 Z M 330 420 L 330 120 L 270 120 L 270 473 Z M 424 -314 L 509 -314 L 555 -249 C 570 -228 582 -202 582 -173 C 582 -124 544 -87 493 -87 C 441 -87 403 -124 403 -173 C 403 -213 428 -244 467 -255 Z" />
<glyph unicode="ņ" horiz-adv-x="985" d="M 835 750 L 695 750 L 695 290 L 150 775 L 150 0 L 450 0 L 450 323 L 835 -25 Z M 330 420 L 330 120 L 270 120 L 270 473 Z M 424 -314 L 509 -314 L 555 -249 C 570 -228 582 -202 582 -173 C 582 -124 544 -87 493 -87 C 441 -87 403 -124 403 -173 C 403 -213 428 -244 467 -255 Z" />
<glyph unicode="Ň" horiz-adv-x="985" d="M 643 970 L 473 920 L 303 970 L 303 860 L 473 810 L 643 860 Z M 835 750 L 695 750 L 695 290 L 150 775 L 150 0 L 450 0 L 450 323 L 835 -25 Z M 330 420 L 330 120 L 270 120 L 270 473 Z" />
<glyph unicode="ň" horiz-adv-x="985" d="M 643 970 L 473 920 L 303 970 L 303 860 L 473 810 L 643 860 Z M 835 750 L 695 750 L 695 290 L 150 775 L 150 0 L 450 0 L 450 323 L 835 -25 Z M 330 420 L 330 120 L 270 120 L 270 473 Z" />
<glyph unicode="Ŋ" horiz-adv-x="985" d="M 695 750 L 695 290 L 150 775 L 150 0 L 450 0 L 450 323 L 695 101 L 695 32 C 695 -21 667 -42 630 -42 C 610 -42 588 -36 566 -25 L 533 -140 C 568 -153 604 -163 644 -163 C 764 -163 835 -77 835 32 L 835 750 Z M 330 420 L 330 120 L 270 120 L 270 473 Z" />
<glyph unicode="ŋ" horiz-adv-x="985" d="M 695 750 L 695 290 L 150 775 L 150 0 L 450 0 L 450 323 L 695 101 L 695 32 C 695 -21 667 -42 630 -42 C 610 -42 588 -36 566 -25 L 533 -140 C 568 -153 604 -163 644 -163 C 764 -163 835 -77 835 32 L 835 750 Z M 330 420 L 330 120 L 270 120 L 270 473 Z" />
<glyph unicode="Ō" horiz-adv-x="1027" d="M 344 850 L 684 850 L 684 960 L 344 960 Z M 513 -14 C 750 -14 927 149 927 376 C 927 603 750 766 513 766 C 276 766 100 603 100 376 C 100 149 276 -14 513 -14 Z M 513 646 C 680 646 797 538 797 376 C 797 214 680 106 513 106 C 472 106 434 112 400 123 L 400 629 C 434 640 472 646 513 646 Z M 219 376 C 219 445 241 505 280 550 L 280 202 C 241 247 219 307 219 376 Z" />
<glyph unicode="ō" horiz-adv-x="1027" d="M 344 850 L 684 850 L 684 960 L 344 960 Z M 513 -14 C 750 -14 927 149 927 376 C 927 603 750 766 513 766 C 276 766 100 603 100 376 C 100 149 276 -14 513 -14 Z M 513 646 C 680 646 797 538 797 376 C 797 214 680 106 513 106 C 472 106 434 112 400 123 L 400 629 C 434 640 472 646 513 646 Z M 219 376 C 219 445 241 505 280 550 L 280 202 C 241 247 219 307 219 376 Z" />
<glyph unicode="Ŏ" horiz-adv-x="1027" d="M 584 989 C 584 949 560 920 514 920 C 468 920 444 949 444 989 L 334 989 C 334 897 406 820 514 820 C 622 820 694 898 694 989 Z M 513 -14 C 750 -14 927 149 927 376 C 927 603 750 766 513 766 C 276 766 100 603 100 376 C 100 149 276 -14 513 -14 Z M 513 646 C 680 646 797 538 797 376 C 797 214 680 106 513 106 C 472 106 434 112 400 123 L 400 629 C 434 640 472 646 513 646 Z M 219 376 C 219 445 241 505 280 550 L 280 202 C 241 247 219 307 219 376 Z" />
<glyph unicode="ŏ" horiz-adv-x="1027" d="M 584 989 C 584 949 560 920 514 920 C 468 920 444 949 444 989 L 334 989 C 334 897 406 820 514 820 C 622 820 694 898 694 989 Z M 513 -14 C 750 -14 927 149 927 376 C 927 603 750 766 513 766 C 276 766 100 603 100 376 C 100 149 276 -14 513 -14 Z M 513 646 C 680 646 797 538 797 376 C 797 214 680 106 513 106 C 472 106 434 112 400 123 L 400 629 C 434 640 472 646 513 646 Z M 219 376 C 219 445 241 505 280 550 L 280 202 C 241 247 219 307 219 376 Z" />
<glyph unicode="Ő" horiz-adv-x="1027" d="M 475 850 L 514 1019 L 394 1019 L 355 850 Z M 672 850 L 711 1019 L 591 1019 L 552 850 Z M 513 -14 C 750 -14 927 149 927 376 C 927 603 750 766 513 766 C 276 766 100 603 100 376 C 100 149 276 -14 513 -14 Z M 513 646 C 680 646 797 538 797 376 C 797 214 680 106 513 106 C 472 106 434 112 400 123 L 400 629 C 434 640 472 646 513 646 Z M 219 376 C 219 445 241 505 280 550 L 280 202 C 241 247 219 307 219 376 Z" />
<glyph unicode="ő" horiz-adv-x="1027" d="M 475 850 L 514 1019 L 394 1019 L 355 850 Z M 672 850 L 711 1019 L 591 1019 L 552 850 Z M 513 -14 C 750 -14 927 149 927 376 C 927 603 750 766 513 766 C 276 766 100 603 100 376 C 100 149 276 -14 513 -14 Z M 513 646 C 680 646 797 538 797 376 C 797 214 680 106 513 106 C 472 106 434 112 400 123 L 400 629 C 434 640 472 646 513 646 Z M 219 376 C 219 445 241 505 280 550 L 280 202 C 241 247 219 307 219 376 Z" />
<glyph unicode="Œ" horiz-adv-x="1367" d="M 100 375 C 100 156 267 0 514 0 L 1267 0 L 1267 120 L 887 120 L 887 273 L 1097 273 L 1097 393 L 887 393 L 887 630 L 1267 630 L 1267 750 L 514 750 C 267 750 100 594 100 375 Z M 514 120 C 337 120 230 222 230 375 C 230 528 337 630 514 630 L 587 630 L 587 120 Z M 767 630 L 767 120 L 707 120 L 707 630 Z" />
<glyph unicode="œ" horiz-adv-x="1367" d="M 100 375 C 100 156 267 0 514 0 L 1267 0 L 1267 120 L 887 120 L 887 273 L 1097 273 L 1097 393 L 887 393 L 887 630 L 1267 630 L 1267 750 L 514 750 C 267 750 100 594 100 375 Z M 514 120 C 337 120 230 222 230 375 C 230 528 337 630 514 630 L 587 630 L 587 120 Z M 767 630 L 767 120 L 707 120 L 707 630 Z" />
<glyph unicode="Ŕ" horiz-adv-x="983" d="M 342 820 L 662 870 L 662 980 L 342 930 Z M 670 0 L 880 0 L 682 159 C 805 206 883 308 883 438 C 883 621 732 750 517 750 L 150 750 L 150 0 L 450 0 L 450 130 L 508 130 Z M 450 630 L 518 630 C 664 630 753 557 753 438 C 753 320 664 250 518 250 L 450 250 Z M 330 630 L 330 120 L 270 120 L 270 630 Z" />
<glyph unicode="ŕ" horiz-adv-x="983" d="M 342 820 L 662 870 L 662 980 L 342 930 Z M 670 0 L 880 0 L 682 159 C 805 206 883 308 883 438 C 883 621 732 750 517 750 L 150 750 L 150 0 L 450 0 L 450 130 L 508 130 Z M 450 630 L 518 630 C 664 630 753 557 753 438 C 753 320 664 250 518 250 L 450 250 Z M 330 630 L 330 120 L 270 120 L 270 630 Z" />
<glyph unicode="Ŗ" horiz-adv-x="983" d="M 670 0 L 880 0 L 682 159 C 805 206 883 308 883 438 C 883 621 732 750 517 750 L 150 750 L 150 0 L 450 0 L 450 130 L 508 130 Z M 450 630 L 518 630 C 664 630 753 557 753 438 C 753 320 664 250 518 250 L 450 250 Z M 330 630 L 330 120 L 270 120 L 270 630 Z M 423 -314 L 508 -314 L 554 -249 C 569 -228 581 -202 581 -173 C 581 -124 543 -87 492 -87 C 440 -87 402 -124 402 -173 C 402 -213 427 -244 466 -255 Z" />
<glyph unicode="ŗ" horiz-adv-x="983" d="M 670 0 L 880 0 L 682 159 C 805 206 883 308 883 438 C 883 621 732 750 517 750 L 150 750 L 150 0 L 450 0 L 450 130 L 508 130 Z M 450 630 L 518 630 C 664 630 753 557 753 438 C 753 320 664 250 518 250 L 450 250 Z M 330 630 L 330 120 L 270 120 L 270 630 Z M 423 -314 L 508 -314 L 554 -249 C 569 -228 581 -202 581 -173 C 581 -124 543 -87 492 -87 C 440 -87 402 -124 402 -173 C 402 -213 427 -244 466 -255 Z" />
<glyph unicode="Ř" horiz-adv-x="983" d="M 662 980 L 492 930 L 322 980 L 322 870 L 492 820 L 662 870 Z M 670 0 L 880 0 L 682 159 C 805 206 883 308 883 438 C 883 621 732 750 517 750 L 150 750 L 150 0 L 450 0 L 450 130 L 508 130 Z M 450 630 L 518 630 C 664 630 753 557 753 438 C 753 320 664 250 518 250 L 450 250 Z M 330 630 L 330 120 L 270 120 L 270 630 Z" />
<glyph unicode="ř" horiz-adv-x="983" d="M 662 980 L 492 930 L 322 980 L 322 870 L 492 820 L 662 870 Z M 670 0 L 880 0 L 682 159 C 805 206 883 308 883 438 C 883 621 732 750 517 750 L 150 750 L 150 0 L 450 0 L 450 130 L 508 130 Z M 450 630 L 518 630 C 664 630 753 557 753 438 C 753 320 664 250 518 250 L 450 250 Z M 330 630 L 330 120 L 270 120 L 270 630 Z" />
<glyph unicode="Ś" horiz-adv-x="887" d="M 276 820 L 596 870 L 596 980 L 276 930 Z M 787 254 C 787 354 739 448 572 496 L 262 586 C 292 622 349 645 429 645 C 509 645 606 618 676 571 L 714 693 C 641 737 536 765 428 765 C 256 765 122 666 122 506 C 122 400 174 301 348 251 L 643 167 C 608 129 543 106 452 106 C 342 106 209 148 145 217 L 100 95 C 174 29 317 -14 447 -14 C 644 -14 787 88 787 254 Z M 374 367 C 304 387 263 423 246 466 L 540 382 C 626 357 658 321 668 282 Z" />
<glyph unicode="ś" horiz-adv-x="887" d="M 276 820 L 596 870 L 596 980 L 276 930 Z M 787 254 C 787 354 739 448 572 496 L 262 586 C 292 622 349 645 429 645 C 509 645 606 618 676 571 L 714 693 C 641 737 536 765 428 765 C 256 765 122 666 122 506 C 122 400 174 301 348 251 L 643 167 C 608 129 543 106 452 106 C 342 106 209 148 145 217 L 100 95 C 174 29 317 -14 447 -14 C 644 -14 787 88 787 254 Z M 374 367 C 304 387 263 423 246 466 L 540 382 C 626 357 658 321 668 282 Z" />
<glyph unicode="Ŝ" horiz-adv-x="887" d="M 256 820 L 426 870 L 596 820 L 596 930 L 426 980 L 256 930 Z M 787 254 C 787 354 739 448 572 496 L 262 586 C 292 622 349 645 429 645 C 509 645 606 618 676 571 L 714 693 C 641 737 536 765 428 765 C 256 765 122 666 122 506 C 122 400 174 301 348 251 L 643 167 C 608 129 543 106 452 106 C 342 106 209 148 145 217 L 100 95 C 174 29 317 -14 447 -14 C 644 -14 787 88 787 254 Z M 374 367 C 304 387 263 423 246 466 L 540 382 C 626 357 658 321 668 282 Z" />
<glyph unicode="ŝ" horiz-adv-x="887" d="M 256 820 L 426 870 L 596 820 L 596 930 L 426 980 L 256 930 Z M 787 254 C 787 354 739 448 572 496 L 262 586 C 292 622 349 645 429 645 C 509 645 606 618 676 571 L 714 693 C 641 737 536 765 428 765 C 256 765 122 666 122 506 C 122 400 174 301 348 251 L 643 167 C 608 129 543 106 452 106 C 342 106 209 148 145 217 L 100 95 C 174 29 317 -14 447 -14 C 644 -14 787 88 787 254 Z M 374 367 C 304 387 263 423 246 466 L 540 382 C 626 357 658 321 668 282 Z" />
<glyph unicode="Ş" horiz-adv-x="887" d="M 787 254 C 787 354 739 448 572 496 L 262 586 C 292 622 349 645 429 645 C 509 645 606 618 676 571 L 714 693 C 641 737 536 765 428 765 C 256 765 122 666 122 506 C 122 400 174 301 348 251 L 643 167 C 608 129 543 106 452 106 C 342 106 209 148 145 217 L 100 95 C 163 39 275 0 386 -11 L 401 -82 L 290 -82 L 290 -192 L 547 -192 L 509 -10 C 673 9 787 106 787 254 Z M 374 367 C 304 387 263 423 246 466 L 540 382 C 626 357 658 321 668 282 Z" />
<glyph unicode="ş" horiz-adv-x="887" d="M 787 254 C 787 354 739 448 572 496 L 262 586 C 292 622 349 645 429 645 C 509 645 606 618 676 571 L 714 693 C 641 737 536 765 428 765 C 256 765 122 666 122 506 C 122 400 174 301 348 251 L 643 167 C 608 129 543 106 452 106 C 342 106 209 148 145 217 L 100 95 C 163 39 275 0 386 -11 L 401 -82 L 290 -82 L 290 -192 L 547 -192 L 509 -10 C 673 9 787 106 787 254 Z M 374 367 C 304 387 263 423 246 466 L 540 382 C 626 357 658 321 668 282 Z" />
<glyph unicode="Š" horiz-adv-x="887" d="M 596 980 L 426 930 L 256 980 L 256 870 L 426 820 L 596 870 Z M 787 254 C 787 354 739 448 572 496 L 262 586 C 292 622 349 645 429 645 C 509 645 606 618 676 571 L 714 693 C 641 737 536 765 428 765 C 256 765 122 666 122 506 C 122 400 174 301 348 251 L 643 167 C 608 129 543 106 452 106 C 342 106 209 148 145 217 L 100 95 C 174 29 317 -14 447 -14 C 644 -14 787 88 787 254 Z M 374 367 C 304 387 263 423 246 466 L 540 382 C 626 357 658 321 668 282 Z" />
<glyph unicode="š" horiz-adv-x="887" d="M 596 980 L 426 930 L 256 980 L 256 870 L 426 820 L 596 870 Z M 787 254 C 787 354 739 448 572 496 L 262 586 C 292 622 349 645 429 645 C 509 645 606 618 676 571 L 714 693 C 641 737 536 765 428 765 C 256 765 122 666 122 506 C 122 400 174 301 348 251 L 643 167 C 608 129 543 106 452 106 C 342 106 209 148 145 217 L 100 95 C 174 29 317 -14 447 -14 C 644 -14 787 88 787 254 Z M 374 367 C 304 387 263 423 246 466 L 540 382 C 626 357 658 321 668 282 Z" />
<glyph unicode="Ţ" horiz-adv-x="864" d="M 280 -82 L 280 -192 L 537 -192 L 497 0 L 582 0 L 582 630 L 794 630 L 794 750 L 70 750 L 70 630 L 282 630 L 282 0 L 374 0 L 391 -82 Z M 462 630 L 462 120 L 402 120 L 402 630 Z" />
<glyph unicode="ţ" horiz-adv-x="864" d="M 280 -82 L 280 -192 L 537 -192 L 497 0 L 582 0 L 582 630 L 794 630 L 794 750 L 70 750 L 70 630 L 282 630 L 282 0 L 374 0 L 391 -82 Z M 462 630 L 462 120 L 402 120 L 402 630 Z" />
<glyph unicode="Ť" horiz-adv-x="864" d="M 602 980 L 432 930 L 262 980 L 262 870 L 432 820 L 602 870 Z M 70 630 L 282 630 L 282 0 L 582 0 L 582 630 L 794 630 L 794 750 L 70 750 Z M 462 630 L 462 120 L 402 120 L 402 630 Z" />
<glyph unicode="ť" horiz-adv-x="864" d="M 602 980 L 432 930 L 262 980 L 262 870 L 432 820 L 602 870 Z M 70 630 L 282 630 L 282 0 L 582 0 L 582 630 L 794 630 L 794 750 L 70 750 Z M 462 630 L 462 120 L 402 120 L 402 630 Z" />
<glyph unicode="Ŧ" horiz-adv-x="864" d="M 694 215 L 694 335 L 582 335 L 582 630 L 794 630 L 794 750 L 70 750 L 70 630 L 282 630 L 282 335 L 170 335 L 170 215 L 282 215 L 282 0 L 582 0 L 582 215 Z M 462 630 L 462 120 L 402 120 L 402 630 Z" />
<glyph unicode="ŧ" horiz-adv-x="864" d="M 694 215 L 694 335 L 582 335 L 582 630 L 794 630 L 794 750 L 70 750 L 70 630 L 282 630 L 282 335 L 170 335 L 170 215 L 282 215 L 282 0 L 582 0 L 582 215 Z M 462 630 L 462 120 L 402 120 L 402 630 Z" />
<glyph unicode="Ũ" horiz-adv-x="1002" d="M 691 972 C 667 950 629 944 591 947 C 545 950 498 970 451 973 C 413 976 375 970 351 949 L 351 839 C 375 860 413 866 451 863 C 498 860 545 840 591 837 C 629 834 667 840 691 862 Z M 505 -23 C 724 -23 872 130 872 345 L 872 750 L 742 750 L 742 345 C 742 196 652 97 505 97 C 476 97 450 103 426 112 L 426 750 L 130 750 L 130 345 C 130 130 280 -23 505 -23 Z M 250 345 L 250 630 L 306 630 L 306 168 C 274 197 250 265 250 345 Z" />
<glyph unicode="ũ" horiz-adv-x="1002" d="M 691 972 C 667 950 629 944 591 947 C 545 950 498 970 451 973 C 413 976 375 970 351 949 L 351 839 C 375 860 413 866 451 863 C 498 860 545 840 591 837 C 629 834 667 840 691 862 Z M 505 -23 C 724 -23 872 130 872 345 L 872 750 L 742 750 L 742 345 C 742 196 652 97 505 97 C 476 97 450 103 426 112 L 426 750 L 130 750 L 130 345 C 130 130 280 -23 505 -23 Z M 250 345 L 250 630 L 306 630 L 306 168 C 274 197 250 265 250 345 Z" />
<glyph unicode="Ū" horiz-adv-x="1002" d="M 351 850 L 691 850 L 691 960 L 351 960 Z M 505 -23 C 724 -23 872 130 872 345 L 872 750 L 742 750 L 742 345 C 742 196 652 97 505 97 C 476 97 450 103 426 112 L 426 750 L 130 750 L 130 345 C 130 130 280 -23 505 -23 Z M 250 345 L 250 630 L 306 630 L 306 168 C 274 197 250 265 250 345 Z" />
<glyph unicode="ū" horiz-adv-x="1002" d="M 351 850 L 691 850 L 691 960 L 351 960 Z M 505 -23 C 724 -23 872 130 872 345 L 872 750 L 742 750 L 742 345 C 742 196 652 97 505 97 C 476 97 450 103 426 112 L 426 750 L 130 750 L 130 345 C 130 130 280 -23 505 -23 Z M 250 345 L 250 630 L 306 630 L 306 168 C 274 197 250 265 250 345 Z" />
<glyph unicode="Ŭ" horiz-adv-x="1002" d="M 591 989 C 591 949 567 920 521 920 C 475 920 451 949 451 989 L 341 989 C 341 897 413 820 521 820 C 629 820 701 898 701 989 Z M 505 -23 C 724 -23 872 130 872 345 L 872 750 L 742 750 L 742 345 C 742 196 652 97 505 97 C 476 97 450 103 426 112 L 426 750 L 130 750 L 130 345 C 130 130 280 -23 505 -23 Z M 250 345 L 250 630 L 306 630 L 306 168 C 274 197 250 265 250 345 Z" />
<glyph unicode="ŭ" horiz-adv-x="1002" d="M 591 989 C 591 949 567 920 521 920 C 475 920 451 949 451 989 L 341 989 C 341 897 413 820 521 820 C 629 820 701 898 701 989 Z M 505 -23 C 724 -23 872 130 872 345 L 872 750 L 742 750 L 742 345 C 742 196 652 97 505 97 C 476 97 450 103 426 112 L 426 750 L 130 750 L 130 345 C 130 130 280 -23 505 -23 Z M 250 345 L 250 630 L 306 630 L 306 168 C 274 197 250 265 250 345 Z" />
<glyph unicode="Ů" horiz-adv-x="1002" d="M 664 941 C 664 1020 601 1078 521 1078 C 440 1078 378 1020 378 941 C 378 862 440 803 521 803 C 601 803 664 862 664 941 Z M 521 995 C 555 995 578 973 578 941 C 578 908 555 885 521 885 Z M 505 -23 C 724 -23 872 130 872 345 L 872 750 L 742 750 L 742 345 C 742 196 652 97 505 97 C 476 97 450 103 426 112 L 426 750 L 130 750 L 130 345 C 130 130 280 -23 505 -23 Z M 250 345 L 250 630 L 306 630 L 306 168 C 274 197 250 265 250 345 Z" />
<glyph unicode="ů" horiz-adv-x="1002" d="M 664 941 C 664 1020 601 1078 521 1078 C 440 1078 378 1020 378 941 C 378 862 440 803 521 803 C 601 803 664 862 664 941 Z M 521 995 C 555 995 578 973 578 941 C 578 908 555 885 521 885 Z M 505 -23 C 724 -23 872 130 872 345 L 872 750 L 742 750 L 742 345 C 742 196 652 97 505 97 C 476 97 450 103 426 112 L 426 750 L 130 750 L 130 345 C 130 130 280 -23 505 -23 Z M 250 345 L 250 630 L 306 630 L 306 168 C 274 197 250 265 250 345 Z" />
<glyph unicode="Ű" horiz-adv-x="1002" d="M 482 850 L 521 1019 L 401 1019 L 362 850 Z M 679 850 L 718 1019 L 598 1019 L 559 850 Z M 505 -23 C 724 -23 872 130 872 345 L 872 750 L 742 750 L 742 345 C 742 196 652 97 505 97 C 476 97 450 103 426 112 L 426 750 L 130 750 L 130 345 C 130 130 280 -23 505 -23 Z M 250 345 L 250 630 L 306 630 L 306 168 C 274 197 250 265 250 345 Z" />
<glyph unicode="ű" horiz-adv-x="1002" d="M 482 850 L 521 1019 L 401 1019 L 362 850 Z M 679 850 L 718 1019 L 598 1019 L 559 850 Z M 505 -23 C 724 -23 872 130 872 345 L 872 750 L 742 750 L 742 345 C 742 196 652 97 505 97 C 476 97 450 103 426 112 L 426 750 L 130 750 L 130 345 C 130 130 280 -23 505 -23 Z M 250 345 L 250 630 L 306 630 L 306 168 C 274 197 250 265 250 345 Z" />
<glyph unicode="Ų" horiz-adv-x="1002" d="M 657 -82 L 546 -82 L 559 -20 C 748 3 872 148 872 345 L 872 750 L 742 750 L 742 345 C 742 196 652 97 505 97 C 476 97 450 103 426 112 L 426 750 L 130 750 L 130 345 C 130 153 250 10 436 -18 L 400 -192 L 657 -192 Z M 250 345 L 250 630 L 306 630 L 306 168 C 274 197 250 265 250 345 Z" />
<glyph unicode="ų" horiz-adv-x="1002" d="M 657 -82 L 546 -82 L 559 -20 C 748 3 872 148 872 345 L 872 750 L 742 750 L 742 345 C 742 196 652 97 505 97 C 476 97 450 103 426 112 L 426 750 L 130 750 L 130 345 C 130 153 250 10 436 -18 L 400 -192 L 657 -192 Z M 250 345 L 250 630 L 306 630 L 306 168 C 274 197 250 265 250 345 Z" />
<glyph unicode="Ŵ" horiz-adv-x="1223" d="M 442 820 L 612 870 L 782 820 L 782 930 L 612 980 L 442 930 Z M 1133 750 L 987 750 L 883 332 L 626 752 L 455 500 L 393 750 L 90 750 L 280 -10 L 623 495 L 943 -10 Z M 369 373 L 325 307 L 244 630 L 304 630 Z" />
<glyph unicode="ŵ" horiz-adv-x="1223" d="M 442 820 L 612 870 L 782 820 L 782 930 L 612 980 L 442 930 Z M 1133 750 L 987 750 L 883 332 L 626 752 L 455 500 L 393 750 L 90 750 L 280 -10 L 623 495 L 943 -10 Z M 369 373 L 325 307 L 244 630 L 304 630 Z" />
<glyph unicode="Ŷ" horiz-adv-x="964" d="M 362 820 L 532 870 L 702 820 L 702 930 L 532 980 L 362 930 Z M 934 750 L 787 750 L 581 405 L 374 750 L 30 750 L 332 250 L 332 0 L 632 0 L 632 250 Z M 512 293 L 512 120 L 452 120 L 452 277 L 240 630 L 309 630 Z" />
<glyph unicode="ŷ" horiz-adv-x="964" d="M 362 820 L 532 870 L 702 820 L 702 930 L 532 980 L 362 930 Z M 934 750 L 787 750 L 581 405 L 374 750 L 30 750 L 332 250 L 332 0 L 632 0 L 632 250 Z M 512 293 L 512 120 L 452 120 L 452 277 L 240 630 L 309 630 Z" />
<glyph unicode="Ÿ" horiz-adv-x="964" d="M 417 825 C 466 825 506 862 506 911 C 506 961 466 997 417 997 C 367 997 329 961 329 911 C 329 862 367 825 417 825 Z M 646 825 C 695 825 735 862 735 911 C 735 961 695 997 646 997 C 596 997 558 961 558 911 C 558 862 596 825 646 825 Z M 934 750 L 787 750 L 581 405 L 374 750 L 30 750 L 332 250 L 332 0 L 632 0 L 632 250 Z M 512 293 L 512 120 L 452 120 L 452 277 L 240 630 L 309 630 Z" />
<glyph unicode="Ź" horiz-adv-x="953" d="M 317 820 L 637 870 L 637 980 L 317 930 Z M 148 630 L 438 630 L 100 0 L 843 0 L 843 120 L 503 120 L 841 750 L 148 750 Z M 641 630 L 367 120 L 299 120 L 573 630 Z" />
<glyph unicode="ź" horiz-adv-x="953" d="M 317 820 L 637 870 L 637 980 L 317 930 Z M 148 630 L 438 630 L 100 0 L 843 0 L 843 120 L 503 120 L 841 750 L 148 750 Z M 641 630 L 367 120 L 299 120 L 573 630 Z" />
<glyph unicode="Ż" horiz-adv-x="953" d="M 467 825 C 516 825 556 862 556 911 C 556 961 516 997 467 997 C 417 997 379 961 379 911 C 379 862 417 825 467 825 Z M 148 630 L 438 630 L 100 0 L 843 0 L 843 120 L 503 120 L 841 750 L 148 750 Z M 641 630 L 367 120 L 299 120 L 573 630 Z" />
<glyph unicode="ż" horiz-adv-x="953" d="M 467 825 C 516 825 556 862 556 911 C 556 961 516 997 467 997 C 417 997 379 961 379 911 C 379 862 417 825 467 825 Z M 148 630 L 438 630 L 100 0 L 843 0 L 843 120 L 503 120 L 841 750 L 148 750 Z M 641 630 L 367 120 L 299 120 L 573 630 Z" />
<glyph unicode="Ž" horiz-adv-x="953" d="M 637 980 L 467 930 L 297 980 L 297 870 L 467 820 L 637 870 Z M 148 630 L 438 630 L 100 0 L 843 0 L 843 120 L 503 120 L 841 750 L 148 750 Z M 641 630 L 367 120 L 299 120 L 573 630 Z" />
<glyph unicode="ž" horiz-adv-x="953" d="M 637 980 L 467 930 L 297 980 L 297 870 L 467 820 L 637 870 Z M 148 630 L 438 630 L 100 0 L 843 0 L 843 120 L 503 120 L 841 750 L 148 750 Z M 641 630 L 367 120 L 299 120 L 573 630 Z" />
<glyph unicode="ƒ" horiz-adv-x="954" d="M 810 313 L 810 433 L 627 433 L 627 638 C 649 646 673 649 700 649 C 749 649 792 638 832 617 L 874 733 C 820 753 763 769 700 769 C 488 769 342 631 328 433 L 160 433 L 160 313 L 327 313 L 327 116 C 305 108 281 105 254 105 C 205 105 162 116 122 137 L 80 21 C 134 1 191 -15 254 -15 C 463 -15 608 119 625 313 Z M 507 578 L 507 353 C 507 273 481 205 447 176 L 447 401 C 447 481 473 549 507 578 Z" />
<glyph unicode="Ơ" horiz-adv-x="1047" d="M 927 376 C 927 498 875 602 791 672 L 867 672 L 907 870 L 783 870 L 749 702 C 683 743 602 766 513 766 C 276 766 100 603 100 376 C 100 149 276 -14 513 -14 C 750 -14 927 149 927 376 Z M 513 646 C 680 646 797 538 797 376 C 797 214 680 106 513 106 C 472 106 434 112 400 123 L 400 629 C 434 640 472 646 513 646 Z M 219 376 C 219 445 241 505 280 550 L 280 202 C 241 247 219 307 219 376 Z" />
<glyph unicode="ơ" horiz-adv-x="1047" d="M 927 376 C 927 498 875 602 791 672 L 867 672 L 907 870 L 783 870 L 749 702 C 683 743 602 766 513 766 C 276 766 100 603 100 376 C 100 149 276 -14 513 -14 C 750 -14 927 149 927 376 Z M 513 646 C 680 646 797 538 797 376 C 797 214 680 106 513 106 C 472 106 434 112 400 123 L 400 629 C 434 640 472 646 513 646 Z M 219 376 C 219 445 241 505 280 550 L 280 202 C 241 247 219 307 219 376 Z" />
<glyph unicode="Ư" horiz-adv-x="1012" d="M 872 345 L 872 672 L 952 672 L 992 870 L 868 870 L 844 750 L 742 750 L 742 345 C 742 196 652 97 505 97 C 476 97 450 103 426 112 L 426 750 L 130 750 L 130 345 C 130 130 280 -23 505 -23 C 724 -23 872 130 872 345 Z M 250 345 L 250 630 L 306 630 L 306 168 C 274 197 250 265 250 345 Z" />
<glyph unicode="ư" horiz-adv-x="1012" d="M 872 345 L 872 672 L 952 672 L 992 870 L 868 870 L 844 750 L 742 750 L 742 345 C 742 196 652 97 505 97 C 476 97 450 103 426 112 L 426 750 L 130 750 L 130 345 C 130 130 280 -23 505 -23 C 724 -23 872 130 872 345 Z M 250 345 L 250 630 L 306 630 L 306 168 C 274 197 250 265 250 345 Z" />
<glyph unicode="Ǎ" horiz-adv-x="1004" d="M 672 980 L 502 930 L 332 980 L 332 870 L 502 820 L 672 870 Z M 631 0 L 974 0 L 502 762 L 30 0 L 177 0 L 220 70 L 588 70 Z M 472 477 L 506 533 L 763 120 L 694 120 Z M 294 190 L 404 368 L 514 190 Z" />
<glyph unicode="ǎ" horiz-adv-x="1004" d="M 672 980 L 502 930 L 332 980 L 332 870 L 502 820 L 672 870 Z M 631 0 L 974 0 L 502 762 L 30 0 L 177 0 L 220 70 L 588 70 Z M 472 477 L 506 533 L 763 120 L 694 120 Z M 294 190 L 404 368 L 514 190 Z" />
<glyph unicode="Ǐ" horiz-adv-x="620" d="M 480 980 L 310 930 L 140 980 L 140 870 L 310 820 L 480 870 Z M 150 0 L 470 0 L 470 750 L 150 750 Z M 340 630 L 340 120 L 280 120 L 280 630 Z" />
<glyph unicode="ǐ" horiz-adv-x="620" d="M 480 980 L 310 930 L 140 980 L 140 870 L 310 820 L 480 870 Z M 150 0 L 470 0 L 470 750 L 150 750 Z M 340 630 L 340 120 L 280 120 L 280 630 Z" />
<glyph unicode="Ǒ" horiz-adv-x="1027" d="M 684 980 L 514 930 L 344 980 L 344 870 L 514 820 L 684 870 Z M 513 -14 C 750 -14 927 149 927 376 C 927 603 750 766 513 766 C 276 766 100 603 100 376 C 100 149 276 -14 513 -14 Z M 513 646 C 680 646 797 538 797 376 C 797 214 680 106 513 106 C 472 106 434 112 400 123 L 400 629 C 434 640 472 646 513 646 Z M 219 376 C 219 445 241 505 280 550 L 280 202 C 241 247 219 307 219 376 Z" />
<glyph unicode="ǒ" horiz-adv-x="1027" d="M 684 980 L 514 930 L 344 980 L 344 870 L 514 820 L 684 870 Z M 513 -14 C 750 -14 927 149 927 376 C 927 603 750 766 513 766 C 276 766 100 603 100 376 C 100 149 276 -14 513 -14 Z M 513 646 C 680 646 797 538 797 376 C 797 214 680 106 513 106 C 472 106 434 112 400 123 L 400 629 C 434 640 472 646 513 646 Z M 219 376 C 219 445 241 505 280 550 L 280 202 C 241 247 219 307 219 376 Z" />
<glyph unicode="Ǔ" horiz-adv-x="1002" d="M 691 980 L 521 930 L 351 980 L 351 870 L 521 820 L 691 870 Z M 505 -23 C 724 -23 872 130 872 345 L 872 750 L 742 750 L 742 345 C 742 196 652 97 505 97 C 476 97 450 103 426 112 L 426 750 L 130 750 L 130 345 C 130 130 280 -23 505 -23 Z M 250 345 L 250 630 L 306 630 L 306 168 C 274 197 250 265 250 345 Z" />
<glyph unicode="ǔ" horiz-adv-x="1002" d="M 691 980 L 521 930 L 351 980 L 351 870 L 521 820 L 691 870 Z M 505 -23 C 724 -23 872 130 872 345 L 872 750 L 742 750 L 742 345 C 742 196 652 97 505 97 C 476 97 450 103 426 112 L 426 750 L 130 750 L 130 345 C 130 130 280 -23 505 -23 Z M 250 345 L 250 630 L 306 630 L 306 168 C 274 197 250 265 250 345 Z" />
<glyph unicode="Ǖ" horiz-adv-x="1002" d="M 351 1030 L 691 1030 L 691 1140 L 351 1140 Z M 406 805 C 455 805 495 842 495 891 C 495 941 455 977 406 977 C 356 977 318 941 318 891 C 318 842 356 805 406 805 Z M 635 805 C 684 805 724 842 724 891 C 724 941 684 977 635 977 C 585 977 547 941 547 891 C 547 842 585 805 635 805 Z M 505 -23 C 724 -23 872 130 872 345 L 872 750 L 742 750 L 742 345 C 742 196 652 97 505 97 C 476 97 450 103 426 112 L 426 750 L 130 750 L 130 345 C 130 130 280 -23 505 -23 Z M 250 345 L 250 630 L 306 630 L 306 168 C 274 197 250 265 250 345 Z" />
<glyph unicode="ǖ" horiz-adv-x="1002" d="M 351 1030 L 691 1030 L 691 1140 L 351 1140 Z M 406 805 C 455 805 495 842 495 891 C 495 941 455 977 406 977 C 356 977 318 941 318 891 C 318 842 356 805 406 805 Z M 635 805 C 684 805 724 842 724 891 C 724 941 684 977 635 977 C 585 977 547 941 547 891 C 547 842 585 805 635 805 Z M 505 -23 C 724 -23 872 130 872 345 L 872 750 L 742 750 L 742 345 C 742 196 652 97 505 97 C 476 97 450 103 426 112 L 426 750 L 130 750 L 130 345 C 130 130 280 -23 505 -23 Z M 250 345 L 250 630 L 306 630 L 306 168 C 274 197 250 265 250 345 Z" />
<glyph unicode="Ǘ" horiz-adv-x="1002" d="M 371 1010 L 691 1060 L 691 1170 L 371 1120 Z M 406 805 C 455 805 495 842 495 891 C 495 941 455 977 406 977 C 356 977 318 941 318 891 C 318 842 356 805 406 805 Z M 635 805 C 684 805 724 842 724 891 C 724 941 684 977 635 977 C 585 977 547 941 547 891 C 547 842 585 805 635 805 Z M 505 -23 C 724 -23 872 130 872 345 L 872 750 L 742 750 L 742 345 C 742 196 652 97 505 97 C 476 97 450 103 426 112 L 426 750 L 130 750 L 130 345 C 130 130 280 -23 505 -23 Z M 250 345 L 250 630 L 306 630 L 306 168 C 274 197 250 265 250 345 Z" />
<glyph unicode="ǘ" horiz-adv-x="1002" d="M 371 1010 L 691 1060 L 691 1170 L 371 1120 Z M 406 805 C 455 805 495 842 495 891 C 495 941 455 977 406 977 C 356 977 318 941 318 891 C 318 842 356 805 406 805 Z M 635 805 C 684 805 724 842 724 891 C 724 941 684 977 635 977 C 585 977 547 941 547 891 C 547 842 585 805 635 805 Z M 505 -23 C 724 -23 872 130 872 345 L 872 750 L 742 750 L 742 345 C 742 196 652 97 505 97 C 476 97 450 103 426 112 L 426 750 L 130 750 L 130 345 C 130 130 280 -23 505 -23 Z M 250 345 L 250 630 L 306 630 L 306 168 C 274 197 250 265 250 345 Z" />
<glyph unicode="Ǚ" horiz-adv-x="1002" d="M 691 1160 L 521 1110 L 351 1160 L 351 1050 L 521 1000 L 691 1050 Z M 406 805 C 455 805 495 842 495 891 C 495 941 455 977 406 977 C 356 977 318 941 318 891 C 318 842 356 805 406 805 Z M 635 805 C 684 805 724 842 724 891 C 724 941 684 977 635 977 C 585 977 547 941 547 891 C 547 842 585 805 635 805 Z M 505 -23 C 724 -23 872 130 872 345 L 872 750 L 742 750 L 742 345 C 742 196 652 97 505 97 C 476 97 450 103 426 112 L 426 750 L 130 750 L 130 345 C 130 130 280 -23 505 -23 Z M 250 345 L 250 630 L 306 630 L 306 168 C 274 197 250 265 250 345 Z" />
<glyph unicode="ǚ" horiz-adv-x="1002" d="M 691 1160 L 521 1110 L 351 1160 L 351 1050 L 521 1000 L 691 1050 Z M 406 805 C 455 805 495 842 495 891 C 495 941 455 977 406 977 C 356 977 318 941 318 891 C 318 842 356 805 406 805 Z M 635 805 C 684 805 724 842 724 891 C 724 941 684 977 635 977 C 585 977 547 941 547 891 C 547 842 585 805 635 805 Z M 505 -23 C 724 -23 872 130 872 345 L 872 750 L 742 750 L 742 345 C 742 196 652 97 505 97 C 476 97 450 103 426 112 L 426 750 L 130 750 L 130 345 C 130 130 280 -23 505 -23 Z M 250 345 L 250 630 L 306 630 L 306 168 C 274 197 250 265 250 345 Z" />
<glyph unicode="Ǜ" horiz-adv-x="1002" d="M 671 1000 L 671 1110 L 351 1160 L 351 1050 Z M 406 805 C 455 805 495 842 495 891 C 495 941 455 977 406 977 C 356 977 318 941 318 891 C 318 842 356 805 406 805 Z M 635 805 C 684 805 724 842 724 891 C 724 941 684 977 635 977 C 585 977 547 941 547 891 C 547 842 585 805 635 805 Z M 505 -23 C 724 -23 872 130 872 345 L 872 750 L 742 750 L 742 345 C 742 196 652 97 505 97 C 476 97 450 103 426 112 L 426 750 L 130 750 L 130 345 C 130 130 280 -23 505 -23 Z M 250 345 L 250 630 L 306 630 L 306 168 C 274 197 250 265 250 345 Z" />
<glyph unicode="ǜ" horiz-adv-x="1002" d="M 671 1000 L 671 1110 L 351 1160 L 351 1050 Z M 406 805 C 455 805 495 842 495 891 C 495 941 455 977 406 977 C 356 977 318 941 318 891 C 318 842 356 805 406 805 Z M 635 805 C 684 805 724 842 724 891 C 724 941 684 977 635 977 C 585 977 547 941 547 891 C 547 842 585 805 635 805 Z M 505 -23 C 724 -23 872 130 872 345 L 872 750 L 742 750 L 742 345 C 742 196 652 97 505 97 C 476 97 450 103 426 112 L 426 750 L 130 750 L 130 345 C 130 130 280 -23 505 -23 Z M 250 345 L 250 630 L 306 630 L 306 168 C 274 197 250 265 250 345 Z" />
<glyph unicode="Ǧ" horiz-adv-x="978" d="M 664 980 L 494 930 L 324 980 L 324 870 L 494 820 L 664 870 Z M 878 180 L 878 454 L 748 454 L 748 213 C 703 150 612 105 513 105 C 472 105 434 111 400 122 L 400 628 C 434 639 472 645 513 645 C 573 645 636 628 674 607 L 711 723 C 659 746 586 765 513 765 C 276 765 100 602 100 375 C 100 148 276 -15 513 -15 C 664 -14 811 66 878 180 Z M 220 375 C 220 445 242 504 280 549 L 280 201 C 242 246 220 305 220 375 Z" />
<glyph unicode="ǧ" horiz-adv-x="978" d="M 664 980 L 494 930 L 324 980 L 324 870 L 494 820 L 664 870 Z M 878 180 L 878 454 L 748 454 L 748 213 C 703 150 612 105 513 105 C 472 105 434 111 400 122 L 400 628 C 434 639 472 645 513 645 C 573 645 636 628 674 607 L 711 723 C 659 746 586 765 513 765 C 276 765 100 602 100 375 C 100 148 276 -15 513 -15 C 664 -14 811 66 878 180 Z M 220 375 C 220 445 242 504 280 549 L 280 201 C 242 246 220 305 220 375 Z" />
<glyph unicode="Ș" horiz-adv-x="887" d="M 787 254 C 787 354 739 448 572 496 L 262 586 C 292 622 349 645 429 645 C 509 645 606 618 676 571 L 714 693 C 641 737 536 765 428 765 C 256 765 122 666 122 506 C 122 400 174 301 348 251 L 643 167 C 608 129 543 106 452 106 C 342 106 209 148 145 217 L 100 95 C 174 29 317 -14 447 -14 C 644 -14 787 88 787 254 Z M 374 367 C 304 387 263 423 246 466 L 540 382 C 626 357 658 321 668 282 Z M 373 -314 L 458 -314 L 504 -249 C 519 -228 531 -202 531 -173 C 531 -124 493 -87 442 -87 C 390 -87 352 -124 352 -173 C 352 -213 377 -244 416 -255 Z" />
<glyph unicode="ș" horiz-adv-x="887" d="M 787 254 C 787 354 739 448 572 496 L 262 586 C 292 622 349 645 429 645 C 509 645 606 618 676 571 L 714 693 C 641 737 536 765 428 765 C 256 765 122 666 122 506 C 122 400 174 301 348 251 L 643 167 C 608 129 543 106 452 106 C 342 106 209 148 145 217 L 100 95 C 174 29 317 -14 447 -14 C 644 -14 787 88 787 254 Z M 374 367 C 304 387 263 423 246 466 L 540 382 C 626 357 658 321 668 282 Z M 373 -314 L 458 -314 L 504 -249 C 519 -228 531 -202 531 -173 C 531 -124 493 -87 442 -87 C 390 -87 352 -124 352 -173 C 352 -213 377 -244 416 -255 Z" />
<glyph unicode="Ț" horiz-adv-x="864" d="M 70 630 L 282 630 L 282 0 L 582 0 L 582 630 L 794 630 L 794 750 L 70 750 Z M 462 630 L 462 120 L 402 120 L 402 630 Z M 363 -314 L 448 -314 L 494 -249 C 509 -228 521 -202 521 -173 C 521 -124 483 -87 432 -87 C 380 -87 342 -124 342 -173 C 342 -213 367 -244 406 -255 Z" />
<glyph unicode="ț" horiz-adv-x="864" d="M 70 630 L 282 630 L 282 0 L 582 0 L 582 630 L 794 630 L 794 750 L 70 750 Z M 462 630 L 462 120 L 402 120 L 402 630 Z M 363 -314 L 448 -314 L 494 -249 C 509 -228 521 -202 521 -173 C 521 -124 483 -87 432 -87 C 380 -87 342 -124 342 -173 C 342 -213 367 -244 406 -255 Z" />
<glyph unicode="ʻ" horiz-adv-x="391" d="M 290 750 L 174 750 L 114 646 C 97 617 80 585 80 547 C 80 485 128 436 195 436 C 263 436 311 484 311 544 C 311 595 279 633 228 647 Z" />
<glyph unicode="ʼ" horiz-adv-x="391" d="M 101 451 L 217 451 L 277 555 C 294 584 311 616 311 654 C 311 716 263 765 196 765 C 128 765 80 717 80 657 C 80 606 112 568 163 554 Z" />
<glyph unicode="ˆ" horiz-adv-x="500" d="M 80 820 L 250 870 L 420 820 L 420 930 L 250 980 L 80 930 Z" />
<glyph unicode="ˇ" horiz-adv-x="500" d="M 420 980 L 250 930 L 80 980 L 80 870 L 250 820 L 420 870 Z" />
<glyph unicode="ˉ" horiz-adv-x="500" d="M 80 850 L 420 850 L 420 960 L 80 960 Z" />
<glyph unicode="˘" horiz-adv-x="500" d="M 320 989 C 320 949 296 920 250 920 C 204 920 180 949 180 989 L 70 989 C 70 897 142 820 250 820 C 358 820 430 898 430 989 Z" />
<glyph unicode="˙" horiz-adv-x="500" d="M 250 825 C 299 825 339 862 339 911 C 339 961 299 997 250 997 C 200 997 162 961 162 911 C 162 862 200 825 250 825 Z" />
<glyph unicode="˚" horiz-adv-x="500" d="M 393 941 C 393 1020 330 1078 250 1078 C 169 1078 107 1020 107 941 C 107 862 169 803 250 803 C 330 803 393 862 393 941 Z M 250 995 C 284 995 307 973 307 941 C 307 908 284 885 250 885 Z" />
<glyph unicode="˛" horiz-adv-x="500" d="M 402 -82 L 291 -82 L 308 0 L 185 0 L 145 -192 L 402 -192 Z" />
<glyph unicode="˜" horiz-adv-x="500" d="M 420 972 C 396 950 358 944 320 947 C 274 950 227 970 180 973 C 142 976 104 970 80 949 L 80 839 C 104 860 142 866 180 863 C 227 860 274 840 320 837 C 358 834 396 840 420 862 Z" />
<glyph unicode="˝" horiz-adv-x="500" d="M 211 850 L 250 1019 L 130 1019 L 91 850 Z M 408 850 L 447 1019 L 327 1019 L 288 850 Z" />
<glyph unicode="̀" horiz-adv-x="0" d="M 150 820 L 150 930 L -170 980 L -170 870 Z" />
<glyph unicode="́" horiz-adv-x="0" d="M -150 820 L 170 870 L 170 980 L -150 930 Z" />
<glyph unicode="̂" horiz-adv-x="0" d="M -170 820 L 0 870 L 170 820 L 170 930 L 0 980 L -170 930 Z" />
<glyph unicode="̃" horiz-adv-x="0" d="M 170 972 C 146 950 108 944 70 947 C 24 950 -23 970 -70 973 C -108 976 -146 970 -170 949 L -170 839 C -146 860 -108 866 -70 863 C -23 860 24 840 70 837 C 108 834 146 840 170 862 Z" />
<glyph unicode="̄" horiz-adv-x="0" d="M -170 850 L 170 850 L 170 960 L -170 960 Z" />
<glyph unicode="̆" horiz-adv-x="0" d="M 70 989 C 70 949 46 920 0 920 C -46 920 -70 949 -70 989 L -180 989 C -180 897 -108 820 0 820 C 108 820 180 898 180 989 Z" />
<glyph unicode="̇" horiz-adv-x="0" d="M 0 825 C 49 825 89 862 89 911 C 89 961 49 997 0 997 C -50 997 -88 961 -88 911 C -88 862 -50 825 0 825 Z" />
<glyph unicode="̈" horiz-adv-x="0" d="M -115 825 C -66 825 -26 862 -26 911 C -26 961 -66 997 -115 997 C -165 997 -203 961 -203 911 C -203 862 -165 825 -115 825 Z M 114 825 C 163 825 203 862 203 911 C 203 961 163 997 114 997 C 64 997 26 961 26 911 C 26 862 64 825 114 825 Z" />
<glyph unicode="̊" horiz-adv-x="0" d="M 143 941 C 143 1020 80 1078 0 1078 C -81 1078 -143 1020 -143 941 C -143 862 -81 803 0 803 C 80 803 143 862 143 941 Z M 0 995 C 34 995 57 973 57 941 C 57 908 34 885 0 885 Z" />
<glyph unicode="̋" horiz-adv-x="0" d="M -39 850 L 0 1019 L -120 1019 L -159 850 Z M 158 850 L 197 1019 L 77 1019 L 38 850 Z" />
<glyph unicode="̌" horiz-adv-x="0" d="M 170 980 L 0 930 L -170 980 L -170 870 L 0 820 L 170 870 Z" />
<glyph unicode="̒" horiz-adv-x="0" d="M 68 1052 L -17 1052 L -63 987 C -78 966 -90 940 -90 911 C -90 862 -52 825 -1 825 C 51 825 89 862 89 911 C 89 951 64 982 25 993 Z" />
<glyph unicode="̛" horiz-adv-x="0" d="M -62 672 L 62 672 L 102 870 L -22 870 Z" />
<glyph unicode="̣" horiz-adv-x="0" d="M 0 -258 C 49 -258 89 -221 89 -172 C 89 -122 49 -86 0 -86 C -50 -86 -88 -122 -88 -172 C -88 -221 -50 -258 0 -258 Z" />
<glyph unicode="̦" horiz-adv-x="0" d="M -69 -314 L 16 -314 L 62 -249 C 77 -228 89 -202 89 -173 C 89 -124 51 -87 0 -87 C -52 -87 -90 -124 -90 -173 C -90 -213 -65 -244 -26 -255 Z" />
<glyph unicode="̧" horiz-adv-x="0" d="M 65 0 L -58 0 L -41 -82 L -152 -82 L -152 -192 L 105 -192 Z" />
<glyph unicode="̨" horiz-adv-x="0" d="M 152 -82 L 41 -82 L 58 0 L -65 0 L -105 -192 L 152 -192 Z" />
<glyph unicode="̮" horiz-adv-x="0" d="M 70 -90 C 70 -130 46 -159 0 -159 C -46 -159 -70 -130 -70 -90 L -180 -90 C -180 -182 -108 -259 0 -259 C 108 -259 180 -181 180 -90 Z" />
<glyph unicode="Ά" horiz-adv-x="1054" d="M 681 0 L 1024 0 L 552 762 L 80 0 L 227 0 L 270 70 L 638 70 Z M 118 472 L 242 472 L 242 750 L 118 750 Z M 522 477 L 556 533 L 813 120 L 744 120 Z M 344 190 L 454 368 L 564 190 Z" />
<glyph unicode="·" horiz-adv-x="391" d="M 196 239 C 261 239 311 287 311 352 C 311 416 261 462 196 462 C 130 462 80 416 80 352 C 80 287 130 239 196 239 Z" />
<glyph unicode="Έ" horiz-adv-x="1030" d="M 250 0 L 930 0 L 930 120 L 550 120 L 550 273 L 760 273 L 760 393 L 550 393 L 550 630 L 930 630 L 930 750 L 250 750 Z M 6 472 L 130 472 L 130 750 L 6 750 Z M 430 630 L 430 120 L 370 120 L 370 630 Z" />
<glyph unicode="Ή" horiz-adv-x="1130" d="M 850 0 L 980 0 L 980 750 L 850 750 L 850 335 L 550 335 L 550 750 L 250 750 L 250 0 L 550 0 L 550 215 L 850 215 Z M 6 472 L 130 472 L 130 750 L 6 750 Z M 430 630 L 430 120 L 370 120 L 370 630 Z" />
<glyph unicode="Ί" horiz-adv-x="730" d="M 260 0 L 580 0 L 580 750 L 260 750 Z M 16 472 L 140 472 L 140 750 L 16 750 Z M 450 630 L 450 120 L 390 120 L 390 630 Z" />
<glyph unicode="Ό" horiz-adv-x="1177" d="M 663 -14 C 900 -14 1077 149 1077 376 C 1077 603 900 766 663 766 C 426 766 250 603 250 376 C 250 149 426 -14 663 -14 Z M 38 472 L 162 472 L 162 750 L 38 750 Z M 663 646 C 830 646 947 538 947 376 C 947 214 830 106 663 106 C 622 106 584 112 550 123 L 550 629 C 584 640 622 646 663 646 Z M 369 376 C 369 445 391 505 430 550 L 430 202 C 391 247 369 307 369 376 Z" />
<glyph unicode="Ύ" horiz-adv-x="1114" d="M 1084 750 L 937 750 L 731 405 L 524 750 L 180 750 L 482 250 L 482 0 L 782 0 L 782 250 Z M 40 472 L 164 472 L 164 750 L 40 750 Z M 662 293 L 662 120 L 602 120 L 602 277 L 390 630 L 459 630 Z" />
<glyph unicode="Ώ" horiz-adv-x="1157" d="M 643 646 C 797 646 907 542 907 386 C 907 244 825 137 696 100 L 696 0 L 1046 0 L 1046 120 L 913 120 C 990 187 1036 279 1036 386 C 1036 607 869 766 643 766 C 417 766 250 607 250 386 C 250 279 296 187 373 120 L 240 120 L 240 0 L 590 0 L 590 100 C 576 104 563 109 550 114 L 550 632 C 579 641 610 646 643 646 Z M 38 472 L 162 472 L 162 750 L 38 750 Z M 369 386 C 369 454 392 512 430 556 L 430 203 C 391 252 369 314 369 386 Z" />
<glyph unicode="ΐ" horiz-adv-x="620" d="M 205 825 C 254 825 294 862 294 911 C 294 961 254 997 205 997 C 155 997 117 961 117 911 C 117 862 155 825 205 825 Z M 414 825 C 463 825 503 862 503 911 C 503 961 463 997 414 997 C 364 997 326 961 326 911 C 326 862 364 825 414 825 Z M 150 0 L 470 0 L 470 750 L 150 750 Z M 340 630 L 340 120 L 280 120 L 280 630 Z" />
<glyph unicode="Α" horiz-adv-x="1004" d="M 631 0 L 974 0 L 502 762 L 30 0 L 177 0 L 220 70 L 588 70 Z M 472 477 L 506 533 L 763 120 L 694 120 Z M 294 190 L 404 368 L 514 190 Z" />
<glyph unicode="Β" horiz-adv-x="947" d="M 150 0 L 583 0 C 729 0 847 93 847 235 C 847 329 792 399 712 434 C 738 466 753 505 753 550 C 753 666 659 750 543 750 L 150 750 Z M 543 630 C 589 630 632 599 632 550 C 632 501 589 470 543 470 L 450 470 L 450 630 Z M 330 120 L 270 120 L 270 630 L 330 630 Z M 583 120 L 450 120 L 450 350 L 583 350 C 656 350 717 317 717 235 C 717 153 656 120 583 120 Z" />
<glyph unicode="Γ" horiz-adv-x="892" d="M 150 0 L 450 0 L 450 630 L 822 630 L 822 750 L 150 750 Z M 330 630 L 330 120 L 270 120 L 270 630 Z" />
<glyph unicode="Δ" horiz-adv-x="1004" d="M 502 762 L 30 0 L 974 0 Z M 472 477 L 506 533 L 783 88 L 714 88 Z M 251 120 L 404 368 L 557 120 Z" />
<glyph unicode="Ε" horiz-adv-x="930" d="M 150 0 L 830 0 L 830 120 L 450 120 L 450 273 L 660 273 L 660 393 L 450 393 L 450 630 L 830 630 L 830 750 L 150 750 Z M 330 630 L 330 120 L 270 120 L 270 630 Z" />
<glyph unicode="Ζ" horiz-adv-x="953" d="M 148 630 L 438 630 L 100 0 L 843 0 L 843 120 L 503 120 L 841 750 L 148 750 Z M 641 630 L 367 120 L 299 120 L 573 630 Z" />
<glyph unicode="Η" horiz-adv-x="1030" d="M 750 0 L 880 0 L 880 750 L 750 750 L 750 335 L 450 335 L 450 750 L 150 750 L 150 0 L 450 0 L 450 215 L 750 215 Z M 330 630 L 330 120 L 270 120 L 270 630 Z" />
<glyph unicode="Θ" horiz-adv-x="1027" d="M 513 -14 C 750 -14 927 149 927 376 C 927 603 750 766 513 766 C 276 766 100 603 100 376 C 100 149 276 -14 513 -14 Z M 513 646 C 680 646 797 538 797 376 C 797 214 680 106 513 106 C 472 106 434 112 400 123 L 400 629 C 434 640 472 646 513 646 Z M 219 376 C 219 445 241 505 280 550 L 280 202 C 241 247 219 307 219 376 Z M 460 315 L 692 315 L 692 435 L 460 435 Z" />
<glyph unicode="Ι" horiz-adv-x="620" d="M 150 0 L 470 0 L 470 750 L 150 750 Z M 340 630 L 340 120 L 280 120 L 280 630 Z" />
<glyph unicode="Κ" horiz-adv-x="980" d="M 779 0 L 936 0 L 651 412 L 905 750 L 755 750 L 450 345 L 450 750 L 150 750 L 150 0 L 450 0 L 450 146 L 568 303 Z M 330 630 L 330 120 L 270 120 L 270 630 Z" />
<glyph unicode="Λ" horiz-adv-x="1004" d="M 631 0 L 974 0 L 502 762 L 30 0 L 177 0 L 404 368 Z M 472 477 L 506 533 L 763 120 L 694 120 Z" />
<glyph unicode="Μ" horiz-adv-x="1224" d="M 987 0 L 1133 0 L 943 760 L 623 255 L 280 760 L 90 0 L 393 0 L 455 250 L 626 -2 L 883 418 Z M 369 377 L 304 120 L 244 120 L 325 443 Z" />
<glyph unicode="Ν" horiz-adv-x="985" d="M 835 750 L 695 750 L 695 290 L 150 775 L 150 0 L 450 0 L 450 323 L 835 -25 Z M 330 420 L 330 120 L 270 120 L 270 473 Z" />
<glyph unicode="Ξ" horiz-adv-x="960" d="M 100 630 L 330 630 L 330 393 L 190 393 L 190 273 L 330 273 L 330 120 L 100 120 L 100 0 L 860 0 L 860 120 L 630 120 L 630 273 L 770 273 L 770 393 L 630 393 L 630 630 L 860 630 L 860 750 L 100 750 Z M 510 630 L 510 120 L 450 120 L 450 630 Z" />
<glyph unicode="Ο" horiz-adv-x="1027" d="M 513 -14 C 750 -14 927 149 927 376 C 927 603 750 766 513 766 C 276 766 100 603 100 376 C 100 149 276 -14 513 -14 Z M 513 646 C 680 646 797 538 797 376 C 797 214 680 106 513 106 C 472 106 434 112 400 123 L 400 629 C 434 640 472 646 513 646 Z M 219 376 C 219 445 241 505 280 550 L 280 202 C 241 247 219 307 219 376 Z" />
<glyph unicode="Π" horiz-adv-x="1030" d="M 150 0 L 450 0 L 450 630 L 750 630 L 750 0 L 880 0 L 880 750 L 150 750 Z M 330 630 L 330 120 L 270 120 L 270 630 Z" />
<glyph unicode="Ρ" horiz-adv-x="947" d="M 150 0 L 450 0 L 450 160 L 523 160 C 701 160 847 282 847 455 C 847 627 701 750 523 750 L 150 750 Z M 523 630 C 630 630 717 570 717 455 C 717 340 630 280 523 280 L 450 280 L 450 630 Z M 330 630 L 330 120 L 270 120 L 270 630 Z" />
<glyph unicode="Σ" horiz-adv-x="877" d="M 777 120 L 356 120 L 658 402 L 499 630 L 777 630 L 777 750 L 50 750 L 367 296 L 50 0 L 777 0 Z M 455 378 L 280 630 L 353 630 L 499 420 Z" />
<glyph unicode="Τ" horiz-adv-x="864" d="M 70 630 L 282 630 L 282 0 L 582 0 L 582 630 L 794 630 L 794 750 L 70 750 Z M 462 630 L 462 120 L 402 120 L 402 630 Z" />
<glyph unicode="Υ" horiz-adv-x="964" d="M 934 750 L 787 750 L 581 405 L 374 750 L 30 750 L 332 250 L 332 0 L 632 0 L 632 250 Z M 512 293 L 512 120 L 452 120 L 452 277 L 240 630 L 309 630 Z" />
<glyph unicode="Φ" horiz-adv-x="1114" d="M 707 750 L 407 750 L 407 670 L 404 670 C 237 670 100 547 100 375 C 100 202 237 80 404 80 L 407 80 L 407 0 L 707 0 L 707 80 L 710 80 C 877 80 1014 202 1014 375 C 1014 547 877 670 710 670 L 707 670 Z M 587 630 L 587 120 L 527 120 L 527 630 Z M 407 200 L 404 200 C 308 200 230 260 230 375 C 230 490 308 550 404 550 L 407 550 Z M 710 550 C 806 550 884 490 884 375 C 884 260 806 200 710 200 L 707 200 L 707 550 Z" />
<glyph unicode="Χ" horiz-adv-x="971" d="M 556 0 L 911 0 L 632 422 L 860 750 L 703 750 L 555 539 L 415 750 L 60 750 L 317 361 L 60 0 L 217 0 L 393 247 Z M 281 630 L 353 630 L 690 120 L 618 120 Z" />
<glyph unicode="Ψ" horiz-adv-x="1054" d="M 954 488 L 954 750 L 824 750 L 824 488 C 824 393 770 323 677 294 L 677 750 L 377 750 L 377 296 C 284 325 230 395 230 488 L 230 750 L 100 750 L 100 488 C 100 329 208 208 377 171 L 377 0 L 677 0 L 677 170 C 846 204 954 327 954 488 Z M 497 120 L 497 630 L 557 630 L 557 120 Z" />
<glyph unicode="Ω" horiz-adv-x="1027" d="M 513 646 C 667 646 777 542 777 386 C 777 244 695 137 566 100 L 566 0 L 916 0 L 916 120 L 783 120 C 860 187 906 279 906 386 C 906 607 739 766 513 766 C 287 766 120 607 120 386 C 120 279 166 187 243 120 L 110 120 L 110 0 L 460 0 L 460 100 C 446 104 433 109 420 114 L 420 632 C 449 641 480 646 513 646 Z M 239 386 C 239 454 262 512 300 556 L 300 203 C 261 252 239 314 239 386 Z" />
<glyph unicode="Ϊ" horiz-adv-x="620" d="M 205 825 C 254 825 294 862 294 911 C 294 961 254 997 205 997 C 155 997 117 961 117 911 C 117 862 155 825 205 825 Z M 414 825 C 463 825 503 862 503 911 C 503 961 463 997 414 997 C 364 997 326 961 326 911 C 326 862 364 825 414 825 Z M 150 0 L 470 0 L 470 750 L 150 750 Z M 340 630 L 340 120 L 280 120 L 280 630 Z" />
<glyph unicode="Ϋ" horiz-adv-x="964" d="M 417 825 C 466 825 506 862 506 911 C 506 961 466 997 417 997 C 367 997 329 961 329 911 C 329 862 367 825 417 825 Z M 646 825 C 695 825 735 862 735 911 C 735 961 695 997 646 997 C 596 997 558 961 558 911 C 558 862 596 825 646 825 Z M 934 750 L 787 750 L 581 405 L 374 750 L 30 750 L 332 250 L 332 0 L 632 0 L 632 250 Z M 512 293 L 512 120 L 452 120 L 452 277 L 240 630 L 309 630 Z" />
<glyph unicode="ά" horiz-adv-x="1004" d="M 631 0 L 974 0 L 502 762 L 30 0 L 177 0 L 220 70 L 588 70 Z M 472 477 L 506 533 L 763 120 L 694 120 Z M 294 190 L 404 368 L 514 190 Z" />
<glyph unicode="έ" horiz-adv-x="930" d="M 150 0 L 830 0 L 830 120 L 450 120 L 450 273 L 660 273 L 660 393 L 450 393 L 450 630 L 830 630 L 830 750 L 150 750 Z M 330 630 L 330 120 L 270 120 L 270 630 Z" />
<glyph unicode="ή" horiz-adv-x="1030" d="M 750 0 L 880 0 L 880 750 L 750 750 L 750 335 L 450 335 L 450 750 L 150 750 L 150 0 L 450 0 L 450 215 L 750 215 Z M 330 630 L 330 120 L 270 120 L 270 630 Z" />
<glyph unicode="ί" horiz-adv-x="620" d="M 150 0 L 470 0 L 470 750 L 150 750 Z M 340 630 L 340 120 L 280 120 L 280 630 Z" />
<glyph unicode="ΰ" horiz-adv-x="964" d="M 417 825 C 466 825 506 862 506 911 C 506 961 466 997 417 997 C 367 997 329 961 329 911 C 329 862 367 825 417 825 Z M 646 825 C 695 825 735 862 735 911 C 735 961 695 997 646 997 C 596 997 558 961 558 911 C 558 862 596 825 646 825 Z M 934 750 L 787 750 L 581 405 L 374 750 L 30 750 L 332 250 L 332 0 L 632 0 L 632 250 Z M 512 293 L 512 120 L 452 120 L 452 277 L 240 630 L 309 630 Z" />
<glyph unicode="α" horiz-adv-x="1004" d="M 631 0 L 974 0 L 502 762 L 30 0 L 177 0 L 220 70 L 588 70 Z M 472 477 L 506 533 L 763 120 L 694 120 Z M 294 190 L 404 368 L 514 190 Z" />
<glyph unicode="β" horiz-adv-x="947" d="M 150 0 L 583 0 C 729 0 847 93 847 235 C 847 329 792 399 712 434 C 738 466 753 505 753 550 C 753 666 659 750 543 750 L 150 750 Z M 543 630 C 589 630 632 599 632 550 C 632 501 589 470 543 470 L 450 470 L 450 630 Z M 330 120 L 270 120 L 270 630 L 330 630 Z M 583 120 L 450 120 L 450 350 L 583 350 C 656 350 717 317 717 235 C 717 153 656 120 583 120 Z" />
<glyph unicode="γ" horiz-adv-x="892" d="M 150 0 L 450 0 L 450 630 L 822 630 L 822 750 L 150 750 Z M 330 630 L 330 120 L 270 120 L 270 630 Z" />
<glyph unicode="δ" horiz-adv-x="1004" d="M 502 762 L 30 0 L 974 0 Z M 472 477 L 506 533 L 783 88 L 714 88 Z M 251 120 L 404 368 L 557 120 Z" />
<glyph unicode="ε" horiz-adv-x="930" d="M 150 0 L 830 0 L 830 120 L 450 120 L 450 273 L 660 273 L 660 393 L 450 393 L 450 630 L 830 630 L 830 750 L 150 750 Z M 330 630 L 330 120 L 270 120 L 270 630 Z" />
<glyph unicode="ζ" horiz-adv-x="953" d="M 148 630 L 438 630 L 100 0 L 843 0 L 843 120 L 503 120 L 841 750 L 148 750 Z M 641 630 L 367 120 L 299 120 L 573 630 Z" />
<glyph unicode="η" horiz-adv-x="1030" d="M 750 0 L 880 0 L 880 750 L 750 750 L 750 335 L 450 335 L 450 750 L 150 750 L 150 0 L 450 0 L 450 215 L 750 215 Z M 330 630 L 330 120 L 270 120 L 270 630 Z" />
<glyph unicode="θ" horiz-adv-x="1027" d="M 513 -14 C 750 -14 927 149 927 376 C 927 603 750 766 513 766 C 276 766 100 603 100 376 C 100 149 276 -14 513 -14 Z M 513 646 C 680 646 797 538 797 376 C 797 214 680 106 513 106 C 472 106 434 112 400 123 L 400 629 C 434 640 472 646 513 646 Z M 219 376 C 219 445 241 505 280 550 L 280 202 C 241 247 219 307 219 376 Z M 460 315 L 692 315 L 692 435 L 460 435 Z" />
<glyph unicode="ι" horiz-adv-x="620" d="M 150 0 L 470 0 L 470 750 L 150 750 Z M 340 630 L 340 120 L 280 120 L 280 630 Z" />
<glyph unicode="κ" horiz-adv-x="980" d="M 779 0 L 936 0 L 651 412 L 905 750 L 755 750 L 450 345 L 450 750 L 150 750 L 150 0 L 450 0 L 450 146 L 568 303 Z M 330 630 L 330 120 L 270 120 L 270 630 Z" />
<glyph unicode="λ" horiz-adv-x="1004" d="M 631 0 L 974 0 L 502 762 L 30 0 L 177 0 L 404 368 Z M 472 477 L 506 533 L 763 120 L 694 120 Z" />
<glyph unicode="μ" horiz-adv-x="1224" d="M 987 0 L 1133 0 L 943 760 L 623 255 L 280 760 L 90 0 L 393 0 L 455 250 L 626 -2 L 883 418 Z M 369 377 L 304 120 L 244 120 L 325 443 Z" />
<glyph unicode="ν" horiz-adv-x="985" d="M 835 750 L 695 750 L 695 290 L 150 775 L 150 0 L 450 0 L 450 323 L 835 -25 Z M 330 420 L 330 120 L 270 120 L 270 473 Z" />
<glyph unicode="ξ" horiz-adv-x="960" d="M 100 630 L 330 630 L 330 393 L 190 393 L 190 273 L 330 273 L 330 120 L 100 120 L 100 0 L 860 0 L 860 120 L 630 120 L 630 273 L 770 273 L 770 393 L 630 393 L 630 630 L 860 630 L 860 750 L 100 750 Z M 510 630 L 510 120 L 450 120 L 450 630 Z" />
<glyph unicode="ο" horiz-adv-x="1027" d="M 513 -14 C 750 -14 927 149 927 376 C 927 603 750 766 513 766 C 276 766 100 603 100 376 C 100 149 276 -14 513 -14 Z M 513 646 C 680 646 797 538 797 376 C 797 214 680 106 513 106 C 472 106 434 112 400 123 L 400 629 C 434 640 472 646 513 646 Z M 219 376 C 219 445 241 505 280 550 L 280 202 C 241 247 219 307 219 376 Z" />
<glyph unicode="π" horiz-adv-x="1030" d="M 150 0 L 450 0 L 450 630 L 750 630 L 750 0 L 880 0 L 880 750 L 150 750 Z M 330 630 L 330 120 L 270 120 L 270 630 Z" />
<glyph unicode="ρ" horiz-adv-x="947" d="M 150 0 L 450 0 L 450 160 L 523 160 C 701 160 847 282 847 455 C 847 627 701 750 523 750 L 150 750 Z M 523 630 C 630 630 717 570 717 455 C 717 340 630 280 523 280 L 450 280 L 450 630 Z M 330 630 L 330 120 L 270 120 L 270 630 Z" />
<glyph unicode="ς" horiz-adv-x="877" d="M 777 120 L 356 120 L 658 402 L 499 630 L 777 630 L 777 750 L 50 750 L 367 296 L 50 0 L 777 0 Z M 455 378 L 280 630 L 353 630 L 499 420 Z" />
<glyph unicode="σ" horiz-adv-x="877" d="M 777 120 L 356 120 L 658 402 L 499 630 L 777 630 L 777 750 L 50 750 L 367 296 L 50 0 L 777 0 Z M 455 378 L 280 630 L 353 630 L 499 420 Z" />
<glyph unicode="τ" horiz-adv-x="864" d="M 70 630 L 282 630 L 282 0 L 582 0 L 582 630 L 794 630 L 794 750 L 70 750 Z M 462 630 L 462 120 L 402 120 L 402 630 Z" />
<glyph unicode="υ" horiz-adv-x="964" d="M 934 750 L 787 750 L 581 405 L 374 750 L 30 750 L 332 250 L 332 0 L 632 0 L 632 250 Z M 512 293 L 512 120 L 452 120 L 452 277 L 240 630 L 309 630 Z" />
<glyph unicode="φ" horiz-adv-x="1114" d="M 707 750 L 407 750 L 407 670 L 404 670 C 237 670 100 547 100 375 C 100 202 237 80 404 80 L 407 80 L 407 0 L 707 0 L 707 80 L 710 80 C 877 80 1014 202 1014 375 C 1014 547 877 670 710 670 L 707 670 Z M 587 630 L 587 120 L 527 120 L 527 630 Z M 407 200 L 404 200 C 308 200 230 260 230 375 C 230 490 308 550 404 550 L 407 550 Z M 710 550 C 806 550 884 490 884 375 C 884 260 806 200 710 200 L 707 200 L 707 550 Z" />
<glyph unicode="χ" horiz-adv-x="971" d="M 556 0 L 911 0 L 632 422 L 860 750 L 703 750 L 555 539 L 415 750 L 60 750 L 317 361 L 60 0 L 217 0 L 393 247 Z M 281 630 L 353 630 L 690 120 L 618 120 Z" />
<glyph unicode="ψ" horiz-adv-x="1054" d="M 954 488 L 954 750 L 824 750 L 824 488 C 824 393 770 323 677 294 L 677 750 L 377 750 L 377 296 C 284 325 230 395 230 488 L 230 750 L 100 750 L 100 488 C 100 329 208 208 377 171 L 377 0 L 677 0 L 677 170 C 846 204 954 327 954 488 Z M 497 120 L 497 630 L 557 630 L 557 120 Z" />
<glyph unicode="ω" horiz-adv-x="1027" d="M 513 646 C 667 646 777 542 777 386 C 777 244 695 137 566 100 L 566 0 L 916 0 L 916 120 L 783 120 C 860 187 906 279 906 386 C 906 607 739 766 513 766 C 287 766 120 607 120 386 C 120 279 166 187 243 120 L 110 120 L 110 0 L 460 0 L 460 100 C 446 104 433 109 420 114 L 420 632 C 449 641 480 646 513 646 Z M 239 386 C 239 454 262 512 300 556 L 300 203 C 261 252 239 314 239 386 Z" />
<glyph unicode="ϊ" horiz-adv-x="620" d="M 205 825 C 254 825 294 862 294 911 C 294 961 254 997 205 997 C 155 997 117 961 117 911 C 117 862 155 825 205 825 Z M 414 825 C 463 825 503 862 503 911 C 503 961 463 997 414 997 C 364 997 326 961 326 911 C 326 862 364 825 414 825 Z M 150 0 L 470 0 L 470 750 L 150 750 Z M 340 630 L 340 120 L 280 120 L 280 630 Z" />
<glyph unicode="ϋ" horiz-adv-x="964" d="M 417 825 C 466 825 506 862 506 911 C 506 961 466 997 417 997 C 367 997 329 961 329 911 C 329 862 367 825 417 825 Z M 646 825 C 695 825 735 862 735 911 C 735 961 695 997 646 997 C 596 997 558 961 558 911 C 558 862 596 825 646 825 Z M 934 750 L 787 750 L 581 405 L 374 750 L 30 750 L 332 250 L 332 0 L 632 0 L 632 250 Z M 512 293 L 512 120 L 452 120 L 452 277 L 240 630 L 309 630 Z" />
<glyph unicode="ό" horiz-adv-x="1027" d="M 513 -14 C 750 -14 927 149 927 376 C 927 603 750 766 513 766 C 276 766 100 603 100 376 C 100 149 276 -14 513 -14 Z M 513 646 C 680 646 797 538 797 376 C 797 214 680 106 513 106 C 472 106 434 112 400 123 L 400 629 C 434 640 472 646 513 646 Z M 219 376 C 219 445 241 505 280 550 L 280 202 C 241 247 219 307 219 376 Z" />
<glyph unicode="ύ" horiz-adv-x="964" d="M 934 750 L 787 750 L 581 405 L 374 750 L 30 750 L 332 250 L 332 0 L 632 0 L 632 250 Z M 512 293 L 512 120 L 452 120 L 452 277 L 240 630 L 309 630 Z" />
<glyph unicode="ώ" horiz-adv-x="1027" d="M 513 646 C 667 646 777 542 777 386 C 777 244 695 137 566 100 L 566 0 L 916 0 L 916 120 L 783 120 C 860 187 906 279 906 386 C 906 607 739 766 513 766 C 287 766 120 607 120 386 C 120 279 166 187 243 120 L 110 120 L 110 0 L 460 0 L 460 100 C 446 104 433 109 420 114 L 420 632 C 449 641 480 646 513 646 Z M 239 386 C 239 454 262 512 300 556 L 300 203 C 261 252 239 314 239 386 Z" />
<glyph unicode="Ѐ" horiz-adv-x="930" d="M 645 820 L 645 930 L 325 980 L 325 870 Z M 150 0 L 830 0 L 830 120 L 450 120 L 450 273 L 660 273 L 660 393 L 450 393 L 450 630 L 830 630 L 830 750 L 150 750 Z M 330 630 L 330 120 L 270 120 L 270 630 Z" />
<glyph unicode="Ё" horiz-adv-x="930" d="M 380 825 C 429 825 469 862 469 911 C 469 961 429 997 380 997 C 330 997 292 961 292 911 C 292 862 330 825 380 825 Z M 609 825 C 658 825 698 862 698 911 C 698 961 658 997 609 997 C 559 997 521 961 521 911 C 521 862 559 825 609 825 Z M 150 0 L 830 0 L 830 120 L 450 120 L 450 273 L 660 273 L 660 393 L 450 393 L 450 630 L 830 630 L 830 750 L 150 750 Z M 330 630 L 330 120 L 270 120 L 270 630 Z" />
<glyph unicode="Ђ" horiz-adv-x="1006" d="M 906 215 C 906 388 760 510 582 510 L 582 630 L 794 630 L 794 750 L 70 750 L 70 630 L 282 630 L 282 130 L 582 130 L 582 390 C 689 390 776 330 776 215 C 776 100 689 40 582 40 C 533 40 490 51 450 72 L 408 -44 C 460 -66 519 -80 582 -80 C 760 -80 906 43 906 215 Z M 462 630 L 462 250 L 402 250 L 402 630 Z" />
<glyph unicode="Ѓ" horiz-adv-x="892" d="M 340 820 L 660 870 L 660 980 L 340 930 Z M 150 0 L 450 0 L 450 630 L 822 630 L 822 750 L 150 750 Z M 330 630 L 330 120 L 270 120 L 270 630 Z" />
<glyph unicode="Є" horiz-adv-x="905" d="M 220 375 C 220 446 241 506 280 552 L 280 198 C 241 244 220 304 220 375 Z M 513 645 C 604 645 698 615 766 550 L 812 667 C 734 729 630 765 513 765 C 266 765 100 602 100 375 C 100 148 266 -15 513 -15 C 630 -15 734 21 812 83 L 766 200 C 697 135 604 105 513 105 C 472 105 434 111 400 121 L 400 293 L 610 293 L 610 413 L 400 413 L 400 629 C 434 639 472 645 513 645 Z" />
<glyph unicode="Ѕ" horiz-adv-x="887" d="M 787 254 C 787 354 739 448 572 496 L 262 586 C 292 622 349 645 429 645 C 509 645 606 618 676 571 L 714 693 C 641 737 536 765 428 765 C 256 765 122 666 122 506 C 122 400 174 301 348 251 L 643 167 C 608 129 543 106 452 106 C 342 106 209 148 145 217 L 100 95 C 174 29 317 -14 447 -14 C 644 -14 787 88 787 254 Z M 374 367 C 304 387 263 423 246 466 L 540 382 C 626 357 658 321 668 282 Z" />
<glyph unicode="І" horiz-adv-x="620" d="M 150 0 L 470 0 L 470 750 L 150 750 Z M 340 630 L 340 120 L 280 120 L 280 630 Z" />
<glyph unicode="Ї" horiz-adv-x="620" d="M 205 825 C 254 825 294 862 294 911 C 294 961 254 997 205 997 C 155 997 117 961 117 911 C 117 862 155 825 205 825 Z M 414 825 C 463 825 503 862 503 911 C 503 961 463 997 414 997 C 364 997 326 961 326 911 C 326 862 364 825 414 825 Z M 150 0 L 470 0 L 470 750 L 150 750 Z M 340 630 L 340 120 L 280 120 L 280 630 Z" />
<glyph unicode="Ј" horiz-adv-x="727" d="M 224 -15 C 447 -15 597 138 597 353 L 597 750 L 297 750 L 297 116 C 275 108 251 105 224 105 C 175 105 132 116 92 137 L 50 21 C 104 1 161 -15 224 -15 Z M 477 353 C 477 273 451 205 417 176 L 417 630 L 477 630 Z" />
<glyph unicode="Љ" horiz-adv-x="1267" d="M 1167 295 C 1167 468 1021 590 843 590 L 608 590 L 502 762 L 30 0 L 177 0 L 404 368 L 631 0 L 843 0 C 1021 0 1167 123 1167 295 Z M 472 477 L 506 533 L 783 88 L 714 88 Z M 843 470 C 950 470 1037 410 1037 295 C 1037 200 977 142 896 125 L 683 470 Z" />
<glyph unicode="Њ" horiz-adv-x="1337" d="M 1237 295 C 1237 468 1091 590 913 590 L 840 590 L 840 750 L 710 750 L 710 590 L 450 590 L 450 750 L 150 750 L 150 0 L 450 0 L 450 470 L 710 470 L 710 0 L 913 0 C 1091 0 1237 123 1237 295 Z M 330 630 L 330 120 L 270 120 L 270 630 Z M 913 470 C 1020 470 1107 410 1107 295 C 1107 180 1020 120 913 120 L 840 120 L 840 470 Z" />
<glyph unicode="Ћ" horiz-adv-x="1049" d="M 462 630 L 462 120 L 402 120 L 402 630 Z M 794 630 L 794 750 L 70 750 L 70 630 L 282 630 L 282 0 L 582 0 L 582 390 C 729 390 819 307 819 182 L 819 0 L 949 0 L 949 182 C 949 373 801 510 582 510 L 582 630 Z" />
<glyph unicode="Ќ" horiz-adv-x="971" d="M 400 820 L 720 870 L 720 980 L 400 930 Z M 779 0 L 936 0 L 589 408 L 905 750 L 745 750 L 483 466 L 450 466 L 450 750 L 150 750 L 150 0 L 450 0 L 450 346 L 485 346 Z M 330 630 L 330 120 L 270 120 L 270 630 Z" />
<glyph unicode="Ѝ" horiz-adv-x="1030" d="M 700 820 L 700 930 L 380 980 L 380 870 Z M 750 0 L 880 0 L 880 750 L 750 750 L 750 589 L 450 323 L 450 750 L 150 750 L 150 0 L 450 0 L 450 163 L 750 429 Z M 330 630 L 330 120 L 270 120 L 270 630 Z" />
<glyph unicode="Ў" horiz-adv-x="964" d="M 618 989 C 618 949 594 920 548 920 C 502 920 478 949 478 989 L 368 989 C 368 897 440 820 548 820 C 656 820 728 898 728 989 Z M 934 750 L 787 750 L 592 402 L 373 750 L 30 750 L 430 114 L 366 0 L 513 0 Z M 242 630 L 311 630 L 527 287 L 495 229 Z" />
<glyph unicode="Џ" horiz-adv-x="1030" d="M 880 750 L 750 750 L 750 120 L 450 120 L 450 750 L 150 750 L 150 0 L 470 0 L 470 -120 L 594 -120 L 594 0 L 880 0 Z M 270 120 L 270 630 L 330 630 L 330 120 Z" />
<glyph unicode="А" horiz-adv-x="1004" d="M 631 0 L 974 0 L 502 762 L 30 0 L 177 0 L 220 70 L 588 70 Z M 472 477 L 506 533 L 763 120 L 694 120 Z M 294 190 L 404 368 L 514 190 Z" />
<glyph unicode="Б" horiz-adv-x="947" d="M 847 255 C 847 405 720 500 563 500 L 450 500 L 450 630 L 780 630 L 780 750 L 150 750 L 150 0 L 563 0 C 720 0 847 101 847 255 Z M 330 120 L 270 120 L 270 630 L 330 630 Z M 563 120 L 450 120 L 450 390 L 563 390 C 647 390 717 351 717 255 C 717 159 647 120 563 120 Z" />
<glyph unicode="В" horiz-adv-x="947" d="M 150 0 L 583 0 C 729 0 847 93 847 235 C 847 329 792 399 712 434 C 738 466 753 505 753 550 C 753 666 659 750 543 750 L 150 750 Z M 543 630 C 589 630 632 599 632 550 C 632 501 589 470 543 470 L 450 470 L 450 630 Z M 330 120 L 270 120 L 270 630 L 330 630 Z M 583 120 L 450 120 L 450 350 L 583 350 C 656 350 717 317 717 235 C 717 153 656 120 583 120 Z" />
<glyph unicode="Г" horiz-adv-x="892" d="M 150 0 L 450 0 L 450 630 L 822 630 L 822 750 L 150 750 Z M 330 630 L 330 120 L 270 120 L 270 630 Z" />
<glyph unicode="Д" horiz-adv-x="1024" d="M 850 -120 L 974 -120 L 974 120 L 893 120 L 512 762 L 131 120 L 50 120 L 50 -120 L 174 -120 L 174 0 L 850 0 Z M 476 472 L 511 529 L 773 88 L 704 88 Z M 278 120 L 414 349 L 550 120 Z" />
<glyph unicode="Е" horiz-adv-x="930" d="M 150 0 L 830 0 L 830 120 L 450 120 L 450 273 L 660 273 L 660 393 L 450 393 L 450 630 L 830 630 L 830 750 L 150 750 Z M 330 630 L 330 120 L 270 120 L 270 630 Z" />
<glyph unicode="Ж" horiz-adv-x="1234" d="M 467 0 L 767 0 L 767 346 L 795 346 L 1033 0 L 1190 0 L 905 412 L 1159 750 L 1009 750 L 796 466 L 767 466 L 767 750 L 467 750 L 467 466 L 438 466 L 225 750 L 75 750 L 329 412 L 44 0 L 201 0 L 439 346 L 467 346 Z M 647 630 L 647 120 L 587 120 L 587 630 Z" />
<glyph unicode="З" horiz-adv-x="844" d="M 451 368 L 454 368 L 454 108 C 440 107 426 106 411 106 C 275 106 170 158 125 199 L 80 84 C 146 35 259 -14 411 -14 C 617 -14 754 81 754 237 C 754 330 696 405 601 442 C 636 476 655 520 655 571 C 655 691 546 764 382 764 C 280 764 207 726 160 692 L 196 599 C 226 625 292 658 381 658 L 381 478 L 294 478 L 294 368 Z M 549 571 C 549 531 526 506 491 492 L 491 642 C 526 628 549 605 549 571 Z M 634 237 C 634 192 611 160 574 139 L 574 342 C 611 322 634 288 634 237 Z" />
<glyph unicode="И" horiz-adv-x="1030" d="M 750 0 L 880 0 L 880 750 L 750 750 L 750 589 L 450 323 L 450 750 L 150 750 L 150 0 L 450 0 L 450 163 L 750 429 Z M 330 630 L 330 120 L 270 120 L 270 630 Z" />
<glyph unicode="Й" horiz-adv-x="1030" d="M 604 989 C 604 949 580 920 534 920 C 488 920 464 949 464 989 L 354 989 C 354 897 426 820 534 820 C 642 820 714 898 714 989 Z M 750 0 L 880 0 L 880 750 L 750 750 L 750 589 L 450 323 L 450 750 L 150 750 L 150 0 L 450 0 L 450 163 L 750 429 Z M 330 630 L 330 120 L 270 120 L 270 630 Z" />
<glyph unicode="К" horiz-adv-x="971" d="M 779 0 L 936 0 L 589 408 L 905 750 L 745 750 L 483 466 L 450 466 L 450 750 L 150 750 L 150 0 L 450 0 L 450 346 L 485 346 Z M 330 630 L 330 120 L 270 120 L 270 630 Z" />
<glyph unicode="Л" horiz-adv-x="1004" d="M 631 0 L 974 0 L 502 762 L 30 0 L 177 0 L 404 368 Z M 472 477 L 506 533 L 763 120 L 694 120 Z" />
<glyph unicode="М" horiz-adv-x="1223" d="M 987 0 L 1133 0 L 943 760 L 623 255 L 280 760 L 90 0 L 393 0 L 455 250 L 626 -2 L 883 418 Z M 369 377 L 304 120 L 244 120 L 325 443 Z" />
<glyph unicode="Н" horiz-adv-x="1030" d="M 750 0 L 880 0 L 880 750 L 750 750 L 750 335 L 450 335 L 450 750 L 150 750 L 150 0 L 450 0 L 450 215 L 750 215 Z M 330 630 L 330 120 L 270 120 L 270 630 Z" />
<glyph unicode="О" horiz-adv-x="1027" d="M 513 -14 C 750 -14 927 149 927 376 C 927 603 750 766 513 766 C 276 766 100 603 100 376 C 100 149 276 -14 513 -14 Z M 513 646 C 680 646 797 538 797 376 C 797 214 680 106 513 106 C 472 106 434 112 400 123 L 400 629 C 434 640 472 646 513 646 Z M 219 376 C 219 445 241 505 280 550 L 280 202 C 241 247 219 307 219 376 Z" />
<glyph unicode="П" horiz-adv-x="1030" d="M 150 0 L 450 0 L 450 630 L 750 630 L 750 0 L 880 0 L 880 750 L 150 750 Z M 330 630 L 330 120 L 270 120 L 270 630 Z" />
<glyph unicode="Р" horiz-adv-x="947" d="M 150 0 L 450 0 L 450 160 L 523 160 C 701 160 847 282 847 455 C 847 627 701 750 523 750 L 150 750 Z M 523 630 C 630 630 717 570 717 455 C 717 340 630 280 523 280 L 450 280 L 450 630 Z M 330 630 L 330 120 L 270 120 L 270 630 Z" />
<glyph unicode="С" horiz-adv-x="905" d="M 812 83 L 766 200 C 697 135 604 105 513 105 C 472 105 434 111 400 121 L 400 629 C 434 639 472 645 513 645 C 604 645 698 615 766 550 L 812 667 C 734 729 630 765 513 765 C 266 765 100 602 100 375 C 100 148 266 -15 513 -15 C 630 -15 734 21 812 83 Z M 220 375 C 220 446 241 506 280 552 L 280 198 C 241 244 220 304 220 375 Z" />
<glyph unicode="Т" horiz-adv-x="864" d="M 70 630 L 282 630 L 282 0 L 582 0 L 582 630 L 794 630 L 794 750 L 70 750 Z M 462 630 L 462 120 L 402 120 L 402 630 Z" />
<glyph unicode="У" horiz-adv-x="964" d="M 934 750 L 787 750 L 592 402 L 373 750 L 30 750 L 430 114 L 366 0 L 513 0 Z M 242 630 L 311 630 L 527 287 L 495 229 Z" />
<glyph unicode="Ф" horiz-adv-x="1114" d="M 707 750 L 407 750 L 407 670 L 404 670 C 237 670 100 547 100 375 C 100 202 237 80 404 80 L 407 80 L 407 0 L 707 0 L 707 80 L 710 80 C 877 80 1014 202 1014 375 C 1014 547 877 670 710 670 L 707 670 Z M 587 630 L 587 120 L 527 120 L 527 630 Z M 407 200 L 404 200 C 308 200 230 260 230 375 C 230 490 308 550 404 550 L 407 550 Z M 710 550 C 806 550 884 490 884 375 C 884 260 806 200 710 200 L 707 200 L 707 550 Z" />
<glyph unicode="Х" horiz-adv-x="971" d="M 556 0 L 911 0 L 632 422 L 860 750 L 703 750 L 555 539 L 415 750 L 60 750 L 317 361 L 60 0 L 217 0 L 393 247 Z M 281 630 L 353 630 L 690 120 L 618 120 Z" />
<glyph unicode="Ц" horiz-adv-x="1030" d="M 830 -120 L 954 -120 L 954 120 L 860 120 L 860 750 L 730 750 L 730 120 L 450 120 L 450 750 L 150 750 L 150 0 L 830 0 Z M 330 120 L 270 120 L 270 630 L 330 630 Z" />
<glyph unicode="Ч" horiz-adv-x="937" d="M 787 0 L 787 750 L 487 750 L 487 290 C 328 290 230 373 230 498 L 230 750 L 100 750 L 100 498 C 100 307 256 170 487 170 L 487 0 Z M 607 120 L 607 630 L 667 630 L 667 120 Z" />
<glyph unicode="Ш" horiz-adv-x="1270" d="M 1120 750 L 990 750 L 990 120 L 785 120 L 785 750 L 655 750 L 655 120 L 450 120 L 450 750 L 150 750 L 150 0 L 1120 0 Z M 330 120 L 270 120 L 270 630 L 330 630 Z" />
<glyph unicode="Щ" horiz-adv-x="1290" d="M 1090 -120 L 1214 -120 L 1214 120 L 1120 120 L 1120 750 L 990 750 L 990 120 L 785 120 L 785 750 L 655 750 L 655 120 L 450 120 L 450 750 L 150 750 L 150 0 L 1090 0 Z M 330 120 L 270 120 L 270 630 L 330 630 Z" />
<glyph unicode="Ъ" horiz-adv-x="1047" d="M 70 630 L 250 630 L 250 0 L 623 0 C 801 0 947 123 947 295 C 947 468 801 590 623 590 L 550 590 L 550 750 L 70 750 Z M 430 120 L 370 120 L 370 630 L 430 630 Z M 623 120 L 550 120 L 550 470 L 623 470 C 730 470 817 410 817 295 C 817 180 730 120 623 120 Z" />
<glyph unicode="Ы" horiz-adv-x="1477" d="M 150 750 L 150 0 L 523 0 C 701 0 847 123 847 295 C 847 468 701 590 523 590 L 450 590 L 450 750 Z M 1007 0 L 1327 0 L 1327 750 L 1007 750 Z M 330 120 L 270 120 L 270 630 L 330 630 Z M 1197 630 L 1197 120 L 1137 120 L 1137 630 Z M 523 120 L 450 120 L 450 470 L 523 470 C 630 470 717 410 717 295 C 717 180 630 120 523 120 Z" />
<glyph unicode="Ь" horiz-adv-x="947" d="M 150 750 L 150 0 L 523 0 C 701 0 847 123 847 295 C 847 468 701 590 523 590 L 450 590 L 450 750 Z M 330 120 L 270 120 L 270 630 L 330 630 Z M 523 120 L 450 120 L 450 470 L 523 470 C 630 470 717 410 717 295 C 717 180 630 120 523 120 Z" />
<glyph unicode="Э" horiz-adv-x="905" d="M 805 375 C 805 602 639 765 392 765 C 275 765 171 729 93 667 L 139 550 C 207 615 301 645 392 645 C 433 645 471 639 505 629 L 505 413 L 295 413 L 295 293 L 505 293 L 505 121 C 471 111 433 105 392 105 C 301 105 208 135 139 200 L 93 83 C 171 21 275 -15 392 -15 C 639 -15 805 148 805 375 Z M 685 375 C 685 304 664 244 625 198 L 625 552 C 664 506 685 446 685 375 Z" />
<glyph unicode="Ю" horiz-adv-x="1387" d="M 1287 376 C 1287 603 1127 766 913 766 C 717 766 569 631 544 435 L 450 435 L 450 750 L 150 750 L 150 0 L 450 0 L 450 315 L 544 315 C 570 120 718 -14 913 -14 C 1127 -14 1287 149 1287 376 Z M 913 646 C 1056 646 1157 538 1157 376 C 1157 214 1056 106 913 106 C 891 106 870 109 850 114 L 850 638 C 870 643 891 646 913 646 Z M 330 630 L 330 120 L 270 120 L 270 630 Z M 669 376 C 669 452 691 517 730 563 L 730 189 C 691 235 669 300 669 376 Z" />
<glyph unicode="Я" horiz-adv-x="983" d="M 533 0 L 833 0 L 833 750 L 466 750 C 251 750 100 621 100 438 C 100 308 178 206 301 159 L 103 0 L 313 0 L 475 130 L 533 130 Z M 465 250 C 319 250 230 320 230 438 C 230 557 319 630 465 630 L 533 630 L 533 250 Z M 713 630 L 713 120 L 653 120 L 653 630 Z" />
<glyph unicode="а" horiz-adv-x="1004" d="M 631 0 L 974 0 L 502 762 L 30 0 L 177 0 L 220 70 L 588 70 Z M 472 477 L 506 533 L 763 120 L 694 120 Z M 294 190 L 404 368 L 514 190 Z" />
<glyph unicode="б" horiz-adv-x="947" d="M 847 255 C 847 405 720 500 563 500 L 450 500 L 450 630 L 780 630 L 780 750 L 150 750 L 150 0 L 563 0 C 720 0 847 101 847 255 Z M 330 120 L 270 120 L 270 630 L 330 630 Z M 563 120 L 450 120 L 450 390 L 563 390 C 647 390 717 351 717 255 C 717 159 647 120 563 120 Z" />
<glyph unicode="в" horiz-adv-x="947" d="M 150 0 L 583 0 C 729 0 847 93 847 235 C 847 329 792 399 712 434 C 738 466 753 505 753 550 C 753 666 659 750 543 750 L 150 750 Z M 543 630 C 589 630 632 599 632 550 C 632 501 589 470 543 470 L 450 470 L 450 630 Z M 330 120 L 270 120 L 270 630 L 330 630 Z M 583 120 L 450 120 L 450 350 L 583 350 C 656 350 717 317 717 235 C 717 153 656 120 583 120 Z" />
<glyph unicode="г" horiz-adv-x="892" d="M 150 0 L 450 0 L 450 630 L 822 630 L 822 750 L 150 750 Z M 330 630 L 330 120 L 270 120 L 270 630 Z" />
<glyph unicode="д" horiz-adv-x="1024" d="M 850 -120 L 974 -120 L 974 120 L 893 120 L 512 762 L 131 120 L 50 120 L 50 -120 L 174 -120 L 174 0 L 850 0 Z M 476 472 L 511 529 L 773 88 L 704 88 Z M 278 120 L 414 349 L 550 120 Z" />
<glyph unicode="е" horiz-adv-x="930" d="M 150 0 L 830 0 L 830 120 L 450 120 L 450 273 L 660 273 L 660 393 L 450 393 L 450 630 L 830 630 L 830 750 L 150 750 Z M 330 630 L 330 120 L 270 120 L 270 630 Z" />
<glyph unicode="ж" horiz-adv-x="1234" d="M 467 0 L 767 0 L 767 346 L 795 346 L 1033 0 L 1190 0 L 905 412 L 1159 750 L 1009 750 L 796 466 L 767 466 L 767 750 L 467 750 L 467 466 L 438 466 L 225 750 L 75 750 L 329 412 L 44 0 L 201 0 L 439 346 L 467 346 Z M 647 630 L 647 120 L 587 120 L 587 630 Z" />
<glyph unicode="з" horiz-adv-x="844" d="M 451 368 L 454 368 L 454 108 C 440 107 426 106 411 106 C 275 106 170 158 125 199 L 80 84 C 146 35 259 -14 411 -14 C 617 -14 754 81 754 237 C 754 330 696 405 601 442 C 636 476 655 520 655 571 C 655 691 546 764 382 764 C 280 764 207 726 160 692 L 196 599 C 226 625 292 658 381 658 L 381 478 L 294 478 L 294 368 Z M 549 571 C 549 531 526 506 491 492 L 491 642 C 526 628 549 605 549 571 Z M 634 237 C 634 192 611 160 574 139 L 574 342 C 611 322 634 288 634 237 Z" />
<glyph unicode="и" horiz-adv-x="1030" d="M 750 0 L 880 0 L 880 750 L 750 750 L 750 589 L 450 323 L 450 750 L 150 750 L 150 0 L 450 0 L 450 163 L 750 429 Z M 330 630 L 330 120 L 270 120 L 270 630 Z" />
<glyph unicode="й" horiz-adv-x="1030" d="M 604 989 C 604 949 580 920 534 920 C 488 920 464 949 464 989 L 354 989 C 354 897 426 820 534 820 C 642 820 714 898 714 989 Z M 750 0 L 880 0 L 880 750 L 750 750 L 750 589 L 450 323 L 450 750 L 150 750 L 150 0 L 450 0 L 450 163 L 750 429 Z M 330 630 L 330 120 L 270 120 L 270 630 Z" />
<glyph unicode="к" horiz-adv-x="971" d="M 779 0 L 936 0 L 589 408 L 905 750 L 745 750 L 483 466 L 450 466 L 450 750 L 150 750 L 150 0 L 450 0 L 450 346 L 485 346 Z M 330 630 L 330 120 L 270 120 L 270 630 Z" />
<glyph unicode="л" horiz-adv-x="1004" d="M 631 0 L 974 0 L 502 762 L 30 0 L 177 0 L 404 368 Z M 472 477 L 506 533 L 763 120 L 694 120 Z" />
<glyph unicode="м" horiz-adv-x="1223" d="M 987 0 L 1133 0 L 943 760 L 623 255 L 280 760 L 90 0 L 393 0 L 455 250 L 626 -2 L 883 418 Z M 369 377 L 304 120 L 244 120 L 325 443 Z" />
<glyph unicode="н" horiz-adv-x="1030" d="M 750 0 L 880 0 L 880 750 L 750 750 L 750 335 L 450 335 L 450 750 L 150 750 L 150 0 L 450 0 L 450 215 L 750 215 Z M 330 630 L 330 120 L 270 120 L 270 630 Z" />
<glyph unicode="о" horiz-adv-x="1027" d="M 513 -14 C 750 -14 927 149 927 376 C 927 603 750 766 513 766 C 276 766 100 603 100 376 C 100 149 276 -14 513 -14 Z M 513 646 C 680 646 797 538 797 376 C 797 214 680 106 513 106 C 472 106 434 112 400 123 L 400 629 C 434 640 472 646 513 646 Z M 219 376 C 219 445 241 505 280 550 L 280 202 C 241 247 219 307 219 376 Z" />
<glyph unicode="п" horiz-adv-x="1030" d="M 150 0 L 450 0 L 450 630 L 750 630 L 750 0 L 880 0 L 880 750 L 150 750 Z M 330 630 L 330 120 L 270 120 L 270 630 Z" />
<glyph unicode="р" horiz-adv-x="947" d="M 150 0 L 450 0 L 450 160 L 523 160 C 701 160 847 282 847 455 C 847 627 701 750 523 750 L 150 750 Z M 523 630 C 630 630 717 570 717 455 C 717 340 630 280 523 280 L 450 280 L 450 630 Z M 330 630 L 330 120 L 270 120 L 270 630 Z" />
<glyph unicode="с" horiz-adv-x="902" d="M 812 83 L 766 200 C 697 135 604 105 513 105 C 472 105 434 111 400 121 L 400 629 C 434 639 472 645 513 645 C 604 645 698 615 766 550 L 812 667 C 734 729 630 765 513 765 C 266 765 100 602 100 375 C 100 148 266 -15 513 -15 C 630 -15 734 21 812 83 Z M 220 375 C 220 446 241 506 280 552 L 280 198 C 241 244 220 304 220 375 Z" />
<glyph unicode="т" horiz-adv-x="864" d="M 70 630 L 282 630 L 282 0 L 582 0 L 582 630 L 794 630 L 794 750 L 70 750 Z M 462 630 L 462 120 L 402 120 L 402 630 Z" />
<glyph unicode="у" horiz-adv-x="964" d="M 934 750 L 787 750 L 592 402 L 373 750 L 30 750 L 430 114 L 366 0 L 513 0 Z M 242 630 L 311 630 L 527 287 L 495 229 Z" />
<glyph unicode="ф" horiz-adv-x="1114" d="M 707 750 L 407 750 L 407 670 L 404 670 C 237 670 100 547 100 375 C 100 202 237 80 404 80 L 407 80 L 407 0 L 707 0 L 707 80 L 710 80 C 877 80 1014 202 1014 375 C 1014 547 877 670 710 670 L 707 670 Z M 587 630 L 587 120 L 527 120 L 527 630 Z M 407 200 L 404 200 C 308 200 230 260 230 375 C 230 490 308 550 404 550 L 407 550 Z M 710 550 C 806 550 884 490 884 375 C 884 260 806 200 710 200 L 707 200 L 707 550 Z" />
<glyph unicode="х" horiz-adv-x="971" d="M 556 0 L 911 0 L 632 422 L 860 750 L 703 750 L 555 539 L 415 750 L 60 750 L 317 361 L 60 0 L 217 0 L 393 247 Z M 281 630 L 353 630 L 690 120 L 618 120 Z" />
<glyph unicode="ц" horiz-adv-x="1030" d="M 830 -120 L 954 -120 L 954 120 L 860 120 L 860 750 L 730 750 L 730 120 L 450 120 L 450 750 L 150 750 L 150 0 L 830 0 Z M 330 120 L 270 120 L 270 630 L 330 630 Z" />
<glyph unicode="ч" horiz-adv-x="937" d="M 787 0 L 787 750 L 487 750 L 487 290 C 328 290 230 373 230 498 L 230 750 L 100 750 L 100 498 C 100 307 256 170 487 170 L 487 0 Z M 607 120 L 607 630 L 667 630 L 667 120 Z" />
<glyph unicode="ш" horiz-adv-x="1270" d="M 1120 750 L 990 750 L 990 120 L 785 120 L 785 750 L 655 750 L 655 120 L 450 120 L 450 750 L 150 750 L 150 0 L 1120 0 Z M 330 120 L 270 120 L 270 630 L 330 630 Z" />
<glyph unicode="щ" horiz-adv-x="1290" d="M 1090 -120 L 1214 -120 L 1214 120 L 1120 120 L 1120 750 L 990 750 L 990 120 L 785 120 L 785 750 L 655 750 L 655 120 L 450 120 L 450 750 L 150 750 L 150 0 L 1090 0 Z M 330 120 L 270 120 L 270 630 L 330 630 Z" />
<glyph unicode="ъ" horiz-adv-x="1047" d="M 70 630 L 250 630 L 250 0 L 623 0 C 801 0 947 123 947 295 C 947 468 801 590 623 590 L 550 590 L 550 750 L 70 750 Z M 430 120 L 370 120 L 370 630 L 430 630 Z M 623 120 L 550 120 L 550 470 L 623 470 C 730 470 817 410 817 295 C 817 180 730 120 623 120 Z" />
<glyph unicode="ы" horiz-adv-x="1477" d="M 150 750 L 150 0 L 523 0 C 701 0 847 123 847 295 C 847 468 701 590 523 590 L 450 590 L 450 750 Z M 1007 0 L 1327 0 L 1327 750 L 1007 750 Z M 330 120 L 270 120 L 270 630 L 330 630 Z M 1197 630 L 1197 120 L 1137 120 L 1137 630 Z M 523 120 L 450 120 L 450 470 L 523 470 C 630 470 717 410 717 295 C 717 180 630 120 523 120 Z" />
<glyph unicode="ь" horiz-adv-x="947" d="M 150 750 L 150 0 L 523 0 C 701 0 847 123 847 295 C 847 468 701 590 523 590 L 450 590 L 450 750 Z M 330 120 L 270 120 L 270 630 L 330 630 Z M 523 120 L 450 120 L 450 470 L 523 470 C 630 470 717 410 717 295 C 717 180 630 120 523 120 Z" />
<glyph unicode="э" horiz-adv-x="905" d="M 805 375 C 805 602 639 765 392 765 C 275 765 171 729 93 667 L 139 550 C 207 615 301 645 392 645 C 433 645 471 639 505 629 L 505 413 L 295 413 L 295 293 L 505 293 L 505 121 C 471 111 433 105 392 105 C 301 105 208 135 139 200 L 93 83 C 171 21 275 -15 392 -15 C 639 -15 805 148 805 375 Z M 685 375 C 685 304 664 244 625 198 L 625 552 C 664 506 685 446 685 375 Z" />
<glyph unicode="ю" horiz-adv-x="1387" d="M 1287 376 C 1287 603 1127 766 913 766 C 717 766 569 631 544 435 L 450 435 L 450 750 L 150 750 L 150 0 L 450 0 L 450 315 L 544 315 C 570 120 718 -14 913 -14 C 1127 -14 1287 149 1287 376 Z M 913 646 C 1056 646 1157 538 1157 376 C 1157 214 1056 106 913 106 C 891 106 870 109 850 114 L 850 638 C 870 643 891 646 913 646 Z M 330 630 L 330 120 L 270 120 L 270 630 Z M 669 376 C 669 452 691 517 730 563 L 730 189 C 691 235 669 300 669 376 Z" />
<glyph unicode="я" horiz-adv-x="983" d="M 533 0 L 833 0 L 833 750 L 466 750 C 251 750 100 621 100 438 C 100 308 178 206 301 159 L 103 0 L 313 0 L 475 130 L 533 130 Z M 465 250 C 319 250 230 320 230 438 C 230 557 319 630 465 630 L 533 630 L 533 250 Z M 713 630 L 713 120 L 653 120 L 653 630 Z" />
<glyph unicode="ѐ" horiz-adv-x="930" d="M 645 820 L 645 930 L 325 980 L 325 870 Z M 150 0 L 830 0 L 830 120 L 450 120 L 450 273 L 660 273 L 660 393 L 450 393 L 450 630 L 830 630 L 830 750 L 150 750 Z M 330 630 L 330 120 L 270 120 L 270 630 Z" />
<glyph unicode="ё" horiz-adv-x="930" d="M 380 825 C 429 825 469 862 469 911 C 469 961 429 997 380 997 C 330 997 292 961 292 911 C 292 862 330 825 380 825 Z M 609 825 C 658 825 698 862 698 911 C 698 961 658 997 609 997 C 559 997 521 961 521 911 C 521 862 559 825 609 825 Z M 150 0 L 830 0 L 830 120 L 450 120 L 450 273 L 660 273 L 660 393 L 450 393 L 450 630 L 830 630 L 830 750 L 150 750 Z M 330 630 L 330 120 L 270 120 L 270 630 Z" />
<glyph unicode="ђ" horiz-adv-x="1006" d="M 906 215 C 906 388 760 510 582 510 L 582 630 L 794 630 L 794 750 L 70 750 L 70 630 L 282 630 L 282 130 L 582 130 L 582 390 C 689 390 776 330 776 215 C 776 100 689 40 582 40 C 533 40 490 51 450 72 L 408 -44 C 460 -66 519 -80 582 -80 C 760 -80 906 43 906 215 Z M 462 630 L 462 250 L 402 250 L 402 630 Z" />
<glyph unicode="ѓ" horiz-adv-x="892" d="M 340 820 L 660 870 L 660 980 L 340 930 Z M 150 0 L 450 0 L 450 630 L 822 630 L 822 750 L 150 750 Z M 330 630 L 330 120 L 270 120 L 270 630 Z" />
<glyph unicode="є" horiz-adv-x="905" d="M 220 375 C 220 446 241 506 280 552 L 280 198 C 241 244 220 304 220 375 Z M 513 645 C 604 645 698 615 766 550 L 812 667 C 734 729 630 765 513 765 C 266 765 100 602 100 375 C 100 148 266 -15 513 -15 C 630 -15 734 21 812 83 L 766 200 C 697 135 604 105 513 105 C 472 105 434 111 400 121 L 400 293 L 610 293 L 610 413 L 400 413 L 400 629 C 434 639 472 645 513 645 Z" />
<glyph unicode="ѕ" horiz-adv-x="887" d="M 787 254 C 787 354 739 448 572 496 L 262 586 C 292 622 349 645 429 645 C 509 645 606 618 676 571 L 714 693 C 641 737 536 765 428 765 C 256 765 122 666 122 506 C 122 400 174 301 348 251 L 643 167 C 608 129 543 106 452 106 C 342 106 209 148 145 217 L 100 95 C 174 29 317 -14 447 -14 C 644 -14 787 88 787 254 Z M 374 367 C 304 387 263 423 246 466 L 540 382 C 626 357 658 321 668 282 Z" />
<glyph unicode="і" horiz-adv-x="620" d="M 150 0 L 470 0 L 470 750 L 150 750 Z M 340 630 L 340 120 L 280 120 L 280 630 Z" />
<glyph unicode="ї" horiz-adv-x="620" d="M 205 825 C 254 825 294 862 294 911 C 294 961 254 997 205 997 C 155 997 117 961 117 911 C 117 862 155 825 205 825 Z M 414 825 C 463 825 503 862 503 911 C 503 961 463 997 414 997 C 364 997 326 961 326 911 C 326 862 364 825 414 825 Z M 150 0 L 470 0 L 470 750 L 150 750 Z M 340 630 L 340 120 L 280 120 L 280 630 Z" />
<glyph unicode="ј" horiz-adv-x="727" d="M 224 -15 C 447 -15 597 138 597 353 L 597 750 L 297 750 L 297 116 C 275 108 251 105 224 105 C 175 105 132 116 92 137 L 50 21 C 104 1 161 -15 224 -15 Z M 477 353 C 477 273 451 205 417 176 L 417 630 L 477 630 Z" />
<glyph unicode="љ" horiz-adv-x="1267" d="M 1167 295 C 1167 468 1021 590 843 590 L 608 590 L 502 762 L 30 0 L 177 0 L 404 368 L 631 0 L 843 0 C 1021 0 1167 123 1167 295 Z M 472 477 L 506 533 L 783 88 L 714 88 Z M 843 470 C 950 470 1037 410 1037 295 C 1037 200 977 142 896 125 L 683 470 Z" />
<glyph unicode="њ" horiz-adv-x="1337" d="M 1237 295 C 1237 468 1091 590 913 590 L 840 590 L 840 750 L 710 750 L 710 590 L 450 590 L 450 750 L 150 750 L 150 0 L 450 0 L 450 470 L 710 470 L 710 0 L 913 0 C 1091 0 1237 123 1237 295 Z M 330 630 L 330 120 L 270 120 L 270 630 Z M 913 470 C 1020 470 1107 410 1107 295 C 1107 180 1020 120 913 120 L 840 120 L 840 470 Z" />
<glyph unicode="ћ" horiz-adv-x="1049" d="M 462 630 L 462 120 L 402 120 L 402 630 Z M 794 630 L 794 750 L 70 750 L 70 630 L 282 630 L 282 0 L 582 0 L 582 390 C 729 390 819 307 819 182 L 819 0 L 949 0 L 949 182 C 949 373 801 510 582 510 L 582 630 Z" />
<glyph unicode="ќ" horiz-adv-x="971" d="M 400 820 L 720 870 L 720 980 L 400 930 Z M 779 0 L 936 0 L 589 408 L 905 750 L 745 750 L 483 466 L 450 466 L 450 750 L 150 750 L 150 0 L 450 0 L 450 346 L 485 346 Z M 330 630 L 330 120 L 270 120 L 270 630 Z" />
<glyph unicode="ѝ" horiz-adv-x="1030" d="M 700 820 L 700 930 L 380 980 L 380 870 Z M 750 0 L 880 0 L 880 750 L 750 750 L 750 589 L 450 323 L 450 750 L 150 750 L 150 0 L 450 0 L 450 163 L 750 429 Z M 330 630 L 330 120 L 270 120 L 270 630 Z" />
<glyph unicode="ў" horiz-adv-x="964" d="M 618 989 C 618 949 594 920 548 920 C 502 920 478 949 478 989 L 368 989 C 368 897 440 820 548 820 C 656 820 728 898 728 989 Z M 934 750 L 787 750 L 592 402 L 373 750 L 30 750 L 430 114 L 366 0 L 513 0 Z M 242 630 L 311 630 L 527 287 L 495 229 Z" />
<glyph unicode="џ" horiz-adv-x="1030" d="M 880 750 L 750 750 L 750 120 L 450 120 L 450 750 L 150 750 L 150 0 L 470 0 L 470 -120 L 594 -120 L 594 0 L 880 0 Z M 270 120 L 270 630 L 330 630 L 330 120 Z" />
<glyph unicode="Ґ" horiz-adv-x="892" d="M 822 870 L 698 870 L 698 750 L 150 750 L 150 0 L 450 0 L 450 630 L 822 630 Z M 330 630 L 330 120 L 270 120 L 270 630 Z" />
<glyph unicode="ґ" horiz-adv-x="892" d="M 822 870 L 698 870 L 698 750 L 150 750 L 150 0 L 450 0 L 450 630 L 822 630 Z M 330 630 L 330 120 L 270 120 L 270 630 Z" />
<glyph unicode="Ḍ" horiz-adv-x="1037" d="M 150 0 L 523 0 C 770 0 937 156 937 375 C 937 594 770 750 523 750 L 150 750 Z M 523 630 C 700 630 807 528 807 375 C 807 222 700 120 523 120 L 450 120 L 450 630 Z M 330 630 L 330 120 L 270 120 L 270 630 Z M 495 -258 C 544 -258 584 -221 584 -172 C 584 -122 544 -86 495 -86 C 445 -86 407 -122 407 -172 C 407 -221 445 -258 495 -258 Z" />
<glyph unicode="ḍ" horiz-adv-x="1037" d="M 150 0 L 523 0 C 770 0 937 156 937 375 C 937 594 770 750 523 750 L 150 750 Z M 523 630 C 700 630 807 528 807 375 C 807 222 700 120 523 120 L 450 120 L 450 630 Z M 330 630 L 330 120 L 270 120 L 270 630 Z M 495 -258 C 544 -258 584 -221 584 -172 C 584 -122 544 -86 495 -86 C 445 -86 407 -122 407 -172 C 407 -221 445 -258 495 -258 Z" />
<glyph unicode="Ḏ" horiz-adv-x="1037" d="M 150 0 L 523 0 C 770 0 937 156 937 375 C 937 594 770 750 523 750 L 150 750 Z M 523 630 C 700 630 807 528 807 375 C 807 222 700 120 523 120 L 450 120 L 450 630 Z M 330 630 L 330 120 L 270 120 L 270 630 Z M 325 -210 L 665 -210 L 665 -100 L 325 -100 Z" />
<glyph unicode="ḏ" horiz-adv-x="1037" d="M 150 0 L 523 0 C 770 0 937 156 937 375 C 937 594 770 750 523 750 L 150 750 Z M 523 630 C 700 630 807 528 807 375 C 807 222 700 120 523 120 L 450 120 L 450 630 Z M 330 630 L 330 120 L 270 120 L 270 630 Z M 325 -210 L 665 -210 L 665 -100 L 325 -100 Z" />
<glyph unicode="Ḡ" horiz-adv-x="978" d="M 339 850 L 679 850 L 679 960 L 339 960 Z M 878 180 L 878 454 L 748 454 L 748 213 C 703 150 612 105 513 105 C 472 105 434 111 400 122 L 400 628 C 434 639 472 645 513 645 C 573 645 636 628 674 607 L 711 723 C 659 746 586 765 513 765 C 276 765 100 602 100 375 C 100 148 276 -15 513 -15 C 664 -14 811 66 878 180 Z M 220 375 C 220 445 242 504 280 549 L 280 201 C 242 246 220 305 220 375 Z" />
<glyph unicode="ḡ" horiz-adv-x="978" d="M 339 850 L 679 850 L 679 960 L 339 960 Z M 878 180 L 878 454 L 748 454 L 748 213 C 703 150 612 105 513 105 C 472 105 434 111 400 122 L 400 628 C 434 639 472 645 513 645 C 573 645 636 628 674 607 L 711 723 C 659 746 586 765 513 765 C 276 765 100 602 100 375 C 100 148 276 -15 513 -15 C 664 -14 811 66 878 180 Z M 220 375 C 220 445 242 504 280 549 L 280 201 C 242 246 220 305 220 375 Z" />
<glyph unicode="Ḥ" horiz-adv-x="1030" d="M 750 0 L 880 0 L 880 750 L 750 750 L 750 335 L 450 335 L 450 750 L 150 750 L 150 0 L 450 0 L 450 215 L 750 215 Z M 330 630 L 330 120 L 270 120 L 270 630 Z M 555 -258 C 604 -258 644 -221 644 -172 C 644 -122 604 -86 555 -86 C 505 -86 467 -122 467 -172 C 467 -221 505 -258 555 -258 Z" />
<glyph unicode="ḥ" horiz-adv-x="1030" d="M 750 0 L 880 0 L 880 750 L 750 750 L 750 335 L 450 335 L 450 750 L 150 750 L 150 0 L 450 0 L 450 215 L 750 215 Z M 330 630 L 330 120 L 270 120 L 270 630 Z M 555 -258 C 604 -258 644 -221 644 -172 C 644 -122 604 -86 555 -86 C 505 -86 467 -122 467 -172 C 467 -221 505 -258 555 -258 Z" />
<glyph unicode="Ḫ" horiz-adv-x="1030" d="M 750 0 L 880 0 L 880 750 L 750 750 L 750 335 L 450 335 L 450 750 L 150 750 L 150 0 L 450 0 L 450 215 L 750 215 Z M 330 630 L 330 120 L 270 120 L 270 630 Z M 625 -90 C 625 -130 601 -159 555 -159 C 509 -159 485 -130 485 -90 L 375 -90 C 375 -182 447 -259 555 -259 C 663 -259 735 -181 735 -90 Z" />
<glyph unicode="ḫ" horiz-adv-x="1030" d="M 750 0 L 880 0 L 880 750 L 750 750 L 750 335 L 450 335 L 450 750 L 150 750 L 150 0 L 450 0 L 450 215 L 750 215 Z M 330 630 L 330 120 L 270 120 L 270 630 Z M 625 -90 C 625 -130 601 -159 555 -159 C 509 -159 485 -130 485 -90 L 375 -90 C 375 -182 447 -259 555 -259 C 663 -259 735 -181 735 -90 Z" />
<glyph unicode="Ḷ" horiz-adv-x="882" d="M 822 120 L 450 120 L 450 750 L 150 750 L 150 0 L 822 0 Z M 330 630 L 330 120 L 270 120 L 270 630 Z M 486 -258 C 535 -258 575 -221 575 -172 C 575 -122 535 -86 486 -86 C 436 -86 398 -122 398 -172 C 398 -221 436 -258 486 -258 Z" />
<glyph unicode="ḷ" horiz-adv-x="882" d="M 822 120 L 450 120 L 450 750 L 150 750 L 150 0 L 822 0 Z M 330 630 L 330 120 L 270 120 L 270 630 Z M 486 -258 C 535 -258 575 -221 575 -172 C 575 -122 535 -86 486 -86 C 436 -86 398 -122 398 -172 C 398 -221 436 -258 486 -258 Z" />
<glyph unicode="Ḹ" horiz-adv-x="882" d="M 135 850 L 475 850 L 475 960 L 135 960 Z M 822 120 L 450 120 L 450 750 L 150 750 L 150 0 L 822 0 Z M 330 630 L 330 120 L 270 120 L 270 630 Z M 486 -258 C 535 -258 575 -221 575 -172 C 575 -122 535 -86 486 -86 C 436 -86 398 -122 398 -172 C 398 -221 436 -258 486 -258 Z" />
<glyph unicode="ḹ" horiz-adv-x="882" d="M 135 850 L 475 850 L 475 960 L 135 960 Z M 822 120 L 450 120 L 450 750 L 150 750 L 150 0 L 822 0 Z M 330 630 L 330 120 L 270 120 L 270 630 Z M 486 -258 C 535 -258 575 -221 575 -172 C 575 -122 535 -86 486 -86 C 436 -86 398 -122 398 -172 C 398 -221 436 -258 486 -258 Z" />
<glyph unicode="Ḻ" horiz-adv-x="882" d="M 822 120 L 450 120 L 450 750 L 150 750 L 150 0 L 822 0 Z M 330 630 L 330 120 L 270 120 L 270 630 Z M 316 -210 L 656 -210 L 656 -100 L 316 -100 Z" />
<glyph unicode="ḻ" horiz-adv-x="882" d="M 822 120 L 450 120 L 450 750 L 150 750 L 150 0 L 822 0 Z M 330 630 L 330 120 L 270 120 L 270 630 Z M 316 -210 L 656 -210 L 656 -100 L 316 -100 Z" />
<glyph unicode="Ṃ" horiz-adv-x="1223" d="M 987 0 L 1133 0 L 943 760 L 623 255 L 280 760 L 90 0 L 393 0 L 455 250 L 626 -2 L 883 418 Z M 369 377 L 304 120 L 244 120 L 325 443 Z M 619 -258 C 668 -258 708 -221 708 -172 C 708 -122 668 -86 619 -86 C 569 -86 531 -122 531 -172 C 531 -221 569 -258 619 -258 Z" />
<glyph unicode="ṃ" horiz-adv-x="1223" d="M 987 0 L 1133 0 L 943 760 L 623 255 L 280 760 L 90 0 L 393 0 L 455 250 L 626 -2 L 883 418 Z M 369 377 L 304 120 L 244 120 L 325 443 Z M 619 -258 C 668 -258 708 -221 708 -172 C 708 -122 668 -86 619 -86 C 569 -86 531 -122 531 -172 C 531 -221 569 -258 619 -258 Z" />
<glyph unicode="Ṅ" horiz-adv-x="985" d="M 473 815 C 522 815 562 852 562 901 C 562 951 522 987 473 987 C 423 987 385 951 385 901 C 385 852 423 815 473 815 Z M 835 750 L 695 750 L 695 290 L 150 775 L 150 0 L 450 0 L 450 323 L 835 -25 Z M 330 420 L 330 120 L 270 120 L 270 473 Z" />
<glyph unicode="ṅ" horiz-adv-x="985" d="M 473 815 C 522 815 562 852 562 901 C 562 951 522 987 473 987 C 423 987 385 951 385 901 C 385 852 423 815 473 815 Z M 835 750 L 695 750 L 695 290 L 150 775 L 150 0 L 450 0 L 450 323 L 835 -25 Z M 330 420 L 330 120 L 270 120 L 270 473 Z" />
<glyph unicode="Ṇ" horiz-adv-x="985" d="M 835 750 L 695 750 L 695 290 L 150 775 L 150 0 L 450 0 L 450 323 L 835 -25 Z M 330 420 L 330 120 L 270 120 L 270 473 Z M 493 -258 C 542 -258 582 -221 582 -172 C 582 -122 542 -86 493 -86 C 443 -86 405 -122 405 -172 C 405 -221 443 -258 493 -258 Z" />
<glyph unicode="ṇ" horiz-adv-x="985" d="M 835 750 L 695 750 L 695 290 L 150 775 L 150 0 L 450 0 L 450 323 L 835 -25 Z M 330 420 L 330 120 L 270 120 L 270 473 Z M 493 -258 C 542 -258 582 -221 582 -172 C 582 -122 542 -86 493 -86 C 443 -86 405 -122 405 -172 C 405 -221 443 -258 493 -258 Z" />
<glyph unicode="Ṉ" horiz-adv-x="985" d="M 835 750 L 695 750 L 695 290 L 150 775 L 150 0 L 450 0 L 450 323 L 835 -25 Z M 330 420 L 330 120 L 270 120 L 270 473 Z M 323 -210 L 663 -210 L 663 -100 L 323 -100 Z" />
<glyph unicode="ṉ" horiz-adv-x="985" d="M 835 750 L 695 750 L 695 290 L 150 775 L 150 0 L 450 0 L 450 323 L 835 -25 Z M 330 420 L 330 120 L 270 120 L 270 473 Z M 323 -210 L 663 -210 L 663 -100 L 323 -100 Z" />
<glyph unicode="Ṛ" horiz-adv-x="983" d="M 670 0 L 880 0 L 682 159 C 805 206 883 308 883 438 C 883 621 732 750 517 750 L 150 750 L 150 0 L 450 0 L 450 130 L 508 130 Z M 450 630 L 518 630 C 664 630 753 557 753 438 C 753 320 664 250 518 250 L 450 250 Z M 330 630 L 330 120 L 270 120 L 270 630 Z M 492 -258 C 541 -258 581 -221 581 -172 C 581 -122 541 -86 492 -86 C 442 -86 404 -122 404 -172 C 404 -221 442 -258 492 -258 Z" />
<glyph unicode="ṛ" horiz-adv-x="983" d="M 670 0 L 880 0 L 682 159 C 805 206 883 308 883 438 C 883 621 732 750 517 750 L 150 750 L 150 0 L 450 0 L 450 130 L 508 130 Z M 450 630 L 518 630 C 664 630 753 557 753 438 C 753 320 664 250 518 250 L 450 250 Z M 330 630 L 330 120 L 270 120 L 270 630 Z M 492 -258 C 541 -258 581 -221 581 -172 C 581 -122 541 -86 492 -86 C 442 -86 404 -122 404 -172 C 404 -221 442 -258 492 -258 Z" />
<glyph unicode="Ṝ" horiz-adv-x="983" d="M 322 850 L 662 850 L 662 960 L 322 960 Z M 670 0 L 880 0 L 682 159 C 805 206 883 308 883 438 C 883 621 732 750 517 750 L 150 750 L 150 0 L 450 0 L 450 130 L 508 130 Z M 450 630 L 518 630 C 664 630 753 557 753 438 C 753 320 664 250 518 250 L 450 250 Z M 330 630 L 330 120 L 270 120 L 270 630 Z M 492 -258 C 541 -258 581 -221 581 -172 C 581 -122 541 -86 492 -86 C 442 -86 404 -122 404 -172 C 404 -221 442 -258 492 -258 Z" />
<glyph unicode="ṝ" horiz-adv-x="983" d="M 322 850 L 662 850 L 662 960 L 322 960 Z M 670 0 L 880 0 L 682 159 C 805 206 883 308 883 438 C 883 621 732 750 517 750 L 150 750 L 150 0 L 450 0 L 450 130 L 508 130 Z M 450 630 L 518 630 C 664 630 753 557 753 438 C 753 320 664 250 518 250 L 450 250 Z M 330 630 L 330 120 L 270 120 L 270 630 Z M 492 -258 C 541 -258 581 -221 581 -172 C 581 -122 541 -86 492 -86 C 442 -86 404 -122 404 -172 C 404 -221 442 -258 492 -258 Z" />
<glyph unicode="Ṟ" horiz-adv-x="983" d="M 670 0 L 880 0 L 682 159 C 805 206 883 308 883 438 C 883 621 732 750 517 750 L 150 750 L 150 0 L 450 0 L 450 130 L 508 130 Z M 450 630 L 518 630 C 664 630 753 557 753 438 C 753 320 664 250 518 250 L 450 250 Z M 330 630 L 330 120 L 270 120 L 270 630 Z M 322 -210 L 662 -210 L 662 -100 L 322 -100 Z" />
<glyph unicode="ṟ" horiz-adv-x="983" d="M 670 0 L 880 0 L 682 159 C 805 206 883 308 883 438 C 883 621 732 750 517 750 L 150 750 L 150 0 L 450 0 L 450 130 L 508 130 Z M 450 630 L 518 630 C 664 630 753 557 753 438 C 753 320 664 250 518 250 L 450 250 Z M 330 630 L 330 120 L 270 120 L 270 630 Z M 322 -210 L 662 -210 L 662 -100 L 322 -100 Z" />
<glyph unicode="Ṡ" horiz-adv-x="887" d="M 426 825 C 475 825 515 862 515 911 C 515 961 475 997 426 997 C 376 997 338 961 338 911 C 338 862 376 825 426 825 Z M 787 254 C 787 354 739 448 572 496 L 262 586 C 292 622 349 645 429 645 C 509 645 606 618 676 571 L 714 693 C 641 737 536 765 428 765 C 256 765 122 666 122 506 C 122 400 174 301 348 251 L 643 167 C 608 129 543 106 452 106 C 342 106 209 148 145 217 L 100 95 C 174 29 317 -14 447 -14 C 644 -14 787 88 787 254 Z M 374 367 C 304 387 263 423 246 466 L 540 382 C 626 357 658 321 668 282 Z" />
<glyph unicode="ṡ" horiz-adv-x="887" d="M 426 825 C 475 825 515 862 515 911 C 515 961 475 997 426 997 C 376 997 338 961 338 911 C 338 862 376 825 426 825 Z M 787 254 C 787 354 739 448 572 496 L 262 586 C 292 622 349 645 429 645 C 509 645 606 618 676 571 L 714 693 C 641 737 536 765 428 765 C 256 765 122 666 122 506 C 122 400 174 301 348 251 L 643 167 C 608 129 543 106 452 106 C 342 106 209 148 145 217 L 100 95 C 174 29 317 -14 447 -14 C 644 -14 787 88 787 254 Z M 374 367 C 304 387 263 423 246 466 L 540 382 C 626 357 658 321 668 282 Z" />
<glyph unicode="Ṣ" horiz-adv-x="887" d="M 787 254 C 787 354 739 448 572 496 L 262 586 C 292 622 349 645 429 645 C 509 645 606 618 676 571 L 714 693 C 641 737 536 765 428 765 C 256 765 122 666 122 506 C 122 400 174 301 348 251 L 643 167 C 608 129 543 106 452 106 C 342 106 209 148 145 217 L 100 95 C 174 29 317 -14 447 -14 C 644 -14 787 88 787 254 Z M 374 367 C 304 387 263 423 246 466 L 540 382 C 626 357 658 321 668 282 Z M 442 -258 C 491 -258 531 -221 531 -172 C 531 -122 491 -86 442 -86 C 392 -86 354 -122 354 -172 C 354 -221 392 -258 442 -258 Z" />
<glyph unicode="ṣ" horiz-adv-x="887" d="M 787 254 C 787 354 739 448 572 496 L 262 586 C 292 622 349 645 429 645 C 509 645 606 618 676 571 L 714 693 C 641 737 536 765 428 765 C 256 765 122 666 122 506 C 122 400 174 301 348 251 L 643 167 C 608 129 543 106 452 106 C 342 106 209 148 145 217 L 100 95 C 174 29 317 -14 447 -14 C 644 -14 787 88 787 254 Z M 374 367 C 304 387 263 423 246 466 L 540 382 C 626 357 658 321 668 282 Z M 442 -258 C 491 -258 531 -221 531 -172 C 531 -122 491 -86 442 -86 C 392 -86 354 -122 354 -172 C 354 -221 392 -258 442 -258 Z" />
<glyph unicode="Ṭ" horiz-adv-x="864" d="M 70 630 L 282 630 L 282 0 L 582 0 L 582 630 L 794 630 L 794 750 L 70 750 Z M 462 630 L 462 120 L 402 120 L 402 630 Z M 432 -258 C 481 -258 521 -221 521 -172 C 521 -122 481 -86 432 -86 C 382 -86 344 -122 344 -172 C 344 -221 382 -258 432 -258 Z" />
<glyph unicode="ṭ" horiz-adv-x="864" d="M 70 630 L 282 630 L 282 0 L 582 0 L 582 630 L 794 630 L 794 750 L 70 750 Z M 462 630 L 462 120 L 402 120 L 402 630 Z M 432 -258 C 481 -258 521 -221 521 -172 C 521 -122 481 -86 432 -86 C 382 -86 344 -122 344 -172 C 344 -221 382 -258 432 -258 Z" />
<glyph unicode="Ṯ" horiz-adv-x="864" d="M 70 630 L 282 630 L 282 0 L 582 0 L 582 630 L 794 630 L 794 750 L 70 750 Z M 462 630 L 462 120 L 402 120 L 402 630 Z M 262 -210 L 602 -210 L 602 -100 L 262 -100 Z" />
<glyph unicode="ṯ" horiz-adv-x="864" d="M 70 630 L 282 630 L 282 0 L 582 0 L 582 630 L 794 630 L 794 750 L 70 750 Z M 462 630 L 462 120 L 402 120 L 402 630 Z M 262 -210 L 602 -210 L 602 -100 L 262 -100 Z" />
<glyph unicode="Ẁ" horiz-adv-x="1223" d="M 762 820 L 762 930 L 442 980 L 442 870 Z M 1133 750 L 987 750 L 883 332 L 626 752 L 455 500 L 393 750 L 90 750 L 280 -10 L 623 495 L 943 -10 Z M 369 373 L 325 307 L 244 630 L 304 630 Z" />
<glyph unicode="ẁ" horiz-adv-x="1223" d="M 762 820 L 762 930 L 442 980 L 442 870 Z M 1133 750 L 987 750 L 883 332 L 626 752 L 455 500 L 393 750 L 90 750 L 280 -10 L 623 495 L 943 -10 Z M 369 373 L 325 307 L 244 630 L 304 630 Z" />
<glyph unicode="Ẃ" horiz-adv-x="1223" d="M 462 820 L 782 870 L 782 980 L 462 930 Z M 1133 750 L 987 750 L 883 332 L 626 752 L 455 500 L 393 750 L 90 750 L 280 -10 L 623 495 L 943 -10 Z M 369 373 L 325 307 L 244 630 L 304 630 Z" />
<glyph unicode="ẃ" horiz-adv-x="1223" d="M 462 820 L 782 870 L 782 980 L 462 930 Z M 1133 750 L 987 750 L 883 332 L 626 752 L 455 500 L 393 750 L 90 750 L 280 -10 L 623 495 L 943 -10 Z M 369 373 L 325 307 L 244 630 L 304 630 Z" />
<glyph unicode="Ẅ" horiz-adv-x="1223" d="M 497 825 C 546 825 586 862 586 911 C 586 961 546 997 497 997 C 447 997 409 961 409 911 C 409 862 447 825 497 825 Z M 726 825 C 775 825 815 862 815 911 C 815 961 775 997 726 997 C 676 997 638 961 638 911 C 638 862 676 825 726 825 Z M 1133 750 L 987 750 L 883 332 L 626 752 L 455 500 L 393 750 L 90 750 L 280 -10 L 623 495 L 943 -10 Z M 369 373 L 325 307 L 244 630 L 304 630 Z" />
<glyph unicode="ẅ" horiz-adv-x="1223" d="M 497 825 C 546 825 586 862 586 911 C 586 961 546 997 497 997 C 447 997 409 961 409 911 C 409 862 447 825 497 825 Z M 726 825 C 775 825 815 862 815 911 C 815 961 775 997 726 997 C 676 997 638 961 638 911 C 638 862 676 825 726 825 Z M 1133 750 L 987 750 L 883 332 L 626 752 L 455 500 L 393 750 L 90 750 L 280 -10 L 623 495 L 943 -10 Z M 369 373 L 325 307 L 244 630 L 304 630 Z" />
<glyph unicode="Ẏ" horiz-adv-x="964" d="M 532 825 C 581 825 621 862 621 911 C 621 961 581 997 532 997 C 482 997 444 961 444 911 C 444 862 482 825 532 825 Z M 934 750 L 787 750 L 581 405 L 374 750 L 30 750 L 332 250 L 332 0 L 632 0 L 632 250 Z M 512 293 L 512 120 L 452 120 L 452 277 L 240 630 L 309 630 Z" />
<glyph unicode="ẏ" horiz-adv-x="964" d="M 532 825 C 581 825 621 862 621 911 C 621 961 581 997 532 997 C 482 997 444 961 444 911 C 444 862 482 825 532 825 Z M 934 750 L 787 750 L 581 405 L 374 750 L 30 750 L 332 250 L 332 0 L 632 0 L 632 250 Z M 512 293 L 512 120 L 452 120 L 452 277 L 240 630 L 309 630 Z" />
<glyph unicode="Ẓ" horiz-adv-x="953" d="M 148 630 L 438 630 L 100 0 L 843 0 L 843 120 L 503 120 L 841 750 L 148 750 Z M 641 630 L 367 120 L 299 120 L 573 630 Z M 466 -258 C 515 -258 555 -221 555 -172 C 555 -122 515 -86 466 -86 C 416 -86 378 -122 378 -172 C 378 -221 416 -258 466 -258 Z" />
<glyph unicode="ẓ" horiz-adv-x="953" d="M 148 630 L 438 630 L 100 0 L 843 0 L 843 120 L 503 120 L 841 750 L 148 750 Z M 641 630 L 367 120 L 299 120 L 573 630 Z M 466 -258 C 515 -258 555 -221 555 -172 C 555 -122 515 -86 466 -86 C 416 -86 378 -122 378 -172 C 378 -221 416 -258 466 -258 Z" />
<glyph unicode="ẞ" horiz-adv-x="1104" d="M 150 0 L 450 0 L 450 630 L 649 630 L 555 388 L 719 388 C 799 388 874 348 874 247 C 874 146 799 106 719 106 C 642 106 577 141 545 169 L 500 54 C 547 19 624 -14 721 -14 C 887 -14 1004 88 1004 247 C 1004 403 892 504 731 508 L 825 750 L 150 750 Z M 330 630 L 330 120 L 270 120 L 270 630 Z" />
<glyph unicode="Ạ" horiz-adv-x="1004" d="M 631 0 L 974 0 L 502 762 L 30 0 L 177 0 L 220 70 L 588 70 Z M 472 477 L 506 533 L 763 120 L 694 120 Z M 294 190 L 404 368 L 514 190 Z M 502 -258 C 551 -258 591 -221 591 -172 C 591 -122 551 -86 502 -86 C 452 -86 414 -122 414 -172 C 414 -221 452 -258 502 -258 Z" />
<glyph unicode="ạ" horiz-adv-x="1004" d="M 631 0 L 974 0 L 502 762 L 30 0 L 177 0 L 220 70 L 588 70 Z M 472 477 L 506 533 L 763 120 L 694 120 Z M 294 190 L 404 368 L 514 190 Z M 502 -258 C 551 -258 591 -221 591 -172 C 591 -122 551 -86 502 -86 C 452 -86 414 -122 414 -172 C 414 -221 452 -258 502 -258 Z" />
<glyph unicode="Ả" horiz-adv-x="1004" d="M 364 922 L 485 922 L 466 830 L 574 830 L 614 1022 L 364 1022 Z M 631 0 L 974 0 L 502 762 L 30 0 L 177 0 L 220 70 L 588 70 Z M 472 477 L 506 533 L 763 120 L 694 120 Z M 294 190 L 404 368 L 514 190 Z" />
<glyph unicode="ả" horiz-adv-x="1004" d="M 364 922 L 485 922 L 466 830 L 574 830 L 614 1022 L 364 1022 Z M 631 0 L 974 0 L 502 762 L 30 0 L 177 0 L 220 70 L 588 70 Z M 472 477 L 506 533 L 763 120 L 694 120 Z M 294 190 L 404 368 L 514 190 Z" />
<glyph unicode="Ấ" horiz-adv-x="1004" d="M 593 985 L 707 985 L 757 1145 L 643 1145 Z M 332 800 L 502 850 L 672 800 L 672 910 L 502 960 L 332 910 Z M 631 0 L 974 0 L 502 762 L 30 0 L 177 0 L 220 70 L 588 70 Z M 472 477 L 506 533 L 763 120 L 694 120 Z M 294 190 L 404 368 L 514 190 Z" />
<glyph unicode="ấ" horiz-adv-x="1004" d="M 593 985 L 707 985 L 757 1145 L 643 1145 Z M 332 800 L 502 850 L 672 800 L 672 910 L 502 960 L 332 910 Z M 631 0 L 974 0 L 502 762 L 30 0 L 177 0 L 220 70 L 588 70 Z M 472 477 L 506 533 L 763 120 L 694 120 Z M 294 190 L 404 368 L 514 190 Z" />
<glyph unicode="Ầ" horiz-adv-x="1004" d="M 747 985 L 697 1145 L 583 1145 L 633 985 Z M 332 800 L 502 850 L 672 800 L 672 910 L 502 960 L 332 910 Z M 631 0 L 974 0 L 502 762 L 30 0 L 177 0 L 220 70 L 588 70 Z M 472 477 L 506 533 L 763 120 L 694 120 Z M 294 190 L 404 368 L 514 190 Z" />
<glyph unicode="ầ" horiz-adv-x="1004" d="M 747 985 L 697 1145 L 583 1145 L 633 985 Z M 332 800 L 502 850 L 672 800 L 672 910 L 502 960 L 332 910 Z M 631 0 L 974 0 L 502 762 L 30 0 L 177 0 L 220 70 L 588 70 Z M 472 477 L 506 533 L 763 120 L 694 120 Z M 294 190 L 404 368 L 514 190 Z" />
<glyph unicode="Ẩ" horiz-adv-x="1004" d="M 484 1072 L 604 1072 L 586 990 L 694 990 L 734 1172 L 484 1172 Z M 332 800 L 502 850 L 672 800 L 672 910 L 502 960 L 332 910 Z M 631 0 L 974 0 L 502 762 L 30 0 L 177 0 L 220 70 L 588 70 Z M 472 477 L 506 533 L 763 120 L 694 120 Z M 294 190 L 404 368 L 514 190 Z" />
<glyph unicode="ẩ" horiz-adv-x="1004" d="M 484 1072 L 604 1072 L 586 990 L 694 990 L 734 1172 L 484 1172 Z M 332 800 L 502 850 L 672 800 L 672 910 L 502 960 L 332 910 Z M 631 0 L 974 0 L 502 762 L 30 0 L 177 0 L 220 70 L 588 70 Z M 472 477 L 506 533 L 763 120 L 694 120 Z M 294 190 L 404 368 L 514 190 Z" />
<glyph unicode="Ẫ" horiz-adv-x="1004" d="M 672 1132 C 648 1110 610 1104 572 1107 C 526 1110 479 1130 432 1133 C 394 1136 356 1130 332 1109 L 332 999 C 356 1020 394 1026 432 1023 C 479 1020 526 1000 572 997 C 610 994 648 1000 672 1022 Z M 332 800 L 502 850 L 672 800 L 672 910 L 502 960 L 332 910 Z M 631 0 L 974 0 L 502 762 L 30 0 L 177 0 L 220 70 L 588 70 Z M 472 477 L 506 533 L 763 120 L 694 120 Z M 294 190 L 404 368 L 514 190 Z" />
<glyph unicode="ẫ" horiz-adv-x="1004" d="M 672 1132 C 648 1110 610 1104 572 1107 C 526 1110 479 1130 432 1133 C 394 1136 356 1130 332 1109 L 332 999 C 356 1020 394 1026 432 1023 C 479 1020 526 1000 572 997 C 610 994 648 1000 672 1022 Z M 332 800 L 502 850 L 672 800 L 672 910 L 502 960 L 332 910 Z M 631 0 L 974 0 L 502 762 L 30 0 L 177 0 L 220 70 L 588 70 Z M 472 477 L 506 533 L 763 120 L 694 120 Z M 294 190 L 404 368 L 514 190 Z" />
<glyph unicode="Ậ" horiz-adv-x="1004" d="M 332 820 L 502 870 L 672 820 L 672 930 L 502 980 L 332 930 Z M 631 0 L 974 0 L 502 762 L 30 0 L 177 0 L 220 70 L 588 70 Z M 472 477 L 506 533 L 763 120 L 694 120 Z M 294 190 L 404 368 L 514 190 Z M 502 -258 C 551 -258 591 -221 591 -172 C 591 -122 551 -86 502 -86 C 452 -86 414 -122 414 -172 C 414 -221 452 -258 502 -258 Z" />
<glyph unicode="ậ" horiz-adv-x="1004" d="M 332 820 L 502 870 L 672 820 L 672 930 L 502 980 L 332 930 Z M 631 0 L 974 0 L 502 762 L 30 0 L 177 0 L 220 70 L 588 70 Z M 472 477 L 506 533 L 763 120 L 694 120 Z M 294 190 L 404 368 L 514 190 Z M 502 -258 C 551 -258 591 -221 591 -172 C 591 -122 551 -86 502 -86 C 452 -86 414 -122 414 -172 C 414 -221 452 -258 502 -258 Z" />
<glyph unicode="Ắ" horiz-adv-x="1004" d="M 445 1005 L 559 1005 L 599 1165 L 485 1165 Z M 572 969 C 572 929 548 900 502 900 C 456 900 432 929 432 969 L 322 969 C 322 877 394 800 502 800 C 610 800 682 878 682 969 Z M 631 0 L 974 0 L 502 762 L 30 0 L 177 0 L 220 70 L 588 70 Z M 472 477 L 506 533 L 763 120 L 694 120 Z M 294 190 L 404 368 L 514 190 Z" />
<glyph unicode="ắ" horiz-adv-x="1004" d="M 445 1005 L 559 1005 L 599 1165 L 485 1165 Z M 572 969 C 572 929 548 900 502 900 C 456 900 432 929 432 969 L 322 969 C 322 877 394 800 502 800 C 610 800 682 878 682 969 Z M 631 0 L 974 0 L 502 762 L 30 0 L 177 0 L 220 70 L 588 70 Z M 472 477 L 506 533 L 763 120 L 694 120 Z M 294 190 L 404 368 L 514 190 Z" />
<glyph unicode="Ằ" horiz-adv-x="1004" d="M 559 1005 L 519 1165 L 405 1165 L 445 1005 Z M 572 969 C 572 929 548 900 502 900 C 456 900 432 929 432 969 L 322 969 C 322 877 394 800 502 800 C 610 800 682 878 682 969 Z M 631 0 L 974 0 L 502 762 L 30 0 L 177 0 L 220 70 L 588 70 Z M 472 477 L 506 533 L 763 120 L 694 120 Z M 294 190 L 404 368 L 514 190 Z" />
<glyph unicode="ằ" horiz-adv-x="1004" d="M 559 1005 L 519 1165 L 405 1165 L 445 1005 Z M 572 969 C 572 929 548 900 502 900 C 456 900 432 929 432 969 L 322 969 C 322 877 394 800 502 800 C 610 800 682 878 682 969 Z M 631 0 L 974 0 L 502 762 L 30 0 L 177 0 L 220 70 L 588 70 Z M 472 477 L 506 533 L 763 120 L 694 120 Z M 294 190 L 404 368 L 514 190 Z" />
<glyph unicode="Ẳ" horiz-adv-x="1004" d="M 344 1092 L 464 1092 L 446 1010 L 554 1010 L 594 1192 L 344 1192 Z M 572 969 C 572 929 548 900 502 900 C 456 900 432 929 432 969 L 322 969 C 322 877 394 800 502 800 C 610 800 682 878 682 969 Z M 631 0 L 974 0 L 502 762 L 30 0 L 177 0 L 220 70 L 588 70 Z M 472 477 L 506 533 L 763 120 L 694 120 Z M 294 190 L 404 368 L 514 190 Z" />
<glyph unicode="ẳ" horiz-adv-x="1004" d="M 344 1092 L 464 1092 L 446 1010 L 554 1010 L 594 1192 L 344 1192 Z M 572 969 C 572 929 548 900 502 900 C 456 900 432 929 432 969 L 322 969 C 322 877 394 800 502 800 C 610 800 682 878 682 969 Z M 631 0 L 974 0 L 502 762 L 30 0 L 177 0 L 220 70 L 588 70 Z M 472 477 L 506 533 L 763 120 L 694 120 Z M 294 190 L 404 368 L 514 190 Z" />
<glyph unicode="Ẵ" horiz-adv-x="1004" d="M 672 1152 C 648 1130 610 1124 572 1127 C 526 1130 479 1150 432 1153 C 394 1156 356 1150 332 1129 L 332 1019 C 356 1040 394 1046 432 1043 C 479 1040 526 1020 572 1017 C 610 1014 648 1020 672 1042 Z M 572 969 C 572 929 548 900 502 900 C 456 900 432 929 432 969 L 322 969 C 322 877 394 800 502 800 C 610 800 682 878 682 969 Z M 631 0 L 974 0 L 502 762 L 30 0 L 177 0 L 220 70 L 588 70 Z M 472 477 L 506 533 L 763 120 L 694 120 Z M 294 190 L 404 368 L 514 190 Z" />
<glyph unicode="ẵ" horiz-adv-x="1004" d="M 672 1152 C 648 1130 610 1124 572 1127 C 526 1130 479 1150 432 1153 C 394 1156 356 1150 332 1129 L 332 1019 C 356 1040 394 1046 432 1043 C 479 1040 526 1020 572 1017 C 610 1014 648 1020 672 1042 Z M 572 969 C 572 929 548 900 502 900 C 456 900 432 929 432 969 L 322 969 C 322 877 394 800 502 800 C 610 800 682 878 682 969 Z M 631 0 L 974 0 L 502 762 L 30 0 L 177 0 L 220 70 L 588 70 Z M 472 477 L 506 533 L 763 120 L 694 120 Z M 294 190 L 404 368 L 514 190 Z" />
<glyph unicode="Ặ" horiz-adv-x="1004" d="M 572 989 C 572 949 548 920 502 920 C 456 920 432 949 432 989 L 322 989 C 322 897 394 820 502 820 C 610 820 682 898 682 989 Z M 631 0 L 974 0 L 502 762 L 30 0 L 177 0 L 220 70 L 588 70 Z M 472 477 L 506 533 L 763 120 L 694 120 Z M 294 190 L 404 368 L 514 190 Z M 502 -258 C 551 -258 591 -221 591 -172 C 591 -122 551 -86 502 -86 C 452 -86 414 -122 414 -172 C 414 -221 452 -258 502 -258 Z" />
<glyph unicode="ặ" horiz-adv-x="1004" d="M 572 989 C 572 949 548 920 502 920 C 456 920 432 949 432 989 L 322 989 C 322 897 394 820 502 820 C 610 820 682 898 682 989 Z M 631 0 L 974 0 L 502 762 L 30 0 L 177 0 L 220 70 L 588 70 Z M 472 477 L 506 533 L 763 120 L 694 120 Z M 294 190 L 404 368 L 514 190 Z M 502 -258 C 551 -258 591 -221 591 -172 C 591 -122 551 -86 502 -86 C 452 -86 414 -122 414 -172 C 414 -221 452 -258 502 -258 Z" />
<glyph unicode="Ẹ" horiz-adv-x="930" d="M 150 0 L 830 0 L 830 120 L 450 120 L 450 273 L 660 273 L 660 393 L 450 393 L 450 630 L 830 630 L 830 750 L 150 750 Z M 330 630 L 330 120 L 270 120 L 270 630 Z M 495 -258 C 544 -258 584 -221 584 -172 C 584 -122 544 -86 495 -86 C 445 -86 407 -122 407 -172 C 407 -221 445 -258 495 -258 Z" />
<glyph unicode="ẹ" horiz-adv-x="930" d="M 150 0 L 830 0 L 830 120 L 450 120 L 450 273 L 660 273 L 660 393 L 450 393 L 450 630 L 830 630 L 830 750 L 150 750 Z M 330 630 L 330 120 L 270 120 L 270 630 Z M 495 -258 C 544 -258 584 -221 584 -172 C 584 -122 544 -86 495 -86 C 445 -86 407 -122 407 -172 C 407 -221 445 -258 495 -258 Z" />
<glyph unicode="Ẻ" horiz-adv-x="930" d="M 357 922 L 478 922 L 459 830 L 567 830 L 607 1022 L 357 1022 Z M 150 0 L 830 0 L 830 120 L 450 120 L 450 273 L 660 273 L 660 393 L 450 393 L 450 630 L 830 630 L 830 750 L 150 750 Z M 330 630 L 330 120 L 270 120 L 270 630 Z" />
<glyph unicode="ẻ" horiz-adv-x="930" d="M 357 922 L 478 922 L 459 830 L 567 830 L 607 1022 L 357 1022 Z M 150 0 L 830 0 L 830 120 L 450 120 L 450 273 L 660 273 L 660 393 L 450 393 L 450 630 L 830 630 L 830 750 L 150 750 Z M 330 630 L 330 120 L 270 120 L 270 630 Z" />
<glyph unicode="Ẽ" horiz-adv-x="930" d="M 665 972 C 641 950 603 944 565 947 C 519 950 472 970 425 973 C 387 976 349 970 325 949 L 325 839 C 349 860 387 866 425 863 C 472 860 519 840 565 837 C 603 834 641 840 665 862 Z M 150 0 L 830 0 L 830 120 L 450 120 L 450 273 L 660 273 L 660 393 L 450 393 L 450 630 L 830 630 L 830 750 L 150 750 Z M 330 630 L 330 120 L 270 120 L 270 630 Z" />
<glyph unicode="ẽ" horiz-adv-x="930" d="M 665 972 C 641 950 603 944 565 947 C 519 950 472 970 425 973 C 387 976 349 970 325 949 L 325 839 C 349 860 387 866 425 863 C 472 860 519 840 565 837 C 603 834 641 840 665 862 Z M 150 0 L 830 0 L 830 120 L 450 120 L 450 273 L 660 273 L 660 393 L 450 393 L 450 630 L 830 630 L 830 750 L 150 750 Z M 330 630 L 330 120 L 270 120 L 270 630 Z" />
<glyph unicode="Ế" horiz-adv-x="930" d="M 586 985 L 700 985 L 750 1145 L 636 1145 Z M 325 800 L 495 850 L 665 800 L 665 910 L 495 960 L 325 910 Z M 150 0 L 830 0 L 830 120 L 450 120 L 450 273 L 660 273 L 660 393 L 450 393 L 450 630 L 830 630 L 830 750 L 150 750 Z M 330 630 L 330 120 L 270 120 L 270 630 Z" />
<glyph unicode="ế" horiz-adv-x="930" d="M 586 985 L 700 985 L 750 1145 L 636 1145 Z M 325 800 L 495 850 L 665 800 L 665 910 L 495 960 L 325 910 Z M 150 0 L 830 0 L 830 120 L 450 120 L 450 273 L 660 273 L 660 393 L 450 393 L 450 630 L 830 630 L 830 750 L 150 750 Z M 330 630 L 330 120 L 270 120 L 270 630 Z" />
<glyph unicode="Ề" horiz-adv-x="930" d="M 740 985 L 690 1145 L 576 1145 L 626 985 Z M 325 800 L 495 850 L 665 800 L 665 910 L 495 960 L 325 910 Z M 150 0 L 830 0 L 830 120 L 450 120 L 450 273 L 660 273 L 660 393 L 450 393 L 450 630 L 830 630 L 830 750 L 150 750 Z M 330 630 L 330 120 L 270 120 L 270 630 Z" />
<glyph unicode="ề" horiz-adv-x="930" d="M 740 985 L 690 1145 L 576 1145 L 626 985 Z M 325 800 L 495 850 L 665 800 L 665 910 L 495 960 L 325 910 Z M 150 0 L 830 0 L 830 120 L 450 120 L 450 273 L 660 273 L 660 393 L 450 393 L 450 630 L 830 630 L 830 750 L 150 750 Z M 330 630 L 330 120 L 270 120 L 270 630 Z" />
<glyph unicode="Ể" horiz-adv-x="930" d="M 477 1072 L 597 1072 L 579 990 L 687 990 L 727 1172 L 477 1172 Z M 325 800 L 495 850 L 665 800 L 665 910 L 495 960 L 325 910 Z M 150 0 L 830 0 L 830 120 L 450 120 L 450 273 L 660 273 L 660 393 L 450 393 L 450 630 L 830 630 L 830 750 L 150 750 Z M 330 630 L 330 120 L 270 120 L 270 630 Z" />
<glyph unicode="ể" horiz-adv-x="930" d="M 477 1072 L 597 1072 L 579 990 L 687 990 L 727 1172 L 477 1172 Z M 325 800 L 495 850 L 665 800 L 665 910 L 495 960 L 325 910 Z M 150 0 L 830 0 L 830 120 L 450 120 L 450 273 L 660 273 L 660 393 L 450 393 L 450 630 L 830 630 L 830 750 L 150 750 Z M 330 630 L 330 120 L 270 120 L 270 630 Z" />
<glyph unicode="Ễ" horiz-adv-x="930" d="M 665 1132 C 641 1110 603 1104 565 1107 C 519 1110 472 1130 425 1133 C 387 1136 349 1130 325 1109 L 325 999 C 349 1020 387 1026 425 1023 C 472 1020 519 1000 565 997 C 603 994 641 1000 665 1022 Z M 325 800 L 495 850 L 665 800 L 665 910 L 495 960 L 325 910 Z M 150 0 L 830 0 L 830 120 L 450 120 L 450 273 L 660 273 L 660 393 L 450 393 L 450 630 L 830 630 L 830 750 L 150 750 Z M 330 630 L 330 120 L 270 120 L 270 630 Z" />
<glyph unicode="ễ" horiz-adv-x="930" d="M 665 1132 C 641 1110 603 1104 565 1107 C 519 1110 472 1130 425 1133 C 387 1136 349 1130 325 1109 L 325 999 C 349 1020 387 1026 425 1023 C 472 1020 519 1000 565 997 C 603 994 641 1000 665 1022 Z M 325 800 L 495 850 L 665 800 L 665 910 L 495 960 L 325 910 Z M 150 0 L 830 0 L 830 120 L 450 120 L 450 273 L 660 273 L 660 393 L 450 393 L 450 630 L 830 630 L 830 750 L 150 750 Z M 330 630 L 330 120 L 270 120 L 270 630 Z" />
<glyph unicode="Ệ" horiz-adv-x="930" d="M 325 820 L 495 870 L 665 820 L 665 930 L 495 980 L 325 930 Z M 150 0 L 830 0 L 830 120 L 450 120 L 450 273 L 660 273 L 660 393 L 450 393 L 450 630 L 830 630 L 830 750 L 150 750 Z M 330 630 L 330 120 L 270 120 L 270 630 Z M 495 -258 C 544 -258 584 -221 584 -172 C 584 -122 544 -86 495 -86 C 445 -86 407 -122 407 -172 C 407 -221 445 -258 495 -258 Z" />
<glyph unicode="ệ" horiz-adv-x="930" d="M 325 820 L 495 870 L 665 820 L 665 930 L 495 980 L 325 930 Z M 150 0 L 830 0 L 830 120 L 450 120 L 450 273 L 660 273 L 660 393 L 450 393 L 450 630 L 830 630 L 830 750 L 150 750 Z M 330 630 L 330 120 L 270 120 L 270 630 Z M 495 -258 C 544 -258 584 -221 584 -172 C 584 -122 544 -86 495 -86 C 445 -86 407 -122 407 -172 C 407 -221 445 -258 495 -258 Z" />
<glyph unicode="Ỉ" horiz-adv-x="620" d="M 172 922 L 293 922 L 274 830 L 382 830 L 422 1022 L 172 1022 Z M 150 0 L 470 0 L 470 750 L 150 750 Z M 340 630 L 340 120 L 280 120 L 280 630 Z" />
<glyph unicode="ỉ" horiz-adv-x="620" d="M 172 922 L 293 922 L 274 830 L 382 830 L 422 1022 L 172 1022 Z M 150 0 L 470 0 L 470 750 L 150 750 Z M 340 630 L 340 120 L 280 120 L 280 630 Z" />
<glyph unicode="Ị" horiz-adv-x="620" d="M 150 0 L 470 0 L 470 750 L 150 750 Z M 340 630 L 340 120 L 280 120 L 280 630 Z M 310 -258 C 359 -258 399 -221 399 -172 C 399 -122 359 -86 310 -86 C 260 -86 222 -122 222 -172 C 222 -221 260 -258 310 -258 Z" />
<glyph unicode="ị" horiz-adv-x="620" d="M 150 0 L 470 0 L 470 750 L 150 750 Z M 340 630 L 340 120 L 280 120 L 280 630 Z M 310 -258 C 359 -258 399 -221 399 -172 C 399 -122 359 -86 310 -86 C 260 -86 222 -122 222 -172 C 222 -221 260 -258 310 -258 Z" />
<glyph unicode="Ọ" horiz-adv-x="1027" d="M 513 -14 C 750 -14 927 149 927 376 C 927 603 750 766 513 766 C 276 766 100 603 100 376 C 100 149 276 -14 513 -14 Z M 513 646 C 680 646 797 538 797 376 C 797 214 680 106 513 106 C 472 106 434 112 400 123 L 400 629 C 434 640 472 646 513 646 Z M 219 376 C 219 445 241 505 280 550 L 280 202 C 241 247 219 307 219 376 Z M 514 -258 C 563 -258 603 -221 603 -172 C 603 -122 563 -86 514 -86 C 464 -86 426 -122 426 -172 C 426 -221 464 -258 514 -258 Z" />
<glyph unicode="ọ" horiz-adv-x="1027" d="M 513 -14 C 750 -14 927 149 927 376 C 927 603 750 766 513 766 C 276 766 100 603 100 376 C 100 149 276 -14 513 -14 Z M 513 646 C 680 646 797 538 797 376 C 797 214 680 106 513 106 C 472 106 434 112 400 123 L 400 629 C 434 640 472 646 513 646 Z M 219 376 C 219 445 241 505 280 550 L 280 202 C 241 247 219 307 219 376 Z M 514 -258 C 563 -258 603 -221 603 -172 C 603 -122 563 -86 514 -86 C 464 -86 426 -122 426 -172 C 426 -221 464 -258 514 -258 Z" />
<glyph unicode="Ỏ" horiz-adv-x="1027" d="M 376 922 L 497 922 L 478 830 L 586 830 L 626 1022 L 376 1022 Z M 513 -14 C 750 -14 927 149 927 376 C 927 603 750 766 513 766 C 276 766 100 603 100 376 C 100 149 276 -14 513 -14 Z M 513 646 C 680 646 797 538 797 376 C 797 214 680 106 513 106 C 472 106 434 112 400 123 L 400 629 C 434 640 472 646 513 646 Z M 219 376 C 219 445 241 505 280 550 L 280 202 C 241 247 219 307 219 376 Z" />
<glyph unicode="ỏ" horiz-adv-x="1027" d="M 376 922 L 497 922 L 478 830 L 586 830 L 626 1022 L 376 1022 Z M 513 -14 C 750 -14 927 149 927 376 C 927 603 750 766 513 766 C 276 766 100 603 100 376 C 100 149 276 -14 513 -14 Z M 513 646 C 680 646 797 538 797 376 C 797 214 680 106 513 106 C 472 106 434 112 400 123 L 400 629 C 434 640 472 646 513 646 Z M 219 376 C 219 445 241 505 280 550 L 280 202 C 241 247 219 307 219 376 Z" />
<glyph unicode="Ố" horiz-adv-x="1027" d="M 605 985 L 719 985 L 769 1145 L 655 1145 Z M 344 800 L 514 850 L 684 800 L 684 910 L 514 960 L 344 910 Z M 513 -14 C 750 -14 927 149 927 376 C 927 603 750 766 513 766 C 276 766 100 603 100 376 C 100 149 276 -14 513 -14 Z M 513 646 C 680 646 797 538 797 376 C 797 214 680 106 513 106 C 472 106 434 112 400 123 L 400 629 C 434 640 472 646 513 646 Z M 219 376 C 219 445 241 505 280 550 L 280 202 C 241 247 219 307 219 376 Z" />
<glyph unicode="ố" horiz-adv-x="1027" d="M 605 985 L 719 985 L 769 1145 L 655 1145 Z M 344 800 L 514 850 L 684 800 L 684 910 L 514 960 L 344 910 Z M 513 -14 C 750 -14 927 149 927 376 C 927 603 750 766 513 766 C 276 766 100 603 100 376 C 100 149 276 -14 513 -14 Z M 513 646 C 680 646 797 538 797 376 C 797 214 680 106 513 106 C 472 106 434 112 400 123 L 400 629 C 434 640 472 646 513 646 Z M 219 376 C 219 445 241 505 280 550 L 280 202 C 241 247 219 307 219 376 Z" />
<glyph unicode="Ồ" horiz-adv-x="1027" d="M 759 985 L 709 1145 L 595 1145 L 645 985 Z M 344 800 L 514 850 L 684 800 L 684 910 L 514 960 L 344 910 Z M 513 -14 C 750 -14 927 149 927 376 C 927 603 750 766 513 766 C 276 766 100 603 100 376 C 100 149 276 -14 513 -14 Z M 513 646 C 680 646 797 538 797 376 C 797 214 680 106 513 106 C 472 106 434 112 400 123 L 400 629 C 434 640 472 646 513 646 Z M 219 376 C 219 445 241 505 280 550 L 280 202 C 241 247 219 307 219 376 Z" />
<glyph unicode="ồ" horiz-adv-x="1027" d="M 759 985 L 709 1145 L 595 1145 L 645 985 Z M 344 800 L 514 850 L 684 800 L 684 910 L 514 960 L 344 910 Z M 513 -14 C 750 -14 927 149 927 376 C 927 603 750 766 513 766 C 276 766 100 603 100 376 C 100 149 276 -14 513 -14 Z M 513 646 C 680 646 797 538 797 376 C 797 214 680 106 513 106 C 472 106 434 112 400 123 L 400 629 C 434 640 472 646 513 646 Z M 219 376 C 219 445 241 505 280 550 L 280 202 C 241 247 219 307 219 376 Z" />
<glyph unicode="Ổ" horiz-adv-x="1027" d="M 496 1072 L 616 1072 L 598 990 L 706 990 L 746 1172 L 496 1172 Z M 344 800 L 514 850 L 684 800 L 684 910 L 514 960 L 344 910 Z M 513 -14 C 750 -14 927 149 927 376 C 927 603 750 766 513 766 C 276 766 100 603 100 376 C 100 149 276 -14 513 -14 Z M 513 646 C 680 646 797 538 797 376 C 797 214 680 106 513 106 C 472 106 434 112 400 123 L 400 629 C 434 640 472 646 513 646 Z M 219 376 C 219 445 241 505 280 550 L 280 202 C 241 247 219 307 219 376 Z" />
<glyph unicode="ổ" horiz-adv-x="1027" d="M 496 1072 L 616 1072 L 598 990 L 706 990 L 746 1172 L 496 1172 Z M 344 800 L 514 850 L 684 800 L 684 910 L 514 960 L 344 910 Z M 513 -14 C 750 -14 927 149 927 376 C 927 603 750 766 513 766 C 276 766 100 603 100 376 C 100 149 276 -14 513 -14 Z M 513 646 C 680 646 797 538 797 376 C 797 214 680 106 513 106 C 472 106 434 112 400 123 L 400 629 C 434 640 472 646 513 646 Z M 219 376 C 219 445 241 505 280 550 L 280 202 C 241 247 219 307 219 376 Z" />
<glyph unicode="Ỗ" horiz-adv-x="1027" d="M 684 1132 C 660 1110 622 1104 584 1107 C 538 1110 491 1130 444 1133 C 406 1136 368 1130 344 1109 L 344 999 C 368 1020 406 1026 444 1023 C 491 1020 538 1000 584 997 C 622 994 660 1000 684 1022 Z M 344 800 L 514 850 L 684 800 L 684 910 L 514 960 L 344 910 Z M 513 -14 C 750 -14 927 149 927 376 C 927 603 750 766 513 766 C 276 766 100 603 100 376 C 100 149 276 -14 513 -14 Z M 513 646 C 680 646 797 538 797 376 C 797 214 680 106 513 106 C 472 106 434 112 400 123 L 400 629 C 434 640 472 646 513 646 Z M 219 376 C 219 445 241 505 280 550 L 280 202 C 241 247 219 307 219 376 Z" />
<glyph unicode="ỗ" horiz-adv-x="1027" d="M 684 1132 C 660 1110 622 1104 584 1107 C 538 1110 491 1130 444 1133 C 406 1136 368 1130 344 1109 L 344 999 C 368 1020 406 1026 444 1023 C 491 1020 538 1000 584 997 C 622 994 660 1000 684 1022 Z M 344 800 L 514 850 L 684 800 L 684 910 L 514 960 L 344 910 Z M 513 -14 C 750 -14 927 149 927 376 C 927 603 750 766 513 766 C 276 766 100 603 100 376 C 100 149 276 -14 513 -14 Z M 513 646 C 680 646 797 538 797 376 C 797 214 680 106 513 106 C 472 106 434 112 400 123 L 400 629 C 434 640 472 646 513 646 Z M 219 376 C 219 445 241 505 280 550 L 280 202 C 241 247 219 307 219 376 Z" />
<glyph unicode="Ộ" horiz-adv-x="1027" d="M 344 820 L 514 870 L 684 820 L 684 930 L 514 980 L 344 930 Z M 513 -14 C 750 -14 927 149 927 376 C 927 603 750 766 513 766 C 276 766 100 603 100 376 C 100 149 276 -14 513 -14 Z M 513 646 C 680 646 797 538 797 376 C 797 214 680 106 513 106 C 472 106 434 112 400 123 L 400 629 C 434 640 472 646 513 646 Z M 219 376 C 219 445 241 505 280 550 L 280 202 C 241 247 219 307 219 376 Z M 514 -258 C 563 -258 603 -221 603 -172 C 603 -122 563 -86 514 -86 C 464 -86 426 -122 426 -172 C 426 -221 464 -258 514 -258 Z" />
<glyph unicode="ộ" horiz-adv-x="1027" d="M 344 820 L 514 870 L 684 820 L 684 930 L 514 980 L 344 930 Z M 513 -14 C 750 -14 927 149 927 376 C 927 603 750 766 513 766 C 276 766 100 603 100 376 C 100 149 276 -14 513 -14 Z M 513 646 C 680 646 797 538 797 376 C 797 214 680 106 513 106 C 472 106 434 112 400 123 L 400 629 C 434 640 472 646 513 646 Z M 219 376 C 219 445 241 505 280 550 L 280 202 C 241 247 219 307 219 376 Z M 514 -258 C 563 -258 603 -221 603 -172 C 603 -122 563 -86 514 -86 C 464 -86 426 -122 426 -172 C 426 -221 464 -258 514 -258 Z" />
<glyph unicode="Ớ" horiz-adv-x="1047" d="M 344 820 L 664 870 L 664 980 L 344 930 Z M 927 376 C 927 498 875 602 791 672 L 867 672 L 907 870 L 783 870 L 749 702 C 683 743 602 766 513 766 C 276 766 100 603 100 376 C 100 149 276 -14 513 -14 C 750 -14 927 149 927 376 Z M 513 646 C 680 646 797 538 797 376 C 797 214 680 106 513 106 C 472 106 434 112 400 123 L 400 629 C 434 640 472 646 513 646 Z M 219 376 C 219 445 241 505 280 550 L 280 202 C 241 247 219 307 219 376 Z" />
<glyph unicode="ớ" horiz-adv-x="1047" d="M 344 820 L 664 870 L 664 980 L 344 930 Z M 927 376 C 927 498 875 602 791 672 L 867 672 L 907 870 L 783 870 L 749 702 C 683 743 602 766 513 766 C 276 766 100 603 100 376 C 100 149 276 -14 513 -14 C 750 -14 927 149 927 376 Z M 513 646 C 680 646 797 538 797 376 C 797 214 680 106 513 106 C 472 106 434 112 400 123 L 400 629 C 434 640 472 646 513 646 Z M 219 376 C 219 445 241 505 280 550 L 280 202 C 241 247 219 307 219 376 Z" />
<glyph unicode="Ờ" horiz-adv-x="1047" d="M 644 820 L 644 930 L 324 980 L 324 870 Z M 927 376 C 927 498 875 602 791 672 L 867 672 L 907 870 L 783 870 L 749 702 C 683 743 602 766 513 766 C 276 766 100 603 100 376 C 100 149 276 -14 513 -14 C 750 -14 927 149 927 376 Z M 513 646 C 680 646 797 538 797 376 C 797 214 680 106 513 106 C 472 106 434 112 400 123 L 400 629 C 434 640 472 646 513 646 Z M 219 376 C 219 445 241 505 280 550 L 280 202 C 241 247 219 307 219 376 Z" />
<glyph unicode="ờ" horiz-adv-x="1047" d="M 644 820 L 644 930 L 324 980 L 324 870 Z M 927 376 C 927 498 875 602 791 672 L 867 672 L 907 870 L 783 870 L 749 702 C 683 743 602 766 513 766 C 276 766 100 603 100 376 C 100 149 276 -14 513 -14 C 750 -14 927 149 927 376 Z M 513 646 C 680 646 797 538 797 376 C 797 214 680 106 513 106 C 472 106 434 112 400 123 L 400 629 C 434 640 472 646 513 646 Z M 219 376 C 219 445 241 505 280 550 L 280 202 C 241 247 219 307 219 376 Z" />
<glyph unicode="Ở" horiz-adv-x="1047" d="M 366 922 L 487 922 L 468 830 L 576 830 L 616 1022 L 366 1022 Z M 927 376 C 927 498 875 602 791 672 L 867 672 L 907 870 L 783 870 L 749 702 C 683 743 602 766 513 766 C 276 766 100 603 100 376 C 100 149 276 -14 513 -14 C 750 -14 927 149 927 376 Z M 513 646 C 680 646 797 538 797 376 C 797 214 680 106 513 106 C 472 106 434 112 400 123 L 400 629 C 434 640 472 646 513 646 Z M 219 376 C 219 445 241 505 280 550 L 280 202 C 241 247 219 307 219 376 Z" />
<glyph unicode="ở" horiz-adv-x="1047" d="M 366 922 L 487 922 L 468 830 L 576 830 L 616 1022 L 366 1022 Z M 927 376 C 927 498 875 602 791 672 L 867 672 L 907 870 L 783 870 L 749 702 C 683 743 602 766 513 766 C 276 766 100 603 100 376 C 100 149 276 -14 513 -14 C 750 -14 927 149 927 376 Z M 513 646 C 680 646 797 538 797 376 C 797 214 680 106 513 106 C 472 106 434 112 400 123 L 400 629 C 434 640 472 646 513 646 Z M 219 376 C 219 445 241 505 280 550 L 280 202 C 241 247 219 307 219 376 Z" />
<glyph unicode="Ỡ" horiz-adv-x="1047" d="M 664 972 C 640 950 602 944 564 947 C 518 950 471 970 424 973 C 386 976 348 970 324 949 L 324 839 C 348 860 386 866 424 863 C 471 860 518 840 564 837 C 602 834 640 840 664 862 Z M 927 376 C 927 498 875 602 791 672 L 867 672 L 907 870 L 783 870 L 749 702 C 683 743 602 766 513 766 C 276 766 100 603 100 376 C 100 149 276 -14 513 -14 C 750 -14 927 149 927 376 Z M 513 646 C 680 646 797 538 797 376 C 797 214 680 106 513 106 C 472 106 434 112 400 123 L 400 629 C 434 640 472 646 513 646 Z M 219 376 C 219 445 241 505 280 550 L 280 202 C 241 247 219 307 219 376 Z" />
<glyph unicode="ỡ" horiz-adv-x="1047" d="M 664 972 C 640 950 602 944 564 947 C 518 950 471 970 424 973 C 386 976 348 970 324 949 L 324 839 C 348 860 386 866 424 863 C 471 860 518 840 564 837 C 602 834 640 840 664 862 Z M 927 376 C 927 498 875 602 791 672 L 867 672 L 907 870 L 783 870 L 749 702 C 683 743 602 766 513 766 C 276 766 100 603 100 376 C 100 149 276 -14 513 -14 C 750 -14 927 149 927 376 Z M 513 646 C 680 646 797 538 797 376 C 797 214 680 106 513 106 C 472 106 434 112 400 123 L 400 629 C 434 640 472 646 513 646 Z M 219 376 C 219 445 241 505 280 550 L 280 202 C 241 247 219 307 219 376 Z" />
<glyph unicode="Ợ" horiz-adv-x="1047" d="M 927 376 C 927 498 875 602 791 672 L 867 672 L 907 870 L 783 870 L 749 702 C 683 743 602 766 513 766 C 276 766 100 603 100 376 C 100 149 276 -14 513 -14 C 750 -14 927 149 927 376 Z M 513 646 C 680 646 797 538 797 376 C 797 214 680 106 513 106 C 472 106 434 112 400 123 L 400 629 C 434 640 472 646 513 646 Z M 219 376 C 219 445 241 505 280 550 L 280 202 C 241 247 219 307 219 376 Z M 514 -258 C 563 -258 603 -221 603 -172 C 603 -122 563 -86 514 -86 C 464 -86 426 -122 426 -172 C 426 -221 464 -258 514 -258 Z" />
<glyph unicode="ợ" horiz-adv-x="1047" d="M 927 376 C 927 498 875 602 791 672 L 867 672 L 907 870 L 783 870 L 749 702 C 683 743 602 766 513 766 C 276 766 100 603 100 376 C 100 149 276 -14 513 -14 C 750 -14 927 149 927 376 Z M 513 646 C 680 646 797 538 797 376 C 797 214 680 106 513 106 C 472 106 434 112 400 123 L 400 629 C 434 640 472 646 513 646 Z M 219 376 C 219 445 241 505 280 550 L 280 202 C 241 247 219 307 219 376 Z M 514 -258 C 563 -258 603 -221 603 -172 C 603 -122 563 -86 514 -86 C 464 -86 426 -122 426 -172 C 426 -221 464 -258 514 -258 Z" />
<glyph unicode="Ụ" horiz-adv-x="1002" d="M 505 -23 C 724 -23 872 130 872 345 L 872 750 L 742 750 L 742 345 C 742 196 652 97 505 97 C 476 97 450 103 426 112 L 426 750 L 130 750 L 130 345 C 130 130 280 -23 505 -23 Z M 250 345 L 250 630 L 306 630 L 306 168 C 274 197 250 265 250 345 Z M 501 -258 C 550 -258 590 -221 590 -172 C 590 -122 550 -86 501 -86 C 451 -86 413 -122 413 -172 C 413 -221 451 -258 501 -258 Z" />
<glyph unicode="ụ" horiz-adv-x="1002" d="M 505 -23 C 724 -23 872 130 872 345 L 872 750 L 742 750 L 742 345 C 742 196 652 97 505 97 C 476 97 450 103 426 112 L 426 750 L 130 750 L 130 345 C 130 130 280 -23 505 -23 Z M 250 345 L 250 630 L 306 630 L 306 168 C 274 197 250 265 250 345 Z M 501 -258 C 550 -258 590 -221 590 -172 C 590 -122 550 -86 501 -86 C 451 -86 413 -122 413 -172 C 413 -221 451 -258 501 -258 Z" />
<glyph unicode="Ủ" horiz-adv-x="1002" d="M 383 922 L 504 922 L 485 830 L 593 830 L 633 1022 L 383 1022 Z M 505 -23 C 724 -23 872 130 872 345 L 872 750 L 742 750 L 742 345 C 742 196 652 97 505 97 C 476 97 450 103 426 112 L 426 750 L 130 750 L 130 345 C 130 130 280 -23 505 -23 Z M 250 345 L 250 630 L 306 630 L 306 168 C 274 197 250 265 250 345 Z" />
<glyph unicode="ủ" horiz-adv-x="1002" d="M 383 922 L 504 922 L 485 830 L 593 830 L 633 1022 L 383 1022 Z M 505 -23 C 724 -23 872 130 872 345 L 872 750 L 742 750 L 742 345 C 742 196 652 97 505 97 C 476 97 450 103 426 112 L 426 750 L 130 750 L 130 345 C 130 130 280 -23 505 -23 Z M 250 345 L 250 630 L 306 630 L 306 168 C 274 197 250 265 250 345 Z" />
<glyph unicode="Ứ" horiz-adv-x="1012" d="M 371 820 L 691 870 L 691 980 L 371 930 Z M 872 345 L 872 672 L 952 672 L 992 870 L 868 870 L 844 750 L 742 750 L 742 345 C 742 196 652 97 505 97 C 476 97 450 103 426 112 L 426 750 L 130 750 L 130 345 C 130 130 280 -23 505 -23 C 724 -23 872 130 872 345 Z M 250 345 L 250 630 L 306 630 L 306 168 C 274 197 250 265 250 345 Z" />
<glyph unicode="ứ" horiz-adv-x="1012" d="M 371 820 L 691 870 L 691 980 L 371 930 Z M 872 345 L 872 672 L 952 672 L 992 870 L 868 870 L 844 750 L 742 750 L 742 345 C 742 196 652 97 505 97 C 476 97 450 103 426 112 L 426 750 L 130 750 L 130 345 C 130 130 280 -23 505 -23 C 724 -23 872 130 872 345 Z M 250 345 L 250 630 L 306 630 L 306 168 C 274 197 250 265 250 345 Z" />
<glyph unicode="Ừ" horiz-adv-x="1012" d="M 671 820 L 671 930 L 351 980 L 351 870 Z M 872 345 L 872 672 L 952 672 L 992 870 L 868 870 L 844 750 L 742 750 L 742 345 C 742 196 652 97 505 97 C 476 97 450 103 426 112 L 426 750 L 130 750 L 130 345 C 130 130 280 -23 505 -23 C 724 -23 872 130 872 345 Z M 250 345 L 250 630 L 306 630 L 306 168 C 274 197 250 265 250 345 Z" />
<glyph unicode="ừ" horiz-adv-x="1012" d="M 671 820 L 671 930 L 351 980 L 351 870 Z M 872 345 L 872 672 L 952 672 L 992 870 L 868 870 L 844 750 L 742 750 L 742 345 C 742 196 652 97 505 97 C 476 97 450 103 426 112 L 426 750 L 130 750 L 130 345 C 130 130 280 -23 505 -23 C 724 -23 872 130 872 345 Z M 250 345 L 250 630 L 306 630 L 306 168 C 274 197 250 265 250 345 Z" />
<glyph unicode="Ử" horiz-adv-x="1012" d="M 383 922 L 504 922 L 485 830 L 593 830 L 633 1022 L 383 1022 Z M 872 345 L 872 672 L 952 672 L 992 870 L 868 870 L 844 750 L 742 750 L 742 345 C 742 196 652 97 505 97 C 476 97 450 103 426 112 L 426 750 L 130 750 L 130 345 C 130 130 280 -23 505 -23 C 724 -23 872 130 872 345 Z M 250 345 L 250 630 L 306 630 L 306 168 C 274 197 250 265 250 345 Z" />
<glyph unicode="ử" horiz-adv-x="1012" d="M 383 922 L 504 922 L 485 830 L 593 830 L 633 1022 L 383 1022 Z M 872 345 L 872 672 L 952 672 L 992 870 L 868 870 L 844 750 L 742 750 L 742 345 C 742 196 652 97 505 97 C 476 97 450 103 426 112 L 426 750 L 130 750 L 130 345 C 130 130 280 -23 505 -23 C 724 -23 872 130 872 345 Z M 250 345 L 250 630 L 306 630 L 306 168 C 274 197 250 265 250 345 Z" />
</font>
</defs>
</svg>
